<?xml version="1.0" standalone="no"?>
<!DOCTYPE svg PUBLIC "-//W3C//DTD SVG 20010904//EN"
 "http://www.w3.org/TR/2001/REC-SVG-20010904/DTD/svg10.dtd">
<svg version="1.0" xmlns="http://www.w3.org/2000/svg"
 width="260.000000pt" height="260.000000pt" viewBox="0 0 260.000000 260.000000"
 preserveAspectRatio="xMidYMid meet">
<metadata>
Created by potrace 1.11, written by Peter Selinger 2001-2013
</metadata>
<g transform="translate(0.000000,260.000000) scale(0.100000,-0.100000)"
fill="#000000" stroke="none">
<path d="M954 2465 l5 -60 -17 38 c-19 40 -37 41 -22 1 5 -13 6 -26 0 -29 -4
-3 -11 3 -14 12 -3 10 -3 -10 -1 -45 5 -74 0 -92 -27 -92 -14 0 -18 -5 -14
-16 4 -11 -1 -18 -15 -21 -14 -4 -19 -12 -16 -24 3 -12 0 -19 -9 -19 -17 0
-17 -5 -3 -50 5 -19 12 -42 14 -50 1 -8 12 -40 24 -70 12 -30 21 -57 21 -59 0
-2 -60 57 -132 131 -149 150 -213 202 -340 273 -48 26 -86 52 -85 58 1 5 -14
14 -33 19 -30 9 -36 7 -52 -15 -17 -24 -23 -25 -88 -21 -53 4 -74 2 -85 -9 -8
-8 -11 -17 -8 -21 4 -3 1 -6 -5 -6 -7 0 -12 -7 -12 -15 0 -9 -6 -18 -14 -21
-9 -3 -12 -12 -9 -21 5 -12 2 -14 -8 -9 -45 23 160 -153 245 -210 55 -38 108
-74 116 -81 118 -95 184 -149 225 -187 43 -40 46 -45 21 -36 -60 22 -107 30
-266 45 l-45 5 38 -20 c20 -11 37 -23 37 -26 0 -3 -24 -3 -52 0 l-53 6 40 -26
40 -25 -50 5 -50 5 55 -34 c30 -18 61 -37 69 -42 11 -7 12 -13 2 -32 -11 -20
-9 -27 16 -57 24 -30 48 -42 160 -79 212 -72 347 -140 420 -213 17 -18 35 -32
39 -32 4 0 24 18 45 41 l38 41 30 -22 31 -21 -7 33 c-6 30 -5 32 10 19 19 -15
22 -5 7 33 -11 30 -8 32 26 10 25 -17 25 -17 13 9 -7 16 -9 39 -4 64 18 84
-15 436 -45 493 -4 8 -8 20 -9 25 -3 32 -147 404 -181 471 l-21 39 5 -60z"/>
<path d="M2419 2441 c-163 -162 -229 -222 -237 -217 -6 3 -94 -81 -197 -186
-154 -158 -187 -187 -182 -163 38 192 47 249 42 264 -3 10 -23 31 -45 47 -22
16 -40 32 -40 36 0 12 -34 -5 -53 -27 -42 -48 -86 -180 -112 -339 -15 -88 -63
-253 -101 -352 -24 -62 -47 -129 -50 -150 -3 -22 -10 -47 -15 -56 -6 -12 -3
-29 10 -55 11 -21 23 -55 26 -75 13 -70 52 -72 94 -5 52 84 182 149 327 163
33 3 70 7 84 8 34 4 166 -10 285 -30 30 -5 30 -5 -8 19 -53 34 -53 36 -1 26
26 -5 49 -8 51 -6 1 2 -18 16 -45 30 -41 23 -43 26 -17 22 61 -10 95 -13 95
-10 0 2 -31 21 -69 42 -64 35 -72 42 -101 104 -18 36 -41 71 -51 77 -22 14
-79 25 -131 26 -21 1 -38 4 -38 8 0 4 37 43 83 87 247 238 425 391 459 391 31
0 118 130 118 178 0 26 -10 43 -50 82 -50 51 -67 58 -100 40 -17 -9 -18 -8 -3
21 8 17 13 32 12 33 -2 2 -20 -13 -40 -33z m-239 -231 c0 -5 -5 -10 -11 -10
-5 0 -7 5 -4 10 3 6 8 10 11 10 2 0 4 -4 4 -10z"/>
<path d="M256 1439 c-145 -49 -180 -74 -228 -167 l-22 -44 21 -16 c11 -10 38
-30 59 -47 22 -16 41 -32 44 -35 3 -3 49 -41 102 -83 66 -53 96 -83 93 -95 -1
-9 -12 -57 -24 -105 -12 -49 -21 -90 -21 -92 0 -1 18 -21 40 -43 27 -29 45
-40 60 -37 12 2 58 7 103 10 45 3 112 8 148 11 l66 6 16 -58 c35 -127 57 -237
57 -288 0 -53 0 -54 55 -96 l55 -42 221 136 c122 75 225 138 229 139 8 2 148
-126 448 -409 71 -66 112 -98 99 -77 -4 6 0 19 8 29 8 10 15 27 15 37 0 9 6
17 14 17 8 0 16 14 20 33 17 92 54 252 78 340 25 91 11 87 163 43 158 -47 255
-45 255 4 0 11 5 20 10 20 6 0 10 6 10 13 0 7 9 18 19 24 18 11 13 27 -108
302 -112 255 -134 298 -186 360 -33 39 -60 71 -62 71 -2 0 -1 -19 3 -42 l5
-43 -22 25 -22 25 7 -40 c6 -37 5 -38 -8 -21 -14 17 -15 14 -9 -33 4 -38 2
-56 -9 -69 -19 -22 -42 -80 -43 -107 0 -11 19 -57 41 -102 24 -47 36 -79 27
-75 -22 13 -151 -36 -158 -59 -4 -11 -10 -19 -14 -19 -11 0 -40 -69 -82 -190
-18 -52 -34 -97 -35 -99 -3 -4 -46 30 -109 88 -22 20 -72 63 -110 96 -83 71
-133 115 -152 134 -17 17 -16 17 -280 -146 -102 -63 -186 -113 -188 -111 -3 4
-98 403 -109 458 -3 17 -25 19 -76 9 -19 -4 -55 -11 -80 -14 -25 -4 -79 -13
-120 -21 -41 -8 -78 -14 -82 -14 -3 0 4 37 16 83 13 45 20 93 17 107 -5 17
-33 43 -91 82 -93 62 -96 69 -53 125 21 27 25 41 20 74 -5 42 -22 69 -41 69
-6 -1 -51 -14 -100 -31z"/>
</g>
</svg>
