<svg xmlns="http://www.w3.org/2000/svg" width="275" height="515.125"><path fill="#1E1E1E" stroke="#B2B2B2" stroke-width="2" stroke-miterlimit="10" d="M16.26 469.17V33.94c0-9.88 7.9-19.15 17.72-20.4C55.96 10.7 95.7 6.5 137.78 6.5s81.8 4.2 103.78 7.03c9.8 1.26 17.72 10.53 17.72 20.4v435.24c0 6.6-5.06 14.86-11.45 16.47-16.86 4.23-52.72 9.78-110.06 9.78s-93.2-5.55-110.06-9.78c-6.38-1.6-11.44-9.88-11.44-16.47z"/><path fill="#0C0C0C" d="M26.8 48.16V440.3h36.22L220.94 48.17z"/><path fill="#0A0A0A" d="M248.73 48.16h-27.8L63.04 440.3h185.7z"/><circle cx="137.452" cy="30.714" r="5.856" fill="#7A7A7A" stroke="#111" stroke-miterlimit="10"/><circle cx="56.196" cy="31.445" r="2.318" fill="#7A7A7A"/><path fill="none" stroke="#545454" stroke-width="2" stroke-miterlimit="10" d="M13.98 101.26v76.36" stroke-linecap="round"/><path fill="none" stroke="#545454" stroke-width="2" stroke-miterlimit="10" d="M261.56 69.64v31.62" stroke-linecap="round"/></svg>