<svg xmlns="http://www.w3.org/2000/svg" width="940" height="720"><g><g fill="#fff" stroke="#007D00"><g><path d="M500.23 666.82c50.26-34.6 92-4.22 130.2 30.14-49.33 13.4-101.57 19.5-130.2-30.14z"/><path d="M512.3 637.03c2.24-61 51.53-76.33 101.9-86.48-18.68 47.58-44.98 93.13-101.9 86.48z"/><path d="M589.86 639.34c47.15-38.74 91.3-11.98 132.28 19.03-48.02 17.52-99.56 28-132.28-19.03z"/><path d="M633.6 610.42c-29.4-53.5 5.03-91.95 43.07-126.52 8.38 50.43 9.18 103.02-43.08 126.52z"/><path d="M671.75 609.23c34.7-50.2 84.5-36.6 132.43-18.05-41.36 30.04-88.04 54.28-132.43 18.05z"/><path d="M720.76 564.46c-44.9-41.34-24.5-88.77.53-133.65 24 45.14 41.5 94.73-.54 133.65z"/><path d="M744.6 559.4c24.53-55.9 76-52.02 126.58-42.92-34.88 37.37-76.1 70.04-126.57 42.9z"/><path d="M785.5 505.37c-51.77-32.3-40.54-82.68-24.26-131.43 31.96 39.9 58.37 85.38 24.27 131.43z"/><path d="M803.6 497.8c13.5-59.5 64.77-65.44 116.16-66.06-27.2 43.28-61.5 83.16-116.17 66.07z"/><path d="M818.96 410.35c-55.14-26.15-49.75-77.5-39.16-127.78 36.32 35.97 67.76 78.14 39.16 127.78z"/><path d="M828.15 427.37c6.34-60.7 56.56-72.68 107.5-79.4-21.85 46.2-51.17 89.87-107.5 79.4z"/><path d="M842.14 310.86c-59.6-13.17-65.8-64.42-66.72-115.8 43.44 26.94 83.5 61 66.72 115.8z"/><path d="M853.8 355.62c-17.24-58.54 24.63-88.73 69.2-114.35-2.64 51.06-13.12 102.6-69.2 114.35z"/><path d="M818.7 195.87c-60.95 3.05-80.5-44.72-94.96-94.04 49.02 14.5 96.66 36.77 94.96 94.04z"/><path d="M857.94 261.56c-36.63-48.8-7.96-91.74 24.82-131.32 15.4 48.74 23.6 100.7-24.82 131.32z"/><path d="M792.04 109.04c-60.93-3.52-75.23-53.12-84.3-103.7 47.17 19.68 92.14 46.94 84.3 103.7z"/><path d="M830.93 161.7c-45.78-40.35-26.43-88.2-2.36-133.62 24.97 44.6 43.55 93.8 2.36 133.62z"/></g><g><path d="M438.97 667.7c-50.26-34.6-92-4.22-130.2 30.15 49.33 13.4 101.57 19.48 130.2-30.15z"/><path d="M426.9 637.9c-2.24-60.97-51.53-76.32-101.9-86.46 18.68 47.58 44.98 93.12 101.9 86.47z"/><path d="M349.34 640.22c-47.15-38.74-91.3-11.98-132.28 19.03 48.02 17.53 99.56 28 132.28-19.03z"/><path d="M305.6 611.3c29.4-53.48-5.04-91.95-43.07-126.52-8.38 50.43-9.18 103.02 43.08 126.52z"/><path d="M267.44 610.1c-34.7-50.2-84.5-36.6-132.42-18.04 41.36 30.05 88.03 54.28 132.42 18.05z"/><path d="M218.44 565.34c44.9-41.34 24.5-88.77-.53-133.65-24 45.12-41.5 94.7.54 133.64z"/><path d="M194.6 560.28c-24.53-55.9-76-52.02-126.6-42.92 34.9 37.37 76.12 70.04 126.6 42.92z"/><path d="M153.7 506.25c51.77-32.3 40.54-82.68 24.26-131.43-31.96 39.9-58.37 85.38-24.27 131.43z"/><path d="M135.6 498.7c-13.5-59.52-64.77-65.45-116.16-66.08 27.2 43.3 61.48 83.16 116.17 66.07z"/><path d="M120.23 411.23c55.14-26.15 49.75-77.5 39.16-127.78-36.33 35.97-67.77 78.14-39.17 127.78z"/><path d="M111.05 428.25c-6.34-60.7-56.56-72.68-107.5-79.4 21.85 46.2 51.16 89.87 107.5 79.4z"/><path d="M97.06 311.74c59.58-13.17 65.8-64.42 66.72-115.8-43.44 26.94-83.5 61-66.72 115.8z"/><path d="M85.4 356.5c17.24-58.53-24.63-88.73-69.2-114.34 2.63 51.05 13.12 102.6 69.2 114.35z"/><path d="M120.5 196.75c60.95 3.06 80.5-44.72 94.96-94.04-49.02 14.52-96.67 36.78-94.96 94.05z"/><path d="M81.25 262.44c36.63-48.8 7.97-91.74-24.82-131.32-15.4 48.74-23.6 100.7 24.82 131.32z"/><path d="M147.16 109.92c60.92-3.52 75.22-53.12 84.3-103.7-47.17 19.7-92.15 46.94-84.3 103.7z"/><path d="M108.27 162.6c45.78-40.37 26.42-88.23 2.36-133.64-24.97 44.6-43.55 93.8-2.36 133.63z"/></g><path stroke-width=".85" d="M487.1 655.43c0 9.77-7.92 17.68-17.68 17.68-9.77 0-17.68-7.9-17.68-17.67 0-9.76 7.9-17.68 17.68-17.68 9.76 0 17.68 7.92 17.68 17.68z" stroke-linecap="round"/></g></g><g fill="#fff" enable-background="new"><path d="M271.16 170.4c-.18-4.93-.37-10.88-.37-16.83h-.2c-1.26 5.22-2.96 11.05-4.54 15.85l-4.98 15.97h-7.23l-4.37-15.86c-1.34-4.8-2.74-10.63-3.7-15.97h-.13c-.24 5.52-.42 11.84-.73 16.94l-.73 15.56h-8.57l2.6-40.93h12.34l4 13.66c1.28 4.72 2.56 9.83 3.47 14.62h.18c1.15-4.73 2.55-10.14 3.9-14.7l4.36-13.6h12.1l2.23 40.94h-9.04l-.6-15.67zM304.68 186.06l-.54-2.98h-.18c-1.95 2.37-4.98 3.64-8.5 3.64-6.02 0-9.6-4.37-9.6-9.1 0-7.72 6.92-11.42 17.43-11.36v-.42c0-1.58-.86-3.83-5.42-3.83-3.03 0-6.25 1.04-8.2 2.26l-1.7-5.96c2.07-1.15 6.14-2.6 11.54-2.6 9.9 0 13.06 5.82 13.06 12.8v10.33c0 2.85.12 5.6.42 7.23h-8.32zm-1.1-14.03c-4.85-.06-8.6 1.1-8.6 4.67 0 2.37 1.57 3.53 3.63 3.53 2.32 0 4.2-1.52 4.8-3.4.13-.5.2-1.04.2-1.58v-3.22zM319.8 177.98c1.7 1.03 5.23 2.25 7.96 2.25 2.8 0 3.95-.98 3.95-2.5 0-1.5-.9-2.24-4.36-3.4-6.14-2.06-8.5-5.4-8.44-8.92 0-5.52 4.73-9.7 12.08-9.7 3.46 0 6.56.78 8.38 1.7l-1.64 6.37c-1.33-.73-3.88-1.7-6.44-1.7-2.24 0-3.52.9-3.52 2.43 0 1.4 1.16 2.12 4.8 3.4 5.65 1.94 8.02 4.8 8.08 9.17 0 5.52-4.38 9.6-12.88 9.6-3.9 0-7.35-.86-9.6-2.07l1.65-6.62zM346.17 177.98c1.7 1.03 5.22 2.25 7.95 2.25 2.8 0 3.95-.98 3.95-2.5 0-1.5-.9-2.24-4.37-3.4-6.14-2.06-8.5-5.4-8.44-8.92 0-5.52 4.73-9.7 12.08-9.7 3.46 0 6.56.78 8.38 1.7l-1.64 6.37c-1.33-.73-3.9-1.7-6.44-1.7-2.24 0-3.52.9-3.52 2.43 0 1.4 1.16 2.12 4.8 3.4 5.65 1.94 8.02 4.8 8.08 9.17 0 5.52-4.38 9.6-12.88 9.6-3.9 0-7.35-.86-9.6-2.07l1.65-6.62zM371.3 181.14c0-3.28 2.26-5.65 5.47-5.65 3.22 0 5.4 2.3 5.4 5.64 0 3.22-2.18 5.6-5.46 5.6-3.14-.02-5.4-2.38-5.4-5.6z"/></g><g fill="#fff" enable-background="new"><path d="M380.64 385.07c1.82-.3 4.2-.45 6.7-.45 4.15 0 6.85.75 8.96 2.34 2.27 1.7 3.7 4.4 3.7 8.25 0 4.2-1.52 7.1-3.64 8.88-2.3 1.9-5.8 2.82-10.1 2.82-2.57 0-4.4-.16-5.62-.32v-21.5zm4.97 17.87c.43.1 1.1.1 1.73.1 4.5.03 7.4-2.44 7.4-7.67.04-4.55-2.62-6.95-6.88-6.95-1.1 0-1.82.1-2.24.2v14.32zM408.32 386.37c0 1.37-1.04 2.47-2.67 2.47-1.55 0-2.6-1.1-2.56-2.47-.04-1.43 1-2.5 2.6-2.5s2.6 1.07 2.62 2.5zm-5.1 20.3V390.8h4.93v15.88h-4.93zM427.3 390.8c-.08 1-.14 2.33-.14 4.7v8.87c0 3.05-.62 5.56-2.4 7.15-1.76 1.5-4.13 1.95-6.47 1.95-2.1 0-4.3-.43-5.73-1.24l.98-3.73c1 .58 2.76 1.2 4.6 1.2 2.35 0 4.14-1.27 4.14-4.2v-1.03h-.08c-.94 1.33-2.47 2.08-4.3 2.08-3.92 0-6.7-3.2-6.7-7.77 0-5.1 3.3-8.35 7.2-8.35 2.18 0 3.54.95 4.35 2.25h.07l.16-1.9h4.3zm-5.08 6.46c0-.33-.03-.65-.1-.9-.35-1.3-1.3-2.2-2.66-2.2-1.8 0-3.25 1.63-3.25 4.53 0 2.36 1.18 4.2 3.26 4.2 1.27 0 2.27-.83 2.6-2 .13-.36.16-.88.16-1.3v-2.34zM436.22 386.37c0 1.37-1.04 2.47-2.66 2.47-1.56 0-2.6-1.1-2.57-2.47-.04-1.43 1-2.5 2.6-2.5s2.6 1.07 2.62 2.5zm-5.1 20.3V390.8h4.94v15.88h-4.94zM445.55 386.24v4.55h3.54v3.63h-3.56v5.75c0 1.92.46 2.8 1.95 2.8.6 0 1.1-.07 1.46-.13l.03 3.73c-.66.26-1.83.42-3.23.42-1.6 0-2.92-.55-3.7-1.36-.9-.94-1.36-2.47-1.36-4.7v-6.5h-2.1v-3.65h2.1v-3.45l4.85-1.1zM460.98 406.68l-.3-1.6h-.1c-1.03 1.27-2.66 1.96-4.54 1.96-3.22 0-5.13-2.34-5.13-4.88 0-4.12 3.7-6.1 9.33-6.07v-.24c0-.84-.46-2.05-2.9-2.05-1.62 0-3.34.57-4.38 1.22l-.9-3.2c1.1-.6 3.27-1.4 6.16-1.4 5.3 0 7 3.13 7 6.87v5.5c0 1.54.06 3 .23 3.88h-4.45zm-.6-7.5c-2.6-.04-4.6.58-4.6 2.5 0 1.26.84 1.88 1.95 1.88 1.23 0 2.24-.8 2.56-1.82.06-.26.1-.55.1-.84v-1.73zM469.1 383.6h4.93v23.08h-4.93V383.6zM503.04 405.67c-1.52.52-4.42 1.23-7.3 1.23-4 0-6.9-1-8.9-2.95-2.02-1.9-3.13-4.74-3.1-7.96.04-7.3 5.33-11.45 12.5-11.45 2.84 0 5.02.56 6.1 1.08l-1.05 3.96c-1.2-.53-2.7-.95-5.1-.95-4.14 0-7.26 2.34-7.26 7.08 0 4.52 2.83 7.18 6.9 7.18 1.13 0 2.04-.12 2.43-.3V398h-3.38v-3.86h8.14v11.53zM516.04 406.68l-.3-1.6h-.1c-1.03 1.27-2.66 1.96-4.54 1.96-3.22 0-5.13-2.34-5.13-4.88 0-4.12 3.7-6.1 9.32-6.07v-.24c0-.84-.47-2.05-2.9-2.05-1.63 0-3.35.57-4.4 1.22l-.9-3.2c1.1-.6 3.28-1.4 6.17-1.4 5.3 0 7 3.13 7 6.87v5.5c0 1.54.05 3 .22 3.88h-4.46zm-.6-7.5c-2.6-.04-4.6.58-4.6 2.5 0 1.26.84 1.88 1.95 1.88 1.22 0 2.23-.8 2.55-1.82.07-.26.1-.55.1-.84v-1.73zM524.16 395.86c0-1.98-.07-3.67-.13-5.07h4.16l.2 2.14h.1c.7-1 2.1-2.5 4.82-2.5 2.05 0 3.67 1.04 4.35 2.7h.07c.58-.82 1.3-1.47 2.04-1.92.88-.53 1.86-.78 3.03-.78 3.06 0 5.37 2.14 5.37 6.88v9.36h-4.8v-8.64c0-2.3-.76-3.64-2.35-3.64-1.14 0-1.95.78-2.28 1.72-.13.36-.2.88-.2 1.27v9.28h-4.8v-8.9c0-2.02-.7-3.38-2.27-3.38-1.27 0-2.02.97-2.3 1.8-.17.38-.2.83-.2 1.22v9.26h-4.8v-10.82zM555.9 400.3c.16 2.06 2.17 3.03 4.48 3.03 1.7 0 3.05-.23 4.38-.65l.65 3.35c-1.6.65-3.6.97-5.74.97-5.4 0-8.48-3.1-8.48-8.08 0-4.03 2.5-8.48 8.03-8.48 5.14 0 7.1 4 7.1 7.92 0 .85-.1 1.6-.17 1.95H555.9zm5.8-3.37c0-1.2-.5-3.2-2.78-3.2-2.08 0-2.93 1.87-3.06 3.2h5.85zM569.2 402.36c.92.55 2.8 1.2 4.27 1.2 1.5 0 2.1-.52 2.1-1.33 0-.82-.48-1.2-2.33-1.82-3.28-1.1-4.55-2.88-4.5-4.77 0-2.95 2.52-5.2 6.45-5.2 1.84 0 3.5.43 4.47.92l-.87 3.4c-.72-.38-2.08-.9-3.45-.9-1.2 0-1.88.48-1.88 1.3 0 .74.62 1.13 2.57 1.82 3.02 1.03 4.28 2.56 4.32 4.9 0 2.96-2.34 5.13-6.9 5.13-2.07 0-3.92-.45-5.12-1.1l.88-3.54zM595.04 384.78v21.9h-4.97v-21.9h4.97zM599.26 395.86c0-1.98-.06-3.67-.13-5.07h4.3l.22 2.17h.1c.64-1 2.27-2.53 4.9-2.53 3.25 0 5.7 2.14 5.7 6.82v9.42h-4.95v-8.8c0-2.05-.72-3.45-2.5-3.45-1.37 0-2.18.94-2.5 1.85-.13.3-.2.78-.2 1.24v9.16h-4.94v-10.82zM618.27 402.36c.9.55 2.8 1.2 4.25 1.2 1.5 0 2.1-.52 2.1-1.33 0-.82-.47-1.2-2.33-1.82-3.3-1.1-4.55-2.88-4.52-4.77 0-2.95 2.53-5.2 6.46-5.2 1.86 0 3.5.43 4.5.92l-.9 3.4c-.7-.38-2.07-.9-3.43-.9-1.2 0-1.88.48-1.88 1.3 0 .74.62 1.13 2.57 1.82 3 1.03 4.28 2.56 4.3 4.9 0 2.96-2.33 5.13-6.88 5.13-2.08 0-3.93-.45-5.13-1.1l.87-3.54zM637.92 386.24v4.55h3.54v3.63h-3.54v5.75c0 1.92.45 2.8 1.95 2.8.62 0 1.1-.07 1.46-.13l.03 3.73c-.65.26-1.82.42-3.2.42-1.6 0-2.94-.55-3.72-1.36-.9-.94-1.36-2.47-1.36-4.7v-6.5h-2.1v-3.65h2.1v-3.45l4.84-1.1zM649.42 386.37c0 1.37-1.04 2.47-2.66 2.47-1.56 0-2.6-1.1-2.57-2.47-.04-1.43 1-2.5 2.6-2.5s2.6 1.07 2.62 2.5zm-5.1 20.3V390.8h4.94v15.88h-4.94zM658.74 386.24v4.55h3.54v3.63h-3.54v5.75c0 1.92.46 2.8 1.95 2.8.6 0 1.1-.07 1.45-.13l.03 3.73c-.65.26-1.82.42-3.2.42-1.6 0-2.94-.55-3.72-1.36-.9-.94-1.36-2.47-1.36-4.7v-6.5h-2.1v-3.65h2.1v-3.45l4.84-1.1zM680.12 401.58c0 2.08.06 3.77.13 5.1h-4.3l-.22-2.24h-.1c-.6.97-2.1 2.6-4.97 2.6-3.2 0-5.58-2.02-5.58-6.92v-9.33h4.97v8.54c0 2.3.74 3.7 2.47 3.7 1.36 0 2.14-.94 2.46-1.72.13-.3.17-.68.17-1.07v-9.46h4.97v10.78zM689.6 386.24v4.55h3.54v3.63h-3.54v5.75c0 1.92.46 2.8 1.95 2.8.62 0 1.1-.07 1.46-.13l.05 3.73c-.65.26-1.82.42-3.22.42-1.6 0-2.92-.55-3.7-1.36-.9-.94-1.37-2.47-1.37-4.7v-6.5h-2.1v-3.65h2.1v-3.45l4.84-1.1zM699.64 400.3c.16 2.06 2.18 3.03 4.48 3.03 1.7 0 3.06-.23 4.4-.65l.64 3.35c-1.63.65-3.6.97-5.75.97-5.4 0-8.47-3.1-8.47-8.08 0-4.03 2.5-8.48 8.02-8.48 5.13 0 7.08 4 7.08 7.92 0 .85-.1 1.6-.16 1.95h-10.23zm5.82-3.37c0-1.2-.52-3.2-2.8-3.2-2.08 0-2.92 1.87-3.05 3.2h5.86z"/></g><path fill="#fff" d="M232.7 305.5c0-26.57 0-53.15.03-79.73.02-17 6.9-23.83 24-23.83 17.4 0 34.82-.18 52.22.13 36.26.63 57.75 15.6 70.5 49.66 8 21.4 10.38 43.8 7.97 66.42-1.48 13.85-3.24 28-7.53 41.16-10.98 33.7-34.88 50.47-70.1 50.9-18.34.24-36.7.15-55.04.02-14.88-.1-21.04-5.7-21.74-20.75-.65-14.1-.4-28.22-.45-42.32-.06-13.9-.02-27.76-.02-41.64.06 0 .1 0 .16 0zm37.92-70.65c0 47.95 0 94.24 0 140.97 11.88 0 23.13-.05 34.4 0 18.7.1 30.78-9.4 37.5-26.24 10.15-25.48 10.06-51.84 4.1-77.96-3.47-15.2-11.3-29.32-28.47-32.42-15.32-2.75-31.1-2.95-47.53-4.34zM600.02 288.35c-11.52 0-22.1.36-32.63-.1-9.08-.4-13.73-5-14.1-12.55-.48-9.06 3.9-15.93 12.82-16.2 18.05-.58 36.17-.16 54.2.77 7.25.38 12.2 7.58 12.32 15.87.22 16.47.6 32.98-.28 49.4-.26 4.8-3.36 10.85-7.14 13.8-34.03 26.65-87.02 31.98-121.26 8-18.7-13.12-28.6-31.85-33.2-53.68-5.4-25.56-4.5-50.98 4.9-75.4 12.98-33.7 40.85-51.52 79.3-52.25 19.82-.35 38.4 3.55 54.1 16.37 9.5 7.74 16.36 17.36 18.47 29.8 1.6 9.4-2.57 17.52-10.68 20.74-7.82 3.1-15.74.26-21-8.14-6.1-9.78-12-19.67-23.1-24.73-19.54-8.92-45.05-1-57.05 17.47-6.54 10.06-10.97 21.15-11.17 32.88-.25 14.2-.1 28.9 3.13 42.6 7.6 32.28 38.18 46.77 71.3 35.4 21.4-7.32 21.38-7.32 21.07-29.88-.04-2.78 0-5.57 0-10.15zM707.44 264.9c0 21.86.08 43.72-.06 65.58-.03 4.43-.53 8.92-1.42 13.26-1.8 8.77-8.57 13.8-17.83 13.7-8.8-.07-16.18-5.74-17.3-14.4-1.03-7.9-1.27-15.93-1.24-23.9.1-31.93.48-63.87.73-95.8.1-11.95-.4-23.92.4-35.8.67-9.9 7.87-15.8 17.3-16 9.14-.18 16.08 5.26 18.02 14.53.8 3.87 1.3 7.9 1.34 11.84.1 22.34.04 44.67.04 67zM442.3 277.28c0 23.25.08 46.5-.04 69.74-.06 11.82-4.68 16.3-16.13 16.28-11.2-.02-15.58-4.3-15.73-15.88-.3-25.37-.56-50.73-.6-76.1-.03-12.18 4.74-18.23 14.2-19 11.36-.9 17.75 4.38 18.8 15.8.27 3.03.03 6.1.03 9.16-.17 0-.35 0-.53 0zM394.77 170.46c.12-17.3 12.5-29.34 30.1-29.27 17.3.05 30.06 13.1 29.83 30.52-.22 17.3-13.22 29.63-30.96 29.4-16.87-.22-29.1-13.15-28.97-30.66z"/></svg>