<svg xmlns="http://www.w3.org/2000/svg" width="61.211" height="60.605"><path fill="#FB406F" d="M54.98 15.57H6.23C3.26 15.57.82 18.02.82 21v21.65c0 2.98 2.44 5.42 5.42 5.42h48.73c2.98 0 5.42-2.44 5.42-5.42V21c0-3-2.45-5.43-5.42-5.43zM27.9 34.53h-8.12v8.12h-5.42v-8.12H6.24V29.1h8.12V21h5.42v8.1h8.12v5.43zm12.18 5.4c-2.25 0-4.06-1.8-4.06-4.05s1.8-4.06 4.06-4.06 4.07 1.8 4.07 4.06-1.82 4.06-4.07 4.06zm10.84-8.1c-2.25 0-4.07-1.82-4.07-4.07s1.8-4.06 4.06-4.06S55 25.5 55 27.76s-1.82 4.06-4.06 4.06z"/></svg>