<svg xmlns="http://www.w3.org/2000/svg" width="36.795" height="35.312"><path fill="#fff" fill-rule="evenodd" d="M18.57 6C11.93 6 6.54 11.4 6.54 18.03c0 5.3 3.45 9.82 8.23 11.4.6.12.82-.25.82-.57 0-.28-.02-1.04-.03-2.04-3.34.73-4.05-1.6-4.05-1.6-.54-1.4-1.33-1.77-1.33-1.77-1.1-.75.07-.73.07-.73 1.2.08 1.84 1.23 1.84 1.23 1.1 1.84 2.83 1.3 3.5 1 .12-.77.43-1.3.78-1.6-2.67-.3-5.48-1.34-5.48-5.95 0-1.3.47-2.4 1.24-3.23-.13-.3-.54-1.52.1-3.18 0 0 1.02-.33 3.32 1.22.96-.26 2-.4 3-.4 1.03 0 2.06.14 3.02.4 2.3-1.55 3.3-1.23 3.3-1.23.67 1.65.25 2.87.13 3.17.78.84 1.24 1.92 1.24 3.23 0 4.62-2.8 5.64-5.5 5.94.45.37.83 1.1.83 2.22 0 1.6-.02 2.9-.02 3.3 0 .33.22.7.83.58 4.78-1.6 8.22-6.1 8.22-11.4C30.6 11.38 25.2 6 18.57 6z" clip-rule="evenodd"/></svg>