<?xml version="1.0" encoding="utf-8"?>
<!-- Generator: Adobe Illustrator 16.0.0, SVG Export Plug-In . SVG Version: 6.00 Build 0)  -->
<!DOCTYPE svg PUBLIC "-//W3C//DTD SVG 1.1//EN" "http://www.w3.org/Graphics/SVG/1.1/DTD/svg11.dtd">
<svg version="1.1" id="Layer_1" xmlns="http://www.w3.org/2000/svg" xmlns:xlink="http://www.w3.org/1999/xlink" x="0px" y="0px"
	 width="61.211px" height="60.605px" viewBox="0 0 61.211 60.605" enable-background="new 0 0 61.211 60.605" xml:space="preserve">
<path fill="#FFC300" d="M43.465,6.301L20.082,6.278c-2.571,0-4.677,2.104-4.677,4.678v42.09c0,2.572,2.105,4.678,4.677,4.678h23.383
	c2.57,0,4.677-2.104,4.677-4.678v-42.09C48.142,8.382,46.036,6.301,43.465,6.301z M31.773,55.773c-1.481,0-2.683-1.2-2.683-2.683
	s1.201-2.683,2.683-2.683c1.481,0,2.683,1.2,2.683,2.683S33.254,55.773,31.773,55.773z M43.465,48.369H20.082V15.631h23.383V48.369z
	"/>
</svg>
