<svg xmlns="http://www.w3.org/2000/svg" width="430" height="258"><path fill="#FFC300" d="M391.56 200.7l-37.6-53.2-.34-.5-.52-.37-7.9-5.67-10.48-7.53 1.94 5.52-.2 7.1c0 .27-.03.56-.05.85-3.7 1.06-5.76 2.28-6.78 3.96-.97 1.6-1.47 3.23-1.47 4.83 0 1.36.36 2.68 1.07 3.9.77 1.35 1.8 2.28 2.47 2.8l19.8 23.63-23.3-5.4-1.02-.24-1.03.22-17.6 3.9-1.84.4-.82 1.46-18.6 32.7-62.08-33.67-1.84-.98-1.98.76-68.97 26.32-17.18-44.64-1.06-2.74-3.3.35-53.34 5.64 5.7-12.3c.55-.94 2.08-4.12.36-7.27-.88-1.6-2.9-3.68-7.5-4.55L48 134.36l9.7-2.12c.66-.1 1.95-.35 3.25-1 1.17-.6 2.1-1.37 2.75-2.3.78-1.13 1.12-2.46 1-3.85 0-.5-.05-1.67-.4-2.9-.33-1.1-.83-2.06-1.5-2.82-1.12-1.3-2.74-2.05-4.54-2.15l-.53-.03-.52.08c-.08.02-9.34 1.58-18.97 3.7-18.2 3.96-22.37 6.44-24.06 8.34l-2.84 3.2 4.04 2.02 46.96 23.44-7.13 18.72-.9 2.38 2.3 1.53 8.17 5.43 1.2.8 1.52-.08 52.44-2.68c1.4 2.82 3.9 8.03 6.25 13.8 5.95 14.54 6.1 20.47 5.65 22.72l-.47 2.42 2.47 1.23 12.8 6.36 1.8.9 1.88-.72 70.12-26.8 80.1 46.3 4.7 2.72 1.5-4.7c.04-.1 2.73-8.4 6.42-18.25.48-1.3.96-2.56 1.44-3.8.63-1.6 1.26-3.2 1.86-4.7 2.64-6.52 5.06-11.86 7.2-15.86 2.36-4.43 3.92-6.33 4.7-7.1 7.82 1.7 38.64 8.25 53.6 8.25 3.52 0 6.02-.35 7.85-1.1l4.13-1.68-2.38-3.36zM342.6 143.7l1.8 5.16-1.8-5.16zm-2.06 2.45c0 .05-.1 3.44-.9 3.62.8-.18.9-3.62.9-3.62zm-5.85 13.84s-4.37-2.68-1.46-7.47c.7-1.14 3.5-2.05 6.15-2.7-2.65.65-5.47 1.56-6.16 2.7-2.9 4.8 1.45 7.46 1.45 7.46l26.86 32.07-26.87-32.06zm-25.16 27.97l15.57-3.44-15.55 3.44-20.6 36.23 20.6-36.23zm-139.4 20.66l-20.2 7.7 20.2-7.7zm-38.8-40.62l-6.36.67 6.36-.67zm-74.44-39.2l-20.88 4.55 20.88-4.56s1.93-.2 3.02-1.32c-1.1 1.13-3.02 1.32-3.02 1.32zm3.3-6.14c-.36-.95-1.02-1.82-2.2-1.9 1.18.08 1.84.95 2.2 1.9zm-1.12 55.16l8.17-21.45-49.84-24.87 49.85 24.87-8.17 21.45 8.17 5.42-8.17-5.42zm76.8 43.38c2.18-11.08-13.35-40.78-13.35-40.78s15.53 29.7 13.35 40.78l12.8 6.36-12.8-6.36zm84.97-21.22l81.98 47.38-81.98-47.38zm106.76-5.2c0 .02 0 .02 0 .02s6.57 1.47 15.42 3.2c-8.83-1.72-15.4-3.2-15.4-3.2zm32.56 6.28c-.2-.03-.42-.07-.63-.1.2.03.42.07.63.1zm-2.25-.36c-.24-.04-.5-.08-.73-.13.24.05.5.1.74.13zm-2.35-.4c-.26-.04-.52-.1-.8-.13.27.04.54.1.8.13zm-2.06-.35c-.37-.07-.74-.13-1.1-.2.36.07.73.13 1.1.2zm-2.17-.4c-.34-.05-.67-.1-1-.17.33.06.66.12 1 .18zm-2.28-.4c-.32-.06-.64-.12-.95-.18.3.06.63.12.95.18zm-1.86-.35c-.48-.1-.95-.17-1.4-.26.45.08.92.17 1.4.26zm-2.1-.4c-.56-.1-1.13-.2-1.68-.32.55.1 1.12.22 1.7.33zm36.85 4.93s-.03 0-.04 0c.13 0 .25 0 .36 0-.1 0-.2 0-.3 0zm-20.32-2.03c.2.03.38.06.57.1-.2-.04-.38-.07-.57-.1zm2.32.35c.2.03.4.06.6.08-.2-.02-.4-.05-.6-.08zm2.35.33c.17.02.35.05.52.07-.17-.02-.35-.05-.52-.07zm2.13.28c.14.02.28.04.42.06-.14-.03-.28-.05-.42-.07zm2.07.26c.16 0 .32.02.48.04-.16 0-.32-.03-.48-.05zm2.15.23c.16.02.32.03.48.05-.16-.02-.32-.04-.48-.05zm2.13.2c.1.02.2.03.32.03-.1 0-.22 0-.33-.02zm1.8.15c.1 0 .2.02.3.03-.1 0-.2 0-.3-.02zm1.82.12c.13 0 .26.02.38.02-.12 0-.25 0-.38-.02zm1.8.08c.12 0 .22 0 .33 0-.1 0-.2 0-.32 0zm7.36-.55c-.04.02-.1.03-.13.04.04 0 .1-.02.13-.04zm-.56.15c-.08.02-.16.04-.24.05.08 0 .16-.03.24-.05zm-.62.13c-.1.03-.2.04-.3.06.1-.02.2-.04.3-.05zm-.7.1c-.1.02-.22.04-.33.05.1 0 .23-.03.34-.04zm-.73.1c-.13 0-.25 0-.38.02.13 0 .25-.02.38-.03zm-.8.05c-.14 0-.28.02-.4.02.12 0 .26 0 .4-.02zm-.9.04c-.12 0-.25 0-.4 0 .15 0 .28 0 .4 0z"/><path fill="#3B88E4" d="M66 112.75s-36.5 6.13-40.6 10.73l49.85 24.87-8.17 21.45 8.17 5.42 55.3-2.82s15.5 29.7 13.33 40.78l12.8 6.36 72.17-27.58 81.98 47.4s2.7-8.36 6.45-18.4c.47-1.25.96-2.53 1.45-3.83.6-1.56 1.24-3.16 1.88-4.74 5.03-12.46 10.94-24.7 15-25.62 0 0 51.2 11.55 60.47 7.77l-37.58-53.2-7.9-5.67 1.8 5.17-3.85-2.7c0-.02-.1 3.42-.9 3.6-2.7.64-5.7 1.58-6.4 2.75-2.9 4.8 1.44 7.46 1.44 7.46l26.87 32.07-34.4-7.98-17.62 3.9-20.6 36.22-65.92-35.76-73.08 27.9-18.6-48.32-60.2 6.36 8.36-18s3.64-5.65-4.7-6.98L44 125.33l20.88-4.56s4.1-.4 3.72-3.54c0 0 .1-4.32-2.63-4.48z"/><path fill="#fff" d="M66 112.75c2.72.16 2.62 4.48 2.62 4.48.36 3.15-3.72 3.54-3.72 3.54l-20.88 4.56 38.76 16.03c8.36 1.33 4.73 7 4.73 7l-8.35 17.98 60.2-6.36 18.6 48.33 73.08-27.9 65.9 35.77 20.6-36.23 17.62-3.9 34.4 8-26.86-32.08s-4.37-2.67-1.46-7.46c.7-1.17 3.7-2.1 6.4-2.75.8-.18.9-3.62.9-3.62l3.86 2.72-1.8-5.17 7.88 5.67 37.6 53.2c-1.3.53-3.44.76-6.13.76-16.5 0-54.34-8.53-54.34-8.53-4.06.9-9.97 13.17-15 25.62-.64 1.57-1.27 3.17-1.87 4.73-.5 1.3-1 2.58-1.46 3.83-3.76 10.04-6.45 18.38-6.45 18.38l-81.97-47.38-72.18 27.58-12.8-6.36c2.18-11.08-13.34-40.78-13.34-40.78l-55.3 2.82-8.16-5.42 8.17-21.45-49.83-24.87c4.1-4.6 40.6-10.73 40.6-10.73m-.27-3.56l-.52.08c-.08.02-9.33 1.58-18.97 3.68-18.18 3.98-22.37 6.46-24.06 8.36l-2.84 3.2 4.04 2.02 46.96 23.44-7.13 18.72-.9 2.38 2.3 1.53 8.17 5.43 1.2.8 1.52-.08 52.44-2.68c1.4 2.82 3.9 8.03 6.25 13.8 5.95 14.54 6.1 20.47 5.66 22.72l-.48 2.42 2.47 1.23 12.8 6.36 1.8.9 1.88-.72 70.12-26.8 80.1 46.3 4.7 2.72 1.5-4.7c.04-.1 2.73-8.4 6.42-18.25.48-1.3.96-2.56 1.44-3.8.63-1.6 1.26-3.2 1.86-4.7 2.64-6.52 5.06-11.86 7.2-15.86 2.36-4.43 3.92-6.33 4.7-7.1 7.82 1.7 38.64 8.25 53.6 8.25 3.52 0 6.02-.35 7.85-1.1l4.13-1.68-2.38-3.36-37.58-53.2-.35-.5-.53-.37-7.9-5.67-10.5-7.53 1.96 5.52-.2 7.1c0 .27-.03.56-.06.85-3.7 1.06-5.77 2.28-6.78 3.96-.98 1.6-1.47 3.23-1.47 4.83 0 1.35.36 2.67 1.06 3.9.78 1.35 1.8 2.28 2.48 2.8l19.8 23.63-23.27-5.4-1.02-.24-1.03.22-17.6 3.9-1.84.4-.82 1.46-18.6 32.7-62.08-33.67-1.84-.98-1.98.76-68.97 26.32-17.18-44.64-1.06-2.74-3.3.35-53.34 5.64 5.7-12.3c.55-.94 2.08-4.12.36-7.27-.88-1.6-2.9-3.68-7.5-4.55L56 126.36l9.7-2.12c.66-.1 1.95-.35 3.25-1 1.17-.6 2.1-1.37 2.75-2.3.78-1.14 1.12-2.46 1-3.86 0-.5-.05-1.65-.4-2.9-.33-1.1-.83-2.04-1.5-2.8-1.12-1.3-2.74-2.05-4.54-2.16l-.53-.03z"/><path fill="#FFC300" d="M192.6 111.4l1.27-.28c-.46-2.16-.98-4.8-1.06-5.4-.08-4.73-.53-12.06-2.15-20.4-1.98-10.2-5.2-19.2-9.58-26.78-11.24-19.46-19.32-31.12-19.4-31.24L151.74 13l1.92 13.42-.45-.34-.9 6.55-.46 3.3-8.58.5-5.4.3 1.83 4.42 2.55 6.15.1.27.17.25c.06.08 5.77 9 11.15 19.06 3.93 7.33 6.28 12.62 7.67 16.44-6.1-4.7-14.97-11.3-25-18.3-11.1-7.74-21.42-14.4-30.74-19.85C93.83 38.3 83.63 33.4 75.28 30.55c-9.85-3.34-17.4-6-22.42-7.86-.47-.2-.9-.36-1.3-.5l2.14-1.56-8.14-1.3-1.4-1.03-1.6 1.16c-.85.3-1.58.8-2.06 1.5l-4.03 2.9-12-.62-12.42-.65L15.4 25H10l11.1 6.47 13.76 8.02.33.18.38.13c.2.1 19.94 7.3 44.1 19.2 17.58 8.64 40.4 21.24 58.87 36.05-3.12-1.06-6.53-2.17-10.12-3.3-9.36-2.9-18.13-5.32-26.07-7.15-10.03-2.3-18.8-3.72-26.04-4.16l-25.47-1.57 21.22 7.5.4.3-1.8 1.8-2.43 2.5 2.66 2.3 4.76 4.13.9.76 1.2.2c.2.04 17.93 3.05 37.9 7.9 25.98 6.34 43.86 12.86 51.7 18.87l2.04 1.57 2.46-1.04c.12-.06 2.93-1.26 5.6-3.16 2.18-1.56 3.56-3.07 4.4-4.48l.7.2.97.4 9.82 3.95-3.32-6.54c1.12-1.02 2.13-2.5 2.56-4.62zM79.3 85.14l-2.87-.25 2.87.25zm97.17 33.33c-.23.2-.46.4-.7.6.24-.2.47-.4.7-.6zm-18.33-89.33l.85 5.9-.85-5.9zM146.1 46.1l-2.57-6.15 11.96-.7.85-6.2-.86 6.2-11.97.7 2.56 6.15s23 35.83 21.1 46.56c1.9-10.73-21.1-46.56-21.1-46.56zM65.6 31.04c-15.62-5.4-20.17-7.3-21.28-7.96 1.12.66 5.67 2.56 21.27 7.96zm6.78 2.32c-.1-.03-.2-.06-.3-.1.1.04.2.07.3.1zm-1.4-.48c-.3-.1-.58-.2-.86-.3.28.1.56.2.85.3zm-1.7-.58c-.58-.2-1.15-.4-1.7-.58.55.2 1.12.4 1.7.58zm-1.72-.6c-.6-.2-1.18-.4-1.75-.6.58.2 1.16.4 1.76.6zm-23.4-8.96zm.15 0zm-.23 0zm-.07.04zm-6.16 4.7l6.27-4.53c.04 0 .06.03.1.05-.04-.02-.06-.04-.1-.05l-6.26 4.53-13.62-.7 13.62.7zM44 22.84zm.3.24c-.03-.03-.06-.05-.1-.07.04.03.07.05.1.08zm-17.63 5.46H23.4h3.27zm128.4 76.26s-48.4-18.95-79.03-20.83c30.6 1.88 78.9 20.77 79.04 20.83zm22.2 12.9c.1-.15.23-.28.34-.42-.1.14-.22.27-.34.4zm11.47-8.35c-.02 0-.02 0-.02.05 0-.04 0-.05.02-.05zm0 0c.17.04 1.1 2.35 1.1 2.4s-.93-2.35-1.1-2.4zM411.8 33.57l-.58-2.4-2.8-.36-1.2-.14c-.8-.8-2.04-1.98-3.47-3.14-4-3.23-7.5-4.8-10.7-4.8-.43 0-.85.03-1.27.1-1.16.15-3.1.62-7.3 2.5l5.92-7.42L372 28.93l-32.8 19.65 6.08-6.15-28.1 17.66c-.07.04-6.85 4.3-13.82 8.77-14.4 9.23-15.53 10.32-16.08 10.84-.44.43-1.43 1.23-2.73 2.24.67-2.04 1.4-4.3 2.16-6.78 2.45-7.88 4.63-15.6 5.08-17.24.2-.38.5-1.05.77-1.8.5-1.4 1.03-3.46-.1-5.27-.72-1.17-1.98-1.97-3.5-2.2-.2-.08-.97-.36-2.9-1.4-1.47-.8-3.03-1.72-4.17-2.4-1.1-.64-1.62-.93-2-1.12-.05-.02-.08-.04-.12-.06-.53-.26-1.5-.75-2.86-.75-2.57 0-4.15 1.68-5.42 3.03-.6.64-1.33 1.65-3.35 6.85-1.05 2.7-2.35 6.3-3.9 10.7-2.46 7.08-4.75 14-4.98 14.73-.2.56-1.96 5.25-3.98 10.2-3.72 9.12-5.12 11.28-5.47 11.73-2.3 1.86-3.3 3.95-3.7 5.2-1.56 1.9-3.37 5.1-5.52 9-.6 1.1-1.13 2.06-1.48 2.65-.45.76-1.53 2.57-.98 4.4l-1.37 2.45c-.96 1.02-2.27 2.9-1.57 5 .44 1.32 1.55 2.33 3.1 2.84.2.26.67.9 1.28 2.26.56 1.25 1.14 2.84 1.67 4.6.43 1.44.92 2.47 1.56 3.28 1.4 1.78 3.24 2.05 4.2 2.05 1.2 0 2.37-.4 3.26-1.12l3.5-1.98.86-.47.5-.77.62-.98c16.75-14.32 49.78-16.47 68.07-16.47 10.5 0 17.85.7 17.92.7l28.7 2.74-23.5-8.37-.85-1.1-8.7-10.92-.62-.8-1.02-.4c-5.8-2.32-17.34-3.5-34.33-3.5-.1 0-.2 0-.3 0 9.77-6.3 25.87-16.2 43.76-26.66 13.48-7.9 25.5-14.65 34.77-19.54 5.18-2.74 9.5-4.9 12.82-6.4 4.78-2.15 6.15-2.36 6.3-2.37 5.18-.5 8.96-2.12 11.2-4.8 2.72-3.27 1.96-6.74 1.86-7.13zm-77.56 82.9h.02l7.9 2.82-7.92-2.83zm73.58-82.16l-2.72-.34 2.72.35zm-3.4-1.03s0-.02 0-.03c0 0 0 .02 0 .03zm-6.63-5.4c.2.14.43.27.65.42-.22-.15-.44-.3-.66-.42zm1.02.66c.22.14.43.3.64.44-.2-.15-.42-.3-.64-.44zm1 .7c.2.16.42.3.62.47-.2-.15-.4-.3-.62-.47zm.95.73c.2.16.4.32.6.48-.2-.16-.4-.32-.6-.48zm.9.74c.2.16.36.3.54.47-.17-.16-.34-.3-.53-.47zm.83.73c.16.14.3.27.45.4-.14-.13-.3-.26-.45-.4zm.75.68c.12.12.23.23.34.34-.12-.1-.23-.2-.36-.33zm.63.62c.08.08.15.15.22.22-.07-.07-.14-.14-.22-.22zm-6.48-5.06c-.22-.12-.43-.24-.66-.35.22.12.44.23.66.36zm-1.05-.54c-.22-.1-.43-.2-.65-.28.22.1.43.18.65.28zm-1.05-.43c-.2-.08-.43-.15-.64-.2.2.05.43.12.64.2zm-1.03-.3c-.2-.04-.4-.07-.6-.1.2.03.4.06.6.1zm-1.84-.1c.2-.03.4-.05.63-.05.07 0 .14.02.2.02-.27 0-.55 0-.83.03-5.04.7-22.06 10.5-22.06 10.5.03-.03 17.03-9.8 22.06-10.5zm-18.1 5.54L315.5 67.08l58.82-35.24zM290.3 82.1c2.27-2.17 29.28-19.15 29.28-19.15-.06.04-27 16.98-29.28 19.14-2.27 2.15-14.84 11.3-14.84 11.3.06-.04 12.58-9.16 14.84-11.3zm-1.47 39.3c-.3.07-.6.12-.88.18.3-.06.58-.1.88-.17zm-3.08.6c-.3.07-.63.13-.94.2.32-.07.64-.13.95-.2zm-2.13.46c-.33.07-.65.15-.98.22.33-.07.65-.15.98-.22zm-2.13.5c-.37.08-.72.17-1.07.25.35-.08.7-.16 1.06-.25zm-2.7.68c-.45.12-.9.23-1.32.35.43-.13.87-.25 1.3-.36zm-2.35.65c-.36.1-.72.2-1.08.3.36-.1.72-.2 1.08-.3zm-1.13-76.82c.2-.18.36-.34.52-.47-.16.14-.33.3-.52.48zm12.85 4.63c2.1.3-.27 4.68-.27 4.68s-8.38 30.2-11.82 35.84c3.44-5.66 11.82-35.83 11.82-35.83s2.36-4.4.27-4.7c-2.1-.26-9.26-4.78-10.3-5.3-.26-.1-.45-.22-.64-.28.18.06.38.16.64.3 1.04.5 8.2 5.02 10.3 5.3zm-10.98-5.6c-.2-.05-.37-.06-.58 0 .1-.02.2-.04.28-.04.1 0 .2.02.3.05zm-1.35.5c.3-.26.54-.4.75-.5-.2.1-.45.24-.75.5zm-1.2 1.18c.23-.26.44-.47.64-.66-.2.2-.42.4-.66.66-1.34 1.43-6.06 14.96-9.02 23.7 2.96-8.73 7.68-22.27 9.02-23.7zm-.3 76.75c-.4.12-.77.24-1.15.37.38-.13.76-.25 1.15-.37zm-2.06.67c-.63.22-1.25.44-1.86.66.6-.22 1.23-.44 1.85-.66zm-2.7.98c-.4.15-.8.3-1.17.46.38-.16.77-.3 1.16-.46zm-2.05.8c-.4.17-.78.34-1.17.5.4-.16.78-.33 1.17-.5zm-1.95.85c-.6.27-1.2.54-1.78.83.6-.3 1.18-.56 1.78-.83zm-2.4 1.14c-.42.2-.83.42-1.24.63.4-.22.82-.42 1.23-.63zm-10.48-26.73c.54-.43 1.35-1.8 2.28-3.66-.93 1.87-1.74 3.23-2.28 3.66-.63.5-1.12 1-1.5 1.5.38-.5.87-1 1.5-1.5zm-10.66 17.76c0 .02 0 .03 0 .05 0-.02 0-.03 0-.05zm.8.05l-.26.3.27-.3zm-.38.3s-.03 0-.04 0c.02 0 .03 0 .04 0zm-.1 0c-.02 0-.03 0-.04 0 0 0 .02 0 .03 0zm-.14-.04s-.02 0-.03 0c.02 0 .03 0 .04 0zm-.12-.1zm-.06-.43c0-.02 0-.04.02-.06 0 .03 0 .05-.02.07zm.1-.34c0-.03 0-.05 0-.07 0 .02 0 .04 0 .06zm.2-.5c.02-.04.03-.08.05-.12 0 .05-.02.1-.04.12zm10.08 17.1l-.65 1 .64-1zm-12.25-10.6l2.76-4.96 1.45-2.08-1.44 2.07-2.77 4.95s-.78.7-1.04 1.4c.25-.7 1.03-1.4 1.03-1.4zm5.22 12.57c.03.07.05.12.08.2-.03-.08-.06-.13-.08-.2zm.23.57c.04.07.07.13.1.2-.03-.07-.06-.13-.1-.2zm.24.45c.02.06.05.12.1.17-.05-.06-.08-.12-.1-.18zm.22.35c.03.05.06.1.1.13-.04-.04-.07-.08-.1-.13zm.22.26c.03.03.06.06.1.08-.04 0-.07-.04-.1-.07zm.66.32s-.02 0-.03 0c0 0 .02 0 .04 0zm-.44-.14c.02.02.05.04.08.05-.03 0-.06-.03-.08-.04zm.2.1c.03 0 .05.02.07.03-.02 0-.04-.02-.06-.02zm.7-.1zm-.2.1s0 0-.02 0c0 0 .03 0 .03 0zm5.22-3.9c.47-.42.96-.82 1.46-1.22-.5.4-1 .8-1.47 1.22zm1.97-1.62c.36-.28.73-.55 1.1-.82-.37.27-.74.54-1.1.82zm6.78-4.4c-.38.22-.77.43-1.15.65.38-.22.77-.43 1.15-.64zm-1.8 1.02c-.55.34-1.1.68-1.65 1.03.54-.36 1.1-.7 1.66-1.03zm-2 1.27c-.46.3-.9.58-1.32.88.44-.3.88-.6 1.32-.88zm32.68-11.48c.3-.06.58-.1.86-.16-.28.05-.57.1-.85.15zm2.17-.37c.25-.04.5-.07.75-.1-.25.03-.5.06-.75.1zm3.53-.5c.14-.03.28-.05.42-.07-.14.02-.3.04-.43.06zm1.84-.24c.23-.04.46-.07.7-.1-.24.03-.47.06-.7.1zm2.1-.26c.2-.02.4-.04.6-.06-.2.02-.4.04-.6.06zm5.36-.52c.15 0 .3-.02.46-.04-.15.02-.3.03-.46.04zm1.97-.15c.13 0 .26-.02.4-.03-.14 0-.27.02-.4.03zm5.3-.32c.06 0 .1 0 .16 0-.05 0-.1 0-.15 0zm1.75-.08c.06 0 .13 0 .2 0-.07 0-.14 0-.2 0zm19.9-11.6c-.07-.04-.15-.06-.2-.1.05.04.13.06.2.1zm-11.32-2.28c.46.04.9.1 1.36.14-.44-.05-.9-.1-1.36-.15zm1.8.2c1 .12 1.98.25 2.9.4-.92-.14-1.9-.28-2.9-.4zm2.93.4c.34.07.65.12.98.18-.32-.06-.63-.12-.97-.17zm1.7.32c.3.05.56.1.84.17-.28-.07-.55-.13-.84-.18zm1.6.34c.24.06.48.12.72.18-.24-.06-.48-.12-.73-.18zm1.5.4c.2.05.4.1.58.17-.18-.06-.38-.12-.58-.17zM301.4 104c3.03 0 6.4.03 9.8.15-11.35-.4-22.12.06-22.12.06.06 0 5.3-.2 12.32-.2zm20.8.84c-.48-.05-.96-.1-1.44-.14.5.05.96.1 1.43.14zm-1.86-.17c-2.95-.25-6.06-.42-9.12-.52 3.07.1 6.17.27 9.12.52z"/><path fill="#3B88E4" d="M186.78 105.4l5.3 1.53 1.18.48s-.32-.62-.03-.72c1.34-.45 3.4-1.73 3.5-5.28 0-.48 1.12 2.35 1.12 2.35s-1.12-5.27-1.13-5.9c-.15-8.88-1.68-29.05-11.3-45.72-11.3-19.57-19.25-31-19.25-31l.85 5.9-2.67-1.98-.86 6.2-11.96.7 2.56 6.15s23 35.83 21.1 46.56c0 0-58-46.8-93.4-58.82-35.42-12.02-29.42-11.08-29.42-11.08l-6.54 4.72-13.62-.7 2.45 1.76H31.4l13.76 8S124.4 57.32 163.08 96.8c0 0-48.4-18.95-79.05-20.83l3.3 1.16-2.9-.25 1.88 1.3-4.52 4.6 4.77 4.12s71.22 12.02 91.5 27.58c0 0 9.9-4.2 8.73-9.08z"/><path fill="#fff" d="M52.16 14.74c.1 0 .2.02.2.02l-.25.2c-.2-.18-.08-.22.06-.22m-.05.2c.8.6 5.9 2.82 29.7 10.9 35.4 12.02 93.4 58.82 93.4 58.82 1.9-10.73-21.1-46.56-21.1-46.56l-2.57-6.15 11.96-.7.85-6.2 2.66 1.97-.83-5.9s7.94 11.44 19.24 31c9.64 16.68 11.17 36.85 11.32 45.74 0 .62 1.13 5.9 1.13 5.9s-.96-2.42-1.1-2.42c-.03 0-.03.02-.03.06-.1 3.55-2.15 4.83-3.5 5.3-.28.1.04.7.04.7l-1.17-.46-5.32-1.54c1.18 4.88-8.72 9.08-8.72 9.08-20.3-15.56-91.5-27.58-91.5-27.58l-4.77-4.13 4.5-4.6-1.86-1.3 2.88.26-3.3-1.16c30.65 1.88 79.06 20.83 79.06 20.83C124.4 57.3 45.16 28.55 45.16 28.55l-13.76-8h3.27l-2.45-1.78 13.62.7 6.27-4.52M159.75 5l1.92 13.42-.45-.34-.9 6.55-.46 3.3-8.58.5-5.4.3 1.83 4.42 2.55 6.15.12.27.15.25c.06.1 5.77 9 11.15 19.06 3.93 7.33 6.28 12.62 7.67 16.44-6.1-4.68-14.97-11.3-25-18.3-11.1-7.74-21.43-14.4-30.74-19.85-11.77-6.86-21.97-11.78-30.32-14.62-9.85-3.34-17.4-6-22.42-7.86-.47-.2-.9-.36-1.3-.5l2.14-1.56-8.14-1.28-1.4-1.05-1.6 1.16c-.85.3-1.58.8-2.06 1.5l-4.03 2.9-12-.62-12.42-.65L23.4 17H18l11.1 6.47 13.76 8.02.33.18.38.13c.2.08 19.94 7.3 44.1 19.2 17.58 8.64 40.4 21.24 58.87 36.05-3.12-1.06-6.53-2.17-10.12-3.3-9.36-2.9-18.13-5.32-26.07-7.15-10.03-2.3-18.8-3.72-26.04-4.16l-25.47-1.57 21.22 7.5.4.3-1.8 1.8-2.43 2.5 2.66 2.3 4.76 4.13.9.76 1.2.2c.2.04 17.93 3.05 37.9 7.9 25.98 6.34 43.86 12.86 51.7 18.87l2.04 1.57 2.46-1.04c.12-.06 2.93-1.26 5.6-3.16 2.18-1.56 3.56-3.07 4.4-4.48l.7.2.97.4 9.82 3.95-3.32-6.54c1.1-1.02 2.13-2.5 2.56-4.62l1.27-.28c-.46-2.16-.98-4.78-1.06-5.4-.08-4.73-.53-12.06-2.15-20.4-2-10.2-5.2-19.2-9.58-26.78-11.25-19.46-19.32-31.12-19.4-31.24L159.74 5z"/><path fill="#3B88E4" d="M260.44 128.43l-.9 1.4-3.9 2.2s-1.28 1.58-2.46-2.34c-1.18-3.94-3.08-8.78-5.22-9.25-2.13-.47.23-2.63.23-2.63l2.76-4.95 1.45-2.08-1.8 1.95s-1.32.32.13-2.12c1.46-2.44 5.13-9.7 7.13-11.7 0 0 .36-2.33 2.86-4.3 2.5-1.95 10.44-23.37 10.44-23.37s9.5-28.95 11.48-31.08c2-2.12 2.18-1.88 3.23-1.37 1.04.52 8.2 5.04 10.3 5.3 2.1.3-.27 4.7-.27 4.7s-9.53 34.33-12.44 36.6c0 0 12.57-9.15 14.84-11.3 2.28-2.17 29.28-19.14 29.28-19.14l-4.08 4.12 58.82-35.24-3.95 4.95s17.03-9.8 22.07-10.5c5.03-.7 12.66 7.66 12.66 7.66l2.72.36s1.64 6.6-9.53 7.66C395.1 35.04 305.8 88.9 297.07 96.2c0 0 34.04-1.4 44.94 2.96l8.68 10.92-8.45-1.6 7.92 2.8s-63.34-6.06-89.73 17.15z"/><path fill="#fff" d="M401.06 18.25c5 0 12.03 7.7 12.03 7.7l2.72.36s1.63 6.6-9.53 7.67C395.1 35.03 305.8 88.9 297.07 96.2c0 0 5.27-.2 12.32-.2 10.88 0 26 .5 32.6 3.16l8.7 10.92-8.46-1.6 7.92 2.8s-7.47-.7-18.35-.7c-20.8 0-54.03 2.6-71.35 17.85l-.9 1.4-3.9 2.2s-.27.32-.65.32c-.48 0-1.16-.48-1.8-2.67-1.2-3.93-3.1-8.76-5.23-9.23-2.14-.47.22-2.63.22-2.63l2.76-4.95 1.46-2.08-1.82 1.95s-.05 0-.13 0c-.3 0-.9-.2.27-2.12 1.45-2.44 5.13-9.7 7.13-11.7 0 0 .36-2.33 2.85-4.3 2.5-1.96 10.44-23.37 10.44-23.37s9.5-28.96 11.48-31.08c1.24-1.3 1.78-1.72 2.26-1.72.3 0 .57.15.97.35 1.04.52 8.22 5.04 10.3 5.3 2.1.3-.27 4.7-.27 4.7s-9.53 34.33-12.44 36.6c0 0 12.58-9.15 14.85-11.3 2.28-2.17 29.28-19.15 29.28-19.15l-4.08 4.13 58.83-35.24-3.95 4.95s17.02-9.8 22.06-10.5c.2-.03.4-.05.62-.05M398.4 9.9L380 20.93l-32.8 19.65 6.08-6.15-28.1 17.66c-.07.04-6.85 4.3-13.82 8.77-14.4 9.23-15.53 10.32-16.08 10.84-.44.43-1.43 1.23-2.73 2.24.67-2.04 1.4-4.3 2.16-6.78 2.45-7.88 4.63-15.6 5.08-17.24.2-.38.5-1.05.77-1.8.5-1.4 1.03-3.46-.1-5.27-.72-1.17-1.98-1.97-3.5-2.2-.2-.08-.97-.36-2.9-1.4-1.47-.8-3.03-1.72-4.17-2.4-1.1-.64-1.62-.93-2-1.12-.05-.02-.08-.04-.12-.06-.53-.26-1.5-.75-2.86-.75-2.57 0-4.15 1.68-5.42 3.03-.6.64-1.33 1.65-3.35 6.85-1.05 2.7-2.35 6.3-3.9 10.7-2.46 7.08-4.75 14-4.98 14.73-.2.56-1.96 5.25-3.98 10.2-3.72 9.12-5.12 11.28-5.47 11.73-2.3 1.86-3.3 3.95-3.7 5.2-1.56 1.9-3.37 5.1-5.52 9-.6 1.1-1.13 2.06-1.48 2.65-.45.76-1.53 2.57-.98 4.4l-1.37 2.45c-.96 1.02-2.27 2.9-1.57 5 .44 1.3 1.55 2.33 3.1 2.84.2.26.67.9 1.28 2.26.56 1.25 1.14 2.84 1.67 4.6.43 1.44.92 2.47 1.56 3.28 1.4 1.78 3.24 2.05 4.2 2.05 1.2 0 2.37-.4 3.26-1.12l3.5-1.97.86-.47.5-.77.62-.98c16.75-14.32 49.78-16.47 68.07-16.47 10.5 0 17.85.7 17.92.7l28.7 2.74-23.5-8.37-.85-1.1-8.7-10.92-.62-.8-1.02-.4c-5.8-2.32-17.34-3.5-34.32-3.5-.1 0-.2 0-.3 0 9.77-6.3 25.87-16.2 43.76-26.66 13.48-7.9 25.5-14.65 34.77-19.54 5.18-2.74 9.5-4.88 12.82-6.4 4.78-2.15 6.15-2.36 6.3-2.37 5.18-.5 8.96-2.12 11.2-4.8 2.72-3.27 1.96-6.74 1.86-7.13l-.58-2.4-2.8-.36-1.2-.14c-.8-.8-2.04-1.98-3.47-3.14-4-3.23-7.5-4.8-10.7-4.8-.43 0-.85.03-1.27.1-1.16.15-3.1.62-7.3 2.5l5.92-7.42z"/><g enable-background="new"><path d="M402.55 56.7h3.9c.14 0 .25.03.32.07.07.03.12.1.14.16s.05.17.05.3 0 .2-.04.28c0 .1-.05.14-.1.17-.1.04-.2.06-.36.06h-1.34v3.52c0 .1 0 .2 0 .24-.02.04-.04.1-.07.16-.04.07-.1.12-.2.15s-.2.05-.34.05c-.16 0-.27 0-.36-.04s-.14-.07-.18-.13-.06-.13-.06-.2 0-.12 0-.23v-3.5h-1.36c-.15 0-.26-.03-.33-.07-.06-.03-.1-.1-.13-.16-.02-.07-.03-.16-.03-.28s0-.22.03-.3.07-.12.12-.14c.08-.05.2-.07.35-.07zM412.78 56.92c.04.07.06.13.07.18 0 .06 0 .14 0 .25v3.88c0 .33-.08.52-.26.57-.1.03-.2.04-.34.04s-.25 0-.32-.03c-.08 0-.14-.04-.2-.07s-.06-.08-.1-.14c0-.1-.02-.22-.02-.38v-2.34c-.12.14-.3.37-.5.7-.24.3-.38.5-.44.58-.06.08-.1.13-.12.16s-.1.07-.18.13c-.1.05-.18.08-.3.08-.1 0-.2-.03-.28-.08-.08-.05-.14-.1-.18-.14l-.06-.07c-.1-.1-.28-.36-.55-.74-.27-.4-.42-.6-.44-.62v2.35c0 .1 0 .2 0 .25-.02.05-.04.1-.08.17-.07.13-.25.2-.54.2-.3 0-.46-.07-.53-.2-.03-.06-.05-.12-.06-.18 0-.05 0-.14 0-.25v-3.9c0-.1 0-.17 0-.23s.03-.12.07-.2c.08-.1.26-.18.55-.18.13 0 .24.02.33.05s.15.06.18.1l.04.04 1.6 2.1c.78-1.06 1.3-1.75 1.58-2.1.08-.1.26-.17.56-.17s.48.06.54.2z"/></g></svg>