<?xml version="1.0" encoding="UTF-8" standalone="no"?>
<!-- Generator: Adobe Illustrator 16.0.0, SVG Export Plug-In . SVG Version: 6.00 Build 0)  -->
<!DOCTYPE svg  PUBLIC '-//W3C//DTD SVG 1.1//EN'  'http://www.w3.org/Graphics/SVG/1.1/DTD/svg11.dtd'>
<svg id="Layer_1" xmlns="http://www.w3.org/2000/svg" xml:space="preserve" height="258px" viewBox="0 0 430 258" width="430px" version="1.1" y="0px" x="0px" xmlns:xlink="http://www.w3.org/1999/xlink" enable-background="new 0 0 430 258">
<g fill="#FFC300">
	<path d="m57.99 120.75s-36.493 6.127-40.579 10.727l49.839 24.871-8.17 21.451 8.17 5.422 55.286-2.828s15.523 29.703 13.346 40.781l12.799 6.367 72.172-27.584 81.977 47.385s2.689-8.344 6.449-18.389c0.469-1.25 0.957-2.529 1.455-3.822 0.607-1.568 1.234-3.16 1.875-4.748 5.025-12.447 10.932-24.701 15.004-25.611 0 0 51.199 11.553 60.459 7.779l-37.582-53.201-7.898-5.676 1.816 5.168-3.859-2.711s-0.094 3.432-0.896 3.617c-2.711 0.635-5.701 1.576-6.412 2.748-2.904 4.793 1.453 7.465 1.453 7.465l26.871 32.061-34.406-7.977-17.611 3.891-20.607 36.227-65.91-35.75-73.078 27.898-18.609-48.328-60.189 6.365 8.352-17.994s3.631-5.658-4.721-6.994l-38.764-16.031 20.88-4.557s4.085-0.393 3.722-3.538c0.002 0 0.096-4.32-2.63-4.48z"/>
	<path d="m57.99 120.75c2.726 0.156 2.632 4.479 2.632 4.479 0.363 3.145-3.722 3.538-3.722 3.538l-20.88 4.557 38.764 16.031c8.352 1.336 4.721 6.994 4.721 6.994l-8.352 17.994 60.189-6.365 18.609 48.328 73.078-27.898 65.908 35.756 20.607-36.227 17.611-3.891 34.406 7.977-26.871-32.061s-4.357-2.672-1.453-7.465c0.711-1.172 3.701-2.113 6.412-2.748 0.803-0.186 0.896-3.617 0.896-3.617l3.859 2.711-1.816-5.168 7.898 5.676 37.582 53.201c-1.299 0.531-3.424 0.758-6.119 0.758-16.504 0-54.34-8.537-54.34-8.537-4.072 0.91-9.979 13.164-15.004 25.611-0.641 1.588-1.268 3.18-1.875 4.748-0.498 1.293-0.986 2.572-1.455 3.822-3.76 10.045-6.449 18.389-6.449 18.389l-81.977-47.385-72.172 27.584-12.799-6.367c2.178-11.078-13.346-40.781-13.346-40.781l-55.286 2.828-8.17-5.422 8.17-21.451-49.833-24.87c4.086-4.6 40.579-10.73 40.579-10.73m-0.257-3.55l-0.521 0.088c-0.092 0.014-9.347 1.574-18.979 3.682-18.188 3.979-22.369 6.457-24.06 8.358l-2.845 3.203 4.043 2.018 46.958 23.434-7.129 18.72-0.908 2.387 2.303 1.525 8.171 5.424 1.207 0.801 1.519-0.078 52.445-2.684c1.4 2.824 3.902 8.033 6.258 13.789 5.953 14.547 6.102 20.482 5.66 22.727l-0.479 2.43 2.471 1.23 12.799 6.365 1.793 0.891 1.893-0.723 70.119-26.797 80.109 46.305 4.688 2.709 1.516-4.699c0.025-0.084 2.715-8.398 6.404-18.248 0.48-1.285 0.967-2.561 1.439-3.793 0.625-1.613 1.25-3.197 1.857-4.705 2.633-6.518 5.055-11.857 7.197-15.863 2.363-4.422 3.918-6.316 4.703-7.094 7.818 1.713 38.641 8.256 53.588 8.256 3.531 0 6.027-0.348 7.859-1.094l4.123-1.682-2.379-3.363-37.584-53.203-0.352-0.502-0.523-0.373-7.896-5.674-10.482-7.529 1.941 5.523-0.197 7.096c-0.006 0.268-0.027 0.566-0.055 0.852-3.695 1.059-5.771 2.283-6.785 3.957-0.975 1.604-1.467 3.23-1.467 4.832 0 1.365 0.357 2.684 1.063 3.91 0.771 1.348 1.797 2.283 2.469 2.801l19.805 23.629-23.277-5.395-1.033-0.24-1.033 0.229-17.611 3.891-1.824 0.402-0.832 1.461-18.605 32.713-62.1-33.72-1.836-0.996-1.982 0.76-68.973 26.326-17.193-44.643-1.055-2.742-3.314 0.35-53.324 5.641 5.705-12.295c0.544-0.953 2.069-4.135 0.354-7.287-0.879-1.613-2.892-3.682-7.491-4.549l-28.095-11.619 9.702-2.117c0.665-0.094 1.948-0.348 3.255-1.006 1.169-0.588 2.093-1.365 2.745-2.305 0.779-1.127 1.127-2.452 1.011-3.846-0.005-0.498-0.06-1.654-0.416-2.891-0.319-1.107-0.818-2.053-1.486-2.814-1.127-1.287-2.742-2.053-4.543-2.156l-0.534-0.01z"/>
</g>
	<path d="m65.99 112.75s-36.493 6.127-40.579 10.727l49.839 24.872-8.17 21.451 8.17 5.422 55.286-2.828s15.523 29.703 13.346 40.781l12.799 6.367 72.172-27.584 81.977 47.385s2.689-8.344 6.449-18.389c0.469-1.25 0.957-2.529 1.455-3.822 0.607-1.568 1.234-3.16 1.875-4.748 5.025-12.447 10.932-24.701 15.004-25.611 0 0 51.199 11.553 60.459 7.779l-37.582-53.201-7.898-5.676 1.816 5.168-3.859-2.711s-0.094 3.432-0.896 3.617c-2.711 0.635-5.701 1.576-6.412 2.748-2.904 4.793 1.453 7.465 1.453 7.465l26.871 32.061-34.406-7.977-17.611 3.891-20.607 36.227-65.91-35.75-73.078 27.898-18.609-48.328-60.189 6.365 8.352-17.994s3.631-5.658-4.721-6.994l-38.764-16.032 20.88-4.557s4.085-0.393 3.722-3.537c0.002 0 0.096-4.32-2.63-4.48z" fill="#3B88E4"/>
	<path d="m65.99 112.75c2.726 0.156 2.632 4.479 2.632 4.479 0.363 3.145-3.722 3.537-3.722 3.537l-20.88 4.557 38.764 16.032c8.352 1.336 4.721 6.994 4.721 6.994l-8.352 17.994 60.189-6.365 18.609 48.328 73.078-27.898 65.908 35.756 20.607-36.227 17.611-3.891 34.406 7.977-26.871-32.061s-4.357-2.672-1.453-7.465c0.711-1.172 3.701-2.113 6.412-2.748 0.803-0.186 0.896-3.617 0.896-3.617l3.859 2.711-1.816-5.168 7.898 5.676 37.582 53.201c-1.299 0.531-3.424 0.758-6.119 0.758-16.504 0-54.34-8.537-54.34-8.537-4.072 0.91-9.979 13.164-15.004 25.611-0.641 1.588-1.268 3.18-1.875 4.748-0.498 1.293-0.986 2.572-1.455 3.822-3.76 10.045-6.449 18.389-6.449 18.389l-81.977-47.385-72.172 27.584-12.799-6.367c2.178-11.078-13.346-40.781-13.346-40.781l-55.286 2.828-8.17-5.422 8.17-21.451-49.833-24.87c4.086-4.6 40.579-10.73 40.579-10.73m-0.257-3.55l-0.521 0.088c-0.092 0.014-9.347 1.574-18.979 3.682-18.188 3.979-22.369 6.457-24.06 8.357l-2.845 3.203 4.043 2.018 46.958 23.434-7.129 18.72-0.908 2.387 2.303 1.525 8.171 5.424 1.207 0.801 1.519-0.078 52.445-2.684c1.4 2.824 3.902 8.033 6.258 13.789 5.953 14.547 6.102 20.482 5.66 22.727l-0.479 2.43 2.471 1.23 12.799 6.365 1.793 0.891 1.893-0.723 70.119-26.797 80.109 46.305 4.688 2.709 1.516-4.699c0.025-0.084 2.715-8.398 6.404-18.248 0.48-1.285 0.967-2.561 1.439-3.793 0.625-1.613 1.25-3.197 1.857-4.705 2.633-6.518 5.055-11.857 7.197-15.863 2.363-4.422 3.918-6.316 4.703-7.094 7.818 1.713 38.641 8.256 53.588 8.256 3.531 0 6.027-0.348 7.859-1.094l4.123-1.682-2.379-3.363-37.584-53.203-0.352-0.502-0.523-0.373-7.896-5.674-10.482-7.53 1.941 5.524-0.197 7.096c-0.006 0.268-0.027 0.566-0.055 0.852-3.695 1.059-5.771 2.283-6.785 3.957-0.975 1.604-1.467 3.23-1.467 4.832 0 1.365 0.357 2.684 1.063 3.91 0.771 1.348 1.797 2.283 2.469 2.801l19.805 23.629-23.277-5.395-1.033-0.24-1.033 0.229-17.611 3.891-1.824 0.402-0.832 1.461-18.605 32.713-62.1-33.72-1.836-0.996-1.982 0.76-68.973 26.326-17.193-44.643-1.055-2.742-3.314 0.35-53.324 5.641 5.705-12.295c0.544-0.953 2.069-4.135 0.354-7.287-0.879-1.613-2.892-3.682-7.491-4.549l-28.095-11.62 9.702-2.117c0.665-0.094 1.948-0.348 3.255-1.006 1.169-0.588 2.093-1.365 2.745-2.305 0.779-1.127 1.127-2.451 1.011-3.846-0.005-0.498-0.06-1.654-0.416-2.891-0.319-1.107-0.818-2.053-1.486-2.814-1.127-1.287-2.742-2.053-4.543-2.156l-0.534-0.01z" fill="#fff"/>
<g fill="#FFC300">
	<path d="m178.78 113.4l5.311 1.533 1.168 0.473s-0.314-0.623-0.023-0.723c1.342-0.455 3.395-1.732 3.484-5.289 0.014-0.471 1.135 2.357 1.135 2.357s-1.117-5.273-1.127-5.894c-0.156-8.889-1.682-29.064-11.311-45.733-11.301-19.566-19.244-31.001-19.244-31.001l0.846 5.898-2.662-1.968-0.861 6.206-11.957 0.693 2.561 6.145s23.012 35.831 21.105 46.559c0 0-58.008-46.795-93.414-58.817-35.404-12.023-29.412-11.08-29.412-11.08l-6.537 4.715-13.637-0.709 2.451 1.768h-3.268l13.754 8.016s79.251 28.762 117.92 68.246c0 0-48.409-18.946-79.047-20.832l3.288 1.164-2.879-0.25 1.864 1.285-4.521 4.608 4.767 4.125s71.217 12.022 91.508 27.583c0 0 9.9-4.2 8.72-9.08z"/>
	<path d="m44.161 22.743c0.102 0 0.213 0.018 0.213 0.018l-0.26 0.187c-0.227-0.171-0.097-0.205 0.047-0.205m-0.047 0.204c0.789 0.592 5.896 2.818 29.672 10.894 35.404 12.022 93.414 58.817 93.414 58.817 1.906-10.728-21.105-46.559-21.105-46.559l-2.561-6.145 11.957-0.693 0.861-6.206 2.662 1.968-0.846-5.898s7.943 11.435 19.244 31.001c9.629 16.669 11.154 36.845 11.311 45.733 0.01 0.621 1.127 5.894 1.127 5.894s-0.957-2.41-1.113-2.41c-0.014 0-0.02 0.016-0.021 0.053-0.09 3.557-2.143 4.834-3.484 5.289-0.291 0.1 0.023 0.723 0.023 0.723l-1.168-0.473-5.311-1.533c1.18 4.873-8.715 9.078-8.715 9.078-20.291-15.561-91.508-27.583-91.508-27.583l-4.767-4.125 4.521-4.608-1.864-1.285 2.879 0.25-3.288-1.164c30.639 1.886 79.047 20.832 79.047 20.832-38.67-39.487-117.92-68.249-117.92-68.249l-13.754-8.016h3.268l-2.451-1.768 13.617 0.708 6.274-4.528m107.63-9.943l1.926 13.412-0.453-0.336-0.91 6.553-0.459 3.298-8.578 0.495-5.408 0.313 1.84 4.414 2.559 6.146 0.113 0.269 0.158 0.25c0.059 0.087 5.764 8.993 11.152 19.062 3.922 7.326 6.275 12.624 7.664 16.437-6.105-4.682-14.967-11.311-25.004-18.311-11.08-7.728-21.419-14.4-30.732-19.835-11.768-6.865-21.971-11.785-30.324-14.621-9.844-3.344-17.385-5.989-22.416-7.864-0.474-0.177-0.912-0.342-1.316-0.495l2.156-1.555-8.146-1.281-1.394-1.045-1.595 1.151c-0.861 0.287-1.587 0.805-2.065 1.49l-4.037 2.911-12-0.623-12.414-0.645 3.329 2.406h-5.367l11.102 6.471 13.754 8.014 0.332 0.194 0.369 0.134c0.196 0.072 19.945 7.279 44.113 19.175 17.572 8.649 40.402 21.251 58.859 36.059-3.123-1.052-6.529-2.165-10.115-3.283-9.361-2.921-18.132-5.331-26.071-7.163-10.033-2.316-18.794-3.717-26.04-4.163l-25.477-1.567 21.219 7.511 0.4 0.276-1.793 1.827-2.437 2.485 2.662 2.303 4.766 4.126 0.882 0.765 1.225 0.206c0.177 0.03 17.922 3.044 37.875 7.902 25.994 6.331 43.875 12.848 51.705 18.856l2.051 1.572 2.459-1.045c0.119-0.051 2.934-1.256 5.6-3.158 2.182-1.557 3.561-3.07 4.391-4.479l0.723 0.209 0.957 0.385 9.816 3.961-3.314-6.541c1.111-1.025 2.127-2.506 2.557-4.625l1.279-0.289c-0.455-2.158-0.979-4.783-1.063-5.411-0.086-4.717-0.533-12.05-2.156-20.383-1.986-10.202-5.211-19.212-9.58-26.78-11.246-19.463-19.32-31.124-19.4-31.24l-9.95-14.313z"/>
</g>
<g fill="#FFC300">
	<path d="m252.44 136.43l-0.906 1.414-3.904 2.199s-1.271 1.572-2.451-2.355c-1.18-3.93-3.086-8.762-5.219-9.234-2.135-0.471 0.227-2.633 0.227-2.633l2.766-4.951 1.455-2.08-1.814 1.963s-1.316 0.316 0.135-2.121c1.453-2.436 5.129-9.705 7.127-11.709 0 0 0.361-2.318 2.857-4.282 2.498-1.964 10.441-23.379 10.441-23.379s9.486-28.955 11.482-31.077c1.998-2.121 2.182-1.886 3.225-1.375 1.045 0.512 8.217 5.029 10.305 5.305 2.086 0.275-0.273 4.674-0.273 4.674s-9.533 34.341-12.439 36.62 12.574-9.155 14.844-11.317c2.27-2.16 29.277-19.134 29.277-19.134l-4.084 4.126 58.826-35.243-3.949 4.95s17.021-9.783 22.061-10.49c5.035-0.707 12.664 7.661 12.664 7.661l2.723 0.354s1.635 6.6-9.531 7.662c-11.168 1.06-100.5 54.927-109.21 62.234 0 0 34.043-1.413 44.936 2.949l8.686 10.924-8.457-1.613 7.924 2.824c-0.02 0-63.35-6.07-89.74 17.14z"/>
	<path d="m393.06 26.253c5.018 0 12.039 7.705 12.039 7.705l2.723 0.354s1.635 6.6-9.531 7.662c-11.168 1.06-100.5 54.927-109.21 62.234 0 0 5.271-0.219 12.326-0.219 10.879 0 26.002 0.52 32.609 3.167l8.686 10.924-8.457-1.613 7.924 2.824s-7.473-0.717-18.355-0.717c-20.797 0-54.043 2.617-71.363 17.852l-0.906 1.414-3.904 2.199s-0.252 0.313-0.633 0.313c-0.48 0-1.164-0.484-1.818-2.668-1.18-3.93-3.086-8.762-5.219-9.234-2.135-0.471 0.227-2.633 0.227-2.633l2.766-4.951 1.455-2.08-1.814 1.963s-0.057 0.016-0.133 0.016c-0.293 0-0.887-0.201 0.268-2.137 1.453-2.436 5.129-9.705 7.127-11.709 0 0 0.361-2.318 2.857-4.282 2.498-1.964 10.441-23.379 10.441-23.379s9.486-28.955 11.482-31.077c1.238-1.314 1.779-1.725 2.258-1.725 0.297 0 0.568 0.154 0.967 0.35 1.045 0.512 8.217 5.029 10.305 5.305 2.086 0.275-0.273 4.674-0.273 4.674s-9.533 34.341-12.439 36.62 12.574-9.155 14.844-11.317c2.27-2.16 29.277-19.134 29.277-19.134l-4.084 4.126 58.826-35.243-3.949 4.95s17.021-9.783 22.061-10.49c0.14-0.022 0.35-0.037 0.57-0.037m-2.66-8.351l-18.404 11.028-32.81 19.652 6.092-6.152-28.105 17.663c-0.066 0.043-6.85 4.306-13.818 8.777-14.393 9.233-15.533 10.318-16.082 10.84-0.436 0.417-1.426 1.219-2.73 2.232 0.672-2.038 1.396-4.303 2.166-6.786 2.438-7.872 4.613-15.61 5.068-17.233 0.191-0.388 0.5-1.05 0.764-1.798 0.498-1.398 1.031-3.467-0.092-5.277-0.723-1.166-1.988-1.963-3.492-2.207-0.207-0.068-0.982-0.355-2.926-1.405-1.455-0.786-3.016-1.702-4.158-2.372-1.109-0.65-1.615-0.946-2.002-1.135-0.041-0.02-0.078-0.039-0.115-0.058-0.529-0.263-1.512-0.75-2.861-0.75-2.574 0-4.154 1.679-5.424 3.027-0.609 0.646-1.322 1.657-3.342 6.857-1.049 2.7-2.357 6.296-3.891 10.687-2.477 7.087-4.76 14.023-4.994 14.742-0.209 0.561-1.959 5.242-3.98 10.205-3.717 9.108-5.121 11.267-5.471 11.72-2.289 1.864-3.287 3.954-3.705 5.202-1.553 1.888-3.365 5.103-5.516 9.013-0.604 1.098-1.123 2.043-1.475 2.633-0.453 0.758-1.531 2.568-0.98 4.395l-1.371 2.453c-0.959 1.02-2.27 2.893-1.568 4.993 0.441 1.318 1.551 2.33 3.088 2.842 0.223 0.271 0.676 0.918 1.287 2.273 0.563 1.244 1.139 2.84 1.672 4.611 0.428 1.424 0.924 2.461 1.561 3.266 1.416 1.781 3.246 2.049 4.213 2.049 1.207 0 2.365-0.402 3.256-1.105l3.508-1.979 0.852-0.479 0.492-0.768 0.631-0.982c16.742-14.315 49.777-16.463 68.068-16.463 10.496 0 17.834 0.686 17.906 0.693l28.709 2.738-23.496-8.377-0.863-1.092-8.688-10.923-0.633-0.799-1.018-0.406c-5.787-2.318-17.336-3.492-34.324-3.492h-0.291c9.754-6.305 25.861-16.202 43.748-26.667 13.473-7.881 25.498-14.634 34.773-19.529 5.18-2.735 9.492-4.884 12.814-6.387 4.783-2.164 6.15-2.368 6.289-2.384 5.195-0.493 8.973-2.108 11.215-4.799 2.715-3.258 1.955-6.733 1.859-7.118l-0.59-2.394-2.799-0.363-1.193-0.155c-0.816-0.813-2.045-1.974-3.484-3.137-3.998-3.233-7.494-4.805-10.688-4.805-0.434 0-0.863 0.03-1.281 0.089-1.162 0.163-3.109 0.632-7.289 2.508l5.9-7.407z"/>
</g>
	<path d="m186.78 105.4l5.311 1.533 1.168 0.473s-0.314-0.623-0.023-0.723c1.342-0.455 3.395-1.732 3.484-5.289 0.014-0.471 1.135 2.357 1.135 2.357s-1.117-5.274-1.127-5.894c-0.156-8.889-1.682-29.064-11.311-45.733-11.301-19.566-19.244-31.001-19.244-31.001l0.846 5.898-2.662-1.968-0.861 6.206-11.957 0.693 2.561 6.145s23.012 35.831 21.105 46.559c0 0-58.008-46.795-93.414-58.817-35.404-12.023-29.412-11.08-29.412-11.08l-6.537 4.715-13.637-0.705 2.451 1.768h-3.268l13.754 8.016s79.251 28.762 117.92 68.246c0 0-48.409-18.946-79.047-20.832l3.288 1.164-2.879-0.25 1.864 1.285-4.521 4.608 4.767 4.125s71.217 12.021 91.508 27.583c0 0 9.9-4.2 8.72-9.08z" fill="#3B88E4"/>
	<path d="m52.161 14.743c0.102 0 0.213 0.018 0.213 0.018l-0.26 0.187c-0.227-0.171-0.097-0.205 0.047-0.205m-0.047 0.204c0.789 0.592 5.896 2.818 29.672 10.894 35.404 12.022 93.414 58.817 93.414 58.817 1.906-10.728-21.105-46.559-21.105-46.559l-2.561-6.145 11.957-0.693 0.861-6.206 2.662 1.968-0.846-5.898s7.943 11.435 19.244 31.001c9.629 16.669 11.154 36.845 11.311 45.733 0.01 0.62 1.127 5.894 1.127 5.894s-0.957-2.41-1.113-2.41c-0.014 0-0.02 0.016-0.021 0.053-0.09 3.557-2.143 4.834-3.484 5.289-0.291 0.1 0.023 0.723 0.023 0.723l-1.168-0.473-5.311-1.533c1.18 4.873-8.715 9.078-8.715 9.078-20.29-15.561-91.507-27.583-91.507-27.583l-4.767-4.125 4.521-4.608-1.864-1.285 2.879 0.25-3.288-1.164c30.639 1.886 79.047 20.832 79.047 20.832-38.67-39.484-117.92-68.246-117.92-68.246l-13.754-8.016h3.268l-2.451-1.768 13.617 0.708 6.274-4.528m107.63-9.943l1.926 13.412-0.453-0.336-0.91 6.553-0.459 3.298-8.578 0.495-5.408 0.313 1.84 4.414 2.559 6.146 0.113 0.269 0.158 0.25c0.059 0.087 5.764 8.993 11.152 19.062 3.922 7.326 6.275 12.624 7.664 16.437-6.105-4.682-14.967-11.311-25.004-18.311-11.08-7.728-21.42-14.4-30.732-19.835-11.768-6.865-21.971-11.785-30.324-14.621-9.844-3.344-17.385-5.989-22.416-7.864-0.474-0.177-0.912-0.342-1.316-0.495l2.156-1.555-8.146-1.281-1.394-1.045-1.595 1.151c-0.861 0.287-1.587 0.805-2.065 1.49l-4.037 2.911-12-0.623-12.414-0.645 3.329 2.406h-5.367l11.102 6.471 13.754 8.014 0.332 0.194 0.369 0.134c0.196 0.072 19.945 7.279 44.113 19.175 17.572 8.649 40.402 21.251 58.859 36.059-3.123-1.052-6.529-2.165-10.115-3.283-9.361-2.921-18.132-5.331-26.071-7.163-10.033-2.316-18.794-3.717-26.04-4.163l-25.477-1.567 21.219 7.511 0.4 0.276-1.793 1.827-2.437 2.485 2.662 2.303 4.766 4.126 0.882 0.765 1.225 0.206c0.177 0.03 17.922 3.044 37.875 7.902 25.994 6.331 43.875 12.848 51.705 18.856l2.051 1.572 2.459-1.045c0.119-0.051 2.934-1.256 5.6-3.158 2.182-1.557 3.561-3.07 4.391-4.479l0.723 0.209 0.957 0.385 9.816 3.961-3.314-6.541c1.111-1.025 2.127-2.506 2.557-4.625l1.279-0.289c-0.455-2.158-0.979-4.783-1.063-5.411-0.086-4.717-0.533-12.05-2.156-20.383-1.986-10.202-5.211-19.212-9.58-26.78-11.246-19.463-19.32-31.124-19.4-31.24l-9.95-14.312z" fill="#fff"/>
	<path d="m260.44 128.43l-0.906 1.414-3.904 2.199s-1.271 1.572-2.451-2.355c-1.18-3.93-3.086-8.762-5.219-9.235-2.135-0.471 0.227-2.633 0.227-2.633l2.766-4.951 1.455-2.08-1.814 1.963s-1.316 0.316 0.135-2.121c1.453-2.436 5.129-9.705 7.127-11.709 0 0 0.361-2.317 2.857-4.281 2.498-1.964 10.441-23.379 10.441-23.379s9.486-28.955 11.482-31.077c1.998-2.121 2.182-1.886 3.225-1.375 1.045 0.512 8.217 5.029 10.305 5.305 2.086 0.275-0.273 4.674-0.273 4.674s-9.533 34.341-12.439 36.62 12.574-9.155 14.844-11.317c2.27-2.16 29.277-19.134 29.277-19.134l-4.084 4.126 58.826-35.243-3.949 4.95s17.021-9.783 22.061-10.49c5.035-0.707 12.664 7.661 12.664 7.661l2.723 0.354s1.635 6.6-9.531 7.662c-11.168 1.06-100.5 54.927-109.21 62.234 0 0 34.043-1.413 44.936 2.948l8.686 10.924-8.457-1.613 7.924 2.824c-0.02 0.01-63.35-6.06-89.74 17.15z" fill="#3B88E4"/>
	<path d="m401.06 18.253c5.018 0 12.039 7.705 12.039 7.705l2.723 0.354s1.635 6.6-9.531 7.662c-11.168 1.06-100.5 54.927-109.21 62.234 0 0 5.271-0.219 12.326-0.219 10.879 0 26.002 0.52 32.609 3.167l8.686 10.924-8.457-1.613 7.924 2.824s-7.473-0.717-18.355-0.717c-20.797 0-54.043 2.617-71.363 17.852l-0.906 1.414-3.904 2.199s-0.252 0.313-0.633 0.313c-0.48 0-1.164-0.484-1.818-2.668-1.18-3.93-3.086-8.762-5.219-9.235-2.135-0.471 0.227-2.633 0.227-2.633l2.766-4.951 1.455-2.08-1.814 1.963s-0.057 0.016-0.133 0.016c-0.293 0-0.887-0.201 0.268-2.137 1.453-2.436 5.129-9.705 7.127-11.709 0 0 0.361-2.317 2.857-4.281 2.498-1.964 10.441-23.379 10.441-23.379s9.486-28.955 11.482-31.077c1.238-1.314 1.779-1.725 2.258-1.725 0.297 0 0.568 0.154 0.967 0.35 1.045 0.512 8.217 5.029 10.305 5.305 2.086 0.275-0.273 4.674-0.273 4.674s-9.533 34.341-12.439 36.62 12.574-9.155 14.844-11.317c2.27-2.16 29.277-19.134 29.277-19.134l-4.084 4.126 58.826-35.243-3.949 4.95s17.021-9.783 22.061-10.49c0.14-0.022 0.35-0.037 0.57-0.037m-2.66-8.351l-18.404 11.028-32.81 19.652 6.092-6.152-28.105 17.663c-0.066 0.043-6.85 4.306-13.818 8.777-14.393 9.233-15.533 10.318-16.082 10.84-0.436 0.417-1.426 1.219-2.73 2.232 0.672-2.038 1.396-4.303 2.166-6.786 2.438-7.872 4.613-15.61 5.068-17.233 0.191-0.388 0.5-1.05 0.764-1.798 0.498-1.398 1.031-3.467-0.092-5.277-0.723-1.166-1.988-1.963-3.492-2.207-0.207-0.068-0.982-0.355-2.926-1.405-1.455-0.786-3.016-1.702-4.158-2.372-1.109-0.65-1.615-0.946-2.002-1.135-0.041-0.02-0.078-0.039-0.115-0.058-0.529-0.263-1.512-0.75-2.861-0.75-2.574 0-4.154 1.679-5.424 3.027-0.609 0.646-1.322 1.657-3.342 6.857-1.049 2.7-2.357 6.296-3.891 10.687-2.477 7.087-4.76 14.023-4.994 14.742-0.209 0.561-1.959 5.242-3.98 10.205-3.717 9.108-5.121 11.267-5.471 11.72-2.289 1.864-3.287 3.954-3.705 5.202-1.553 1.889-3.365 5.103-5.516 9.013-0.604 1.098-1.123 2.043-1.475 2.633-0.453 0.758-1.531 2.568-0.98 4.395l-1.371 2.453c-0.959 1.02-2.27 2.893-1.568 4.992 0.441 1.318 1.551 2.33 3.088 2.842 0.223 0.271 0.676 0.918 1.287 2.273 0.563 1.244 1.139 2.84 1.672 4.612 0.428 1.424 0.924 2.461 1.561 3.266 1.416 1.781 3.246 2.049 4.213 2.049 1.207 0 2.365-0.402 3.256-1.105l3.508-1.979 0.852-0.479 0.492-0.768 0.631-0.982c16.742-14.315 49.777-16.463 68.068-16.463 10.496 0 17.834 0.686 17.906 0.693l28.709 2.738-23.496-8.377-0.863-1.092-8.688-10.923-0.633-0.799-1.018-0.406c-5.787-2.318-17.336-3.492-34.324-3.492h-0.291c9.754-6.305 25.861-16.202 43.748-26.667 13.473-7.881 25.498-14.634 34.773-19.529 5.18-2.735 9.492-4.884 12.814-6.387 4.783-2.164 6.15-2.368 6.289-2.384 5.195-0.493 8.973-2.108 11.215-4.799 2.715-3.258 1.955-6.733 1.859-7.118l-0.59-2.394-2.799-0.363-1.193-0.155c-0.816-0.813-2.045-1.974-3.484-3.137-3.998-3.233-7.494-4.805-10.688-4.805-0.434 0-0.863 0.03-1.281 0.089-1.162 0.163-3.109 0.632-7.289 2.508l5.9-7.407z" fill="#fff"/>
<text font-size="7" font-family="&apos;FredokaOne-Regular&apos;" transform="translate(401.93 61.851)">TM</text>
</svg>
