<svg xmlns="http://www.w3.org/2000/svg" width="404.98" height="404.98"><path fill="#55ACEE" d="M340.73 115.23c-10.06 4.46-20.87 7.48-32.2 8.83 11.57-6.94 20.46-17.93 24.65-31.03-10.84 6.43-22.84 11.1-35.62 13.6-10.23-10.9-24.8-17.7-40.94-17.7-30.98 0-56.1 25.1-56.1 56.1 0 4.38.5 8.66 1.46 12.77-46.6-2.34-87.94-24.67-115.6-58.6-4.83 8.28-7.6 17.9-7.6 28.2 0 19.45 9.9 36.62 24.95 46.68-9.2-.3-17.84-2.82-25.4-7.02 0 .24 0 .47 0 .7 0 27.18 19.33 49.85 45 55-4.72 1.3-9.68 1.97-14.8 1.97-3.6 0-7.12-.35-10.54-1 7.12 22.28 27.84 38.5 52.38 38.95-19.2 15.04-43.38 24-69.66 24-4.52 0-9-.25-13.38-.77 24.82 15.92 54.3 25.2 85.98 25.2 103.17 0 159.6-85.46 159.6-159.58 0-2.43-.07-4.85-.17-7.25 10.95-7.9 20.46-17.8 27.98-29.04z"/></svg>