<svg xmlns="http://www.w3.org/2000/svg" width="190.333" height="59.333" viewBox="22.956 21.693 190.333 59.333" enable-background="new 22.956 21.693 190.333 59.333"><path fill="#235587" d="M202.44 24.7H34.3c-3.5 0-6.35 2.85-6.35 6.34v40.93c0 3.5 2.85 6.34 6.34 6.34h168.14c3.5 0 6.44-2.84 6.44-6.33V31.04c0-3.5-2.94-6.33-6.44-6.33z"/><path fill="#E52D27" d="M202.44 77.1H34.3c-2.85 0-5.16-2.3-5.16-5.13V31.04c0-2.84 2.3-5.14 5.15-5.14h168.14c2.85 0 5.14 2.3 5.14 5.14v40.93c0 2.84-2.3 5.13-5.14 5.13z"/><path fill="#721616" d="M202.44 24.7H34.3c-3.5 0-6.35 2.85-6.35 6.34v40.93c0 3.5 2.85 6.34 6.34 6.34h168.14c3.5 0 6.44-2.84 6.44-6.33V31.04c0-3.5-2.94-6.33-6.44-6.33zm0 52.4H34.3c-2.85 0-5.16-2.3-5.16-5.13V31.04c0-2.84 2.3-5.14 5.15-5.14h168.14c2.85 0 5.14 2.3 5.14 5.14v40.93c0 2.84-2.3 5.13-5.14 5.13z"/><path fill="#AD3BE2" d="M118-148.34l-8.32-4.54h-260.43v18.62h279v-14.08z"/><path d="M117.66-148.34l-8.3-4.54H-151.1v18.62h279.02v-14.08z" opacity=".4" enable-background="new"/><path fill="#AD3BE2" d="M118.13-151.06l-8.32-4.53H-150.6v18.63h279v-14.1z"/><path fill="#fff" d="M41.6 35.88c0-3.3 2.47-4.66 5.33-3L74.08 48.5c2.86 1.66 2.9 4.36.03 6L46.93 70.15c-2.86 1.65-5.32.3-5.32-3V35.87z"/><g fill="#fff"><path d="M105.6 44.84v2.35c0 .45-.37.7-.72.7h-3.2v10.85c0 .35-.2.7-.66.7h-2.6c-.35 0-.7-.35-.7-.7V47.9h-3.18c-.35 0-.7-.25-.7-.7v-2.36c0-.4.35-.72.7-.72h10.34c.35 0 .73.32.73.72zM114.92 44.12c4.62 0 6.64 2.8 6.64 5.75v.2c0 1.93-.83 3.7-2.6 4.8l1.85 3.88c0 .16-.07.32-.18.45-.14.14-.33.25-.52.25h-2.5c-.25 0-.44-.14-.57-.33-.08-.1-.16-.24-.25-.37l-1.37-2.9h-1.9v2.9c0 .16-.06.3-.14.43-.1.16-.3.27-.54.27h-2.6c-.24 0-.43-.14-.56-.33-.08-.1-.14-.24-.14-.37v-13.9c0-.17.03-.3.1-.4.15-.2.36-.33.6-.33h4.7zm-1.43 3.6v4.52h1.42c2.38 0 2.67-1.08 2.67-2.16v-.2c0-1.1-.3-2.15-2.68-2.15h-1.43zM137.68 58.74c0 .36-.22.7-.62.7h-2.4c-.5 0-.76-.37-.87-.7l-.4-1.2h-4.98l-.4 1.2c-.1.33-.35.7-.87.7h-2.4c-.4 0-.62-.34-.62-.7l4.08-13.9c.12-.35.3-.73.87-.73h3.67c.57 0 .76.4.87.74l4.08 13.9zm-5.37-4.85l-1.4-4.74-1.4 4.73h2.8zM145.57 44.84v13.9c0 .36-.22.7-.68.7h-2.6c-.4 0-.7-.34-.7-.7v-13.9c0-.4.3-.73.7-.73h2.6c.45.02.67.34.67.74zM151.67 59.45c-.4 0-.7-.35-.7-.7v-13.9c0-.4.3-.74.7-.74h2.6c.45.02.67.34.67.74v10.83h5.64c.35 0 .73.32.73.73v2.34c0 .46-.37.7-.72.7h-8.9zM175.8 44.12c.35 0 .73.24.73.7v2.35c0 .4-.37.72-.73.72h-6.48V50h4.6c.34 0 .72.32.72.73v2.1c0 .46-.37.7-.73.7h-4.58v2.14h6.48c.35 0 .73.32.73.73v2.34c0 .46-.37.7-.73.7h-9.74c-.4 0-.7-.34-.7-.7V44.82c0-.36.3-.7.7-.7h9.74zM186.52 44.12c4.62 0 6.64 2.8 6.64 5.75v.2c0 1.93-.83 3.7-2.6 4.8l1.85 3.88c0 .16-.07.32-.18.45-.14.14-.32.25-.5.25h-2.52c-.25 0-.44-.14-.57-.33-.08-.1-.16-.24-.24-.37l-1.4-2.9h-1.9v2.9c0 .16-.06.3-.14.43-.1.16-.3.27-.54.27h-2.6c-.23 0-.42-.14-.56-.33-.08-.1-.13-.24-.13-.37v-13.9c0-.17.02-.3.1-.4.14-.2.36-.33.6-.33h4.7zm-1.43 3.6v4.52h1.42c2.38 0 2.68-1.08 2.68-2.16v-.2c0-1.1-.3-2.15-2.68-2.15h-1.43z"/></g></svg>