<?xml version="1.0" encoding="UTF-8" standalone="no"?>
<!-- Generator: Adobe Illustrator 16.0.0, SVG Export Plug-In . SVG Version: 6.00 Build 0)  -->
<!DOCTYPE svg  PUBLIC '-//W3C//DTD SVG 1.1//EN'  'http://www.w3.org/Graphics/SVG/1.1/DTD/svg11.dtd'>
<svg id="Layer_1" xmlns="http://www.w3.org/2000/svg" xml:space="preserve" height="60.606px" viewBox="0 0 61.212 60.606" width="61.212px" version="1.1" y="0px" x="0px" xmlns:xlink="http://www.w3.org/1999/xlink" enable-background="new 0 0 61.212 60.606">
		<path d="m51.96 7.907h-41.74c-1.646 0-2.98 1.335-2.98 2.981v41.739c0 1.646 1.335 2.982 2.98 2.982h41.74c1.646 0 2.98-1.336 2.98-2.982v-41.739c0-1.646-1.335-2.981-2.98-2.981zm-38.758 7.453c0-0.824 0.666-1.491 1.489-1.491h4.473v5.962h-5.962v-4.471zm35.776 32.795c0 0.824-0.666 1.491-1.489 1.491h-32.798c-0.823 0-1.489-0.667-1.489-1.491v-22.36h35.775v22.36zm0-28.323h-23.851v-5.962h22.361c0.823 0 1.489 0.667 1.489 1.491v4.471z" fill="#3B88E4"/>
</svg>
