<?xml version="1.0" encoding="utf-8"?>
<!-- Generator: Adobe Illustrator 15.1.0, SVG Export Plug-In . SVG Version: 6.00 Build 0)  -->
<!DOCTYPE svg PUBLIC "-//W3C//DTD SVG 1.1//EN" "http://www.w3.org/Graphics/SVG/1.1/DTD/svg11.dtd">
<svg version="1.1" id="Layer_1" xmlns="http://www.w3.org/2000/svg" xmlns:xlink="http://www.w3.org/1999/xlink" x="0px" y="0px"
	 width="55.148px" height="49.09px" viewBox="0 0 55.148 49.09" enable-background="new 0 0 55.148 49.09" xml:space="preserve">
<path fill="#FFFFFF" d="M27.574,3.115c-11.835,0-21.431,9.597-21.431,21.431s9.596,21.431,21.431,21.431
	c1.977,0,3.572-1.595,3.572-3.571c0-0.931-0.358-1.764-0.931-2.405c-0.547-0.618-0.902-1.453-0.902-2.357
	c0-1.977,1.596-3.572,3.572-3.572h4.213c6.572,0,11.906-5.334,11.906-11.906C49.005,11.64,39.41,3.115,27.574,3.115z M14.478,24.545
	c-1.977,0-3.572-1.595-3.572-3.572s1.595-3.572,3.572-3.572s3.572,1.595,3.572,3.572S16.454,24.545,14.478,24.545z M21.621,15.021
	c-1.977,0-3.572-1.595-3.572-3.572s1.595-3.572,3.572-3.572s3.572,1.595,3.572,3.572S23.598,15.021,21.621,15.021z M33.528,15.021
	c-1.977,0-3.572-1.595-3.572-3.572s1.596-3.572,3.572-3.572s3.571,1.595,3.571,3.572S35.504,15.021,33.528,15.021z M40.671,24.545
	c-1.977,0-3.572-1.595-3.572-3.572s1.596-3.572,3.572-3.572s3.571,1.595,3.571,3.572S42.648,24.545,40.671,24.545z"/>
</svg>
