<?xml version="1.0" encoding="utf-8"?>
<!-- Generator: Adobe Illustrator 15.1.0, SVG Export Plug-In . SVG Version: 6.00 Build 0)  -->
<!DOCTYPE svg PUBLIC "-//W3C//DTD SVG 1.1//EN" "http://www.w3.org/Graphics/SVG/1.1/DTD/svg11.dtd">
<svg version="1.1" id="Layer_1" xmlns="http://www.w3.org/2000/svg" xmlns:xlink="http://www.w3.org/1999/xlink" x="0px" y="0px"
	 width="55.148px" height="49.09px" viewBox="0 0 55.148 49.09" enable-background="new 0 0 55.148 49.09" xml:space="preserve">
<path fill="#FFFFFF" d="M47.393,11.852H7.757c-2.422,0-4.405,1.98-4.405,4.404v17.617c0,2.421,1.983,4.402,4.405,4.402h39.636
	c2.421,0,4.403-1.983,4.403-4.402V16.256C51.796,13.833,49.814,11.852,47.393,11.852z M25.373,27.266h-6.606v6.606h-4.404v-6.606
	H7.757v-4.405h6.606v-6.605h4.404v6.605h6.606V27.266z M35.282,31.668c-1.829,0-3.303-1.475-3.303-3.303s1.474-3.303,3.303-3.303
	s3.304,1.474,3.304,3.303S37.111,31.668,35.282,31.668z M44.091,25.064c-1.828,0-3.305-1.475-3.305-3.304
	c0-1.829,1.476-3.303,3.305-3.303c1.826,0,3.303,1.474,3.303,3.303C47.394,23.589,45.917,25.064,44.091,25.064z"/>
</svg>
