<?xml version="1.0" encoding="utf-8"?>
<!-- Generator: Adobe Illustrator 15.1.0, SVG Export Plug-In . SVG Version: 6.00 Build 0)  -->
<!DOCTYPE svg PUBLIC "-//W3C//DTD SVG 1.1//EN" "http://www.w3.org/Graphics/SVG/1.1/DTD/svg11.dtd">
<svg version="1.1" id="Layer_1" xmlns="http://www.w3.org/2000/svg" xmlns:xlink="http://www.w3.org/1999/xlink" x="0px" y="0px"
	 width="55.148px" height="49.09px" viewBox="0 0 55.148 49.09" enable-background="new 0 0 55.148 49.09" xml:space="preserve">
<path fill="#FFFFFF" d="M36.425,5.089L18.724,5.072c-1.946,0-3.541,1.592-3.541,3.541v31.863c0,1.947,1.594,3.542,3.541,3.542
	h17.701c1.946,0,3.541-1.593,3.541-3.542V8.613C39.966,6.664,38.371,5.089,36.425,5.089z M27.574,42.541
	c-1.122,0-2.031-0.908-2.031-2.031c0-1.122,0.909-2.03,2.031-2.03c1.121,0,2.031,0.908,2.031,2.03
	C29.606,41.632,28.696,42.541,27.574,42.541z M36.425,36.936H18.724V12.152h17.701V36.936z"/>
</svg>
