<?xml version="1.0" encoding="utf-8"?>
<!-- Generator: Adobe Illustrator 15.1.0, SVG Export Plug-In . SVG Version: 6.00 Build 0)  -->
<!DOCTYPE svg PUBLIC "-//W3C//DTD SVG 1.1//EN" "http://www.w3.org/Graphics/SVG/1.1/DTD/svg11.dtd">
<svg version="1.1" id="Layer_1" xmlns="http://www.w3.org/2000/svg" xmlns:xlink="http://www.w3.org/1999/xlink" x="0px" y="0px"
	 width="55.148px" height="49.09px" viewBox="0 0 55.148 49.09" enable-background="new 0 0 55.148 49.09" xml:space="preserve">
<g>
	<g>
		<path fill="#FFFFFF" d="M43.093,6.221H11.024c-1.265,0-2.29,1.026-2.29,2.29V40.58c0,1.264,1.025,2.29,2.29,2.29h32.069
			c1.265,0,2.289-1.026,2.289-2.29V8.511C45.382,7.247,44.357,6.221,43.093,6.221z M13.315,11.946c0-0.632,0.512-1.145,1.144-1.145
			h3.437v4.581h-4.581V11.946z M40.802,37.144c0,0.632-0.512,1.145-1.144,1.145H14.459c-0.632,0-1.144-0.513-1.144-1.145v-17.18
			h27.486L40.802,37.144L40.802,37.144z M40.802,15.383H22.477v-4.581h17.181c0.632,0,1.144,0.512,1.144,1.145L40.802,15.383
			L40.802,15.383z"/>
	</g>
</g>
</svg>
