<?xml version="1.0" encoding="utf-8"?>
<!-- Generator: Adobe Illustrator 15.1.0, SVG Export Plug-In . SVG Version: 6.00 Build 0)  -->
<!DOCTYPE svg PUBLIC "-//W3C//DTD SVG 1.1//EN" "http://www.w3.org/Graphics/SVG/1.1/DTD/svg11.dtd">
<svg version="1.1" id="Layer_1" xmlns="http://www.w3.org/2000/svg" xmlns:xlink="http://www.w3.org/1999/xlink" x="0px" y="0px"
	 width="55.148px" height="49.09px" viewBox="0 0 55.148 49.09" enable-background="new 0 0 55.148 49.09" xml:space="preserve">
<path fill="#FFFFFF" d="M45.042,10.698l-2.843-3.437c-0.553-0.695-1.39-1.125-2.353-1.125H15.302c-0.962,0-1.8,0.429-2.373,1.125
	l-2.822,3.437c-0.593,0.695-0.941,1.616-0.941,2.598v25.568c0,2.249,1.841,4.09,4.091,4.09h28.636c2.249,0,4.09-1.841,4.09-4.09
	V13.295C45.983,12.314,45.636,11.393,45.042,10.698z M27.574,35.795l-11.25-11.25h7.159v-4.091h8.182v4.091h7.159L27.574,35.795z
	 M13.502,10.228l1.657-2.045h24.544l1.923,2.045H13.502z"/>
<path fill="none" d="M3.03,0h49.09v49.09H3.03V0z"/>
</svg>
