<?xml version="1.0" encoding="utf-8"?>
<!-- Generator: Adobe Illustrator 16.0.0, SVG Export Plug-In . SVG Version: 6.00 Build 0)  -->
<!DOCTYPE svg PUBLIC "-//W3C//DTD SVG 1.1//EN" "http://www.w3.org/Graphics/SVG/1.1/DTD/svg11.dtd">
<svg version="1.1" id="Layer_1" xmlns="http://www.w3.org/2000/svg" xmlns:xlink="http://www.w3.org/1999/xlink" x="0px" y="0px"
	 width="920.165px" height="146.999px" viewBox="0 0 920.165 146.999" enable-background="new 0 0 920.165 146.999"
	 xml:space="preserve">
<path opacity="0.2" d="M918.239,19.913c-24.608,17.958-51.054,23.445-78.601,16.31c-20.614-5.34-34.152-16.151-34.286-16.259
	l-1.023,1.264l0.959-1.314C791.29,9.699,776.431,3.34,761.126,1.014c-12.256-1.863-24.81-1.155-37.314,2.101
	c-21.262,5.538-34.451,16.339-35.018,16.798c-24.609,17.958-51.055,23.445-78.602,16.31c-20.614-5.34-34.152-16.151-34.285-16.259
	l-1.023,1.264l0.958-1.314C561.844,9.699,546.985,3.34,531.68,1.014c-12.256-1.863-24.809-1.155-37.313,2.101
	c-21.262,5.538-34.534,16.339-35.101,16.798c-24.608,17.958-51.054,23.445-78.601,16.31c-20.614-5.34-34.152-16.151-34.286-16.259
	l-1.023,1.264l0.958-1.314C332.315,9.699,317.457,3.34,302.152,1.014c-12.256-1.863-24.809-1.155-37.313,2.101
	c-21.263,5.538-34.452,16.339-35.019,16.798c-24.609,17.958-51.054,23.445-78.601,16.31c-20.615-5.34-34.152-16.151-34.287-16.259
	l-1.023,1.264l0.958-1.314C102.87,9.699,88.011,3.34,72.706,1.014C60.45-0.85,47.897-0.142,35.393,3.115
	C14.13,8.653,0.567,19.504,0,19.964l2.056,107.072c0.134-0.108,13.671-10.92,34.286-16.26c27.541-7.134,53.979-1.651,78.582,16.296
	c0.96,0.771,14.419,11.361,35.346,16.813c7.967,2.074,15.953,3.114,23.87,3.114c4.509,0,8.997-0.338,13.444-1.014
	c15.306-2.326,30.164-8.685,44.163-18.899c0.134-0.108,13.427-10.97,34.042-16.31c27.541-7.134,53.979-1.651,78.582,16.296
	c0.96,0.771,14.419,11.361,35.346,16.813c7.966,2.074,15.953,3.114,23.87,3.114c4.509,0,8.997-0.338,13.444-1.014
	c15.306-2.326,30.164-8.685,44.162-18.899c0.135-0.108,13.511-10.97,34.125-16.31c27.541-7.134,53.979-1.651,78.582,16.296
	c0.959,0.771,14.418,11.361,35.346,16.813c7.967,2.074,15.953,3.114,23.869,3.114c4.51,0,8.997-0.338,13.445-1.014
	c15.305-2.326,30.162-8.685,44.162-18.899c0.134-0.108,13.427-10.97,34.041-16.31c27.541-7.134,53.979-1.651,78.582,16.296
	c0.96,0.771,14.419,11.361,35.347,16.813c7.966,2.074,15.952,3.114,23.869,3.114c4.509,0,8.997-0.338,13.444-1.014
	c15.306-2.326,30.164-8.685,44.162-18.899L918.239,19.913z"/>
</svg>
