<?xml version="1.0" encoding="utf-8"?>
<!-- Generator: Adobe Illustrator 16.0.0, SVG Export Plug-In . SVG Version: 6.00 Build 0)  -->
<!DOCTYPE svg PUBLIC "-//W3C//DTD SVG 1.1//EN" "http://www.w3.org/Graphics/SVG/1.1/DTD/svg11.dtd">
<svg version="1.1" id="Layer_1" xmlns="http://www.w3.org/2000/svg" xmlns:xlink="http://www.w3.org/1999/xlink" x="0px" y="0px"
	 width="61.211px" height="60.605px" viewBox="0 0 61.211 60.605" enable-background="new 0 0 61.211 60.605" xml:space="preserve">
<path fill="#FB406F" d="M54.975,15.575H6.236c-2.978,0-5.416,2.436-5.416,5.415v21.662c0,2.978,2.438,5.414,5.416,5.414h48.738
	c2.978,0,5.416-2.438,5.416-5.414V20.99C60.391,18.011,57.952,15.575,54.975,15.575z M27.898,34.529h-8.123v8.123h-5.416v-8.123
	H6.236v-5.417h8.123V20.99h5.416v8.122h8.123V34.529z M40.083,39.943c-2.248,0-4.062-1.813-4.062-4.061s1.813-4.063,4.062-4.063
	s4.063,1.814,4.063,4.063S42.331,39.943,40.083,39.943z M50.915,31.821c-2.248,0-4.063-1.813-4.063-4.062s1.813-4.062,4.063-4.062
	c2.246,0,4.061,1.813,4.061,4.062S53.161,31.821,50.915,31.821z"/>
</svg>
