<?xml version="1.0" encoding="utf-8"?>
<!-- Generator: Adobe Illustrator 15.1.0, SVG Export Plug-In . SVG Version: 6.00 Build 0)  -->
<!DOCTYPE svg PUBLIC "-//W3C//DTD SVG 1.1//EN" "http://www.w3.org/Graphics/SVG/1.1/DTD/svg11.dtd">
<svg version="1.1" id="Layer_1" xmlns="http://www.w3.org/2000/svg" xmlns:xlink="http://www.w3.org/1999/xlink" x="0px" y="0px"
	 width="36.795px" height="35.312px" viewBox="0 0 36.795 35.312" enable-background="new 0 0 36.795 35.312" xml:space="preserve">
<path fill-rule="evenodd" clip-rule="evenodd" fill="#FFFFFF" d="M18.571,6C11.929,6,6.542,11.386,6.542,18.03
	c0,5.314,3.447,9.822,8.227,11.413c0.602,0.11,0.821-0.261,0.821-0.579c0-0.286-0.01-1.042-0.016-2.046
	c-3.346,0.727-4.052-1.612-4.052-1.612c-0.547-1.39-1.336-1.76-1.336-1.76c-1.092-0.747,0.083-0.731,0.083-0.731
	c1.208,0.085,1.843,1.239,1.843,1.239c1.073,1.839,2.815,1.308,3.5,1c0.109-0.777,0.42-1.308,0.764-1.608
	c-2.671-0.304-5.479-1.336-5.479-5.945c0-1.313,0.469-2.387,1.238-3.228c-0.124-0.304-0.537-1.527,0.118-3.183
	c0,0,1.01-0.324,3.308,1.233c0.959-0.267,1.988-0.401,3.011-0.405c1.022,0.004,2.051,0.139,3.012,0.405
	c2.297-1.557,3.305-1.233,3.305-1.233c0.656,1.656,0.244,2.879,0.12,3.183c0.771,0.841,1.235,1.915,1.235,3.228
	c0,4.621-2.812,5.637-5.492,5.935c0.433,0.372,0.817,1.106,0.817,2.229c0,1.607-0.016,2.905-0.016,3.3
	c0,0.321,0.218,0.695,0.828,0.578c4.775-1.594,8.219-6.1,8.219-11.412C30.601,11.386,25.215,6,18.571,6z"/>
</svg>
