<?xml version="1.0" encoding="utf-8"?>
<!-- Generator: Adobe Illustrator 16.0.0, SVG Export Plug-In . SVG Version: 6.00 Build 0)  -->
<!DOCTYPE svg PUBLIC "-//W3C//DTD SVG 1.1//EN" "http://www.w3.org/Graphics/SVG/1.1/DTD/svg11.dtd">
<svg version="1.1" id="Layer_1" xmlns="http://www.w3.org/2000/svg" xmlns:xlink="http://www.w3.org/1999/xlink" x="0px" y="0px"
	 width="430px" height="258px" viewBox="0 0 430 258" enable-background="new 0 0 430 258" xml:space="preserve">
<g>
	<path fill="#FFC300" d="M57.99,120.753c0,0-36.493,6.127-40.579,10.727l49.839,24.871l-8.17,21.451l8.17,5.422l55.286-2.828
		c0,0,15.523,29.703,13.346,40.781l12.799,6.367l72.172-27.584l81.977,47.385c0,0,2.689-8.344,6.449-18.389
		c0.469-1.25,0.957-2.529,1.455-3.822c0.607-1.568,1.234-3.16,1.875-4.748c5.025-12.447,10.932-24.701,15.004-25.611
		c0,0,51.199,11.553,60.459,7.779l-37.582-53.201l-7.898-5.676l1.816,5.168l-3.859-2.711c0,0-0.094,3.432-0.896,3.617
		c-2.711,0.635-5.701,1.576-6.412,2.748c-2.904,4.793,1.453,7.465,1.453,7.465l26.871,32.061l-34.406-7.977l-17.611,3.891
		l-20.607,36.227L223.03,188.41l-73.078,27.898l-18.609-48.328l-60.189,6.365l8.352-17.994c0,0,3.631-5.658-4.721-6.994
		l-38.764-16.031l20.88-4.557c0,0,4.085-0.393,3.722-3.538C60.622,125.232,60.716,120.91,57.99,120.753z"/>
	<path fill="#FFC300" d="M57.99,120.753c2.726,0.156,2.632,4.479,2.632,4.479c0.363,3.145-3.722,3.538-3.722,3.538l-20.88,4.557
		l38.764,16.031c8.352,1.336,4.721,6.994,4.721,6.994l-8.352,17.994l60.189-6.365l18.609,48.328l73.078-27.898l65.908,35.756
		l20.607-36.227l17.611-3.891l34.406,7.977l-26.871-32.061c0,0-4.357-2.672-1.453-7.465c0.711-1.172,3.701-2.113,6.412-2.748
		c0.803-0.186,0.896-3.617,0.896-3.617l3.859,2.711l-1.816-5.168l7.898,5.676l37.582,53.201c-1.299,0.531-3.424,0.758-6.119,0.758
		c-16.504,0-54.34-8.537-54.34-8.537c-4.072,0.91-9.979,13.164-15.004,25.611c-0.641,1.588-1.268,3.18-1.875,4.748
		c-0.498,1.293-0.986,2.572-1.455,3.822c-3.76,10.045-6.449,18.389-6.449,18.389l-81.977-47.385l-72.172,27.584l-12.799-6.367
		c2.178-11.078-13.346-40.781-13.346-40.781l-55.286,2.828l-8.17-5.422l8.17-21.451L17.411,131.48
		C21.497,126.88,57.99,120.753,57.99,120.753 M57.733,117.195l-0.521,0.088c-0.092,0.014-9.347,1.574-18.979,3.682
		c-18.188,3.979-22.369,6.457-24.06,8.358l-2.845,3.203l4.043,2.018l46.958,23.434L55.2,176.695l-0.908,2.387l2.303,1.525
		l8.171,5.424l1.207,0.801l1.519-0.078l52.445-2.684c1.4,2.824,3.902,8.033,6.258,13.789c5.953,14.547,6.102,20.482,5.66,22.727
		l-0.479,2.43l2.471,1.23l12.799,6.365l1.793,0.891l1.893-0.723l70.119-26.797l80.109,46.305l4.688,2.709l1.516-4.699
		c0.025-0.084,2.715-8.398,6.404-18.248c0.48-1.285,0.967-2.561,1.439-3.793c0.625-1.613,1.25-3.197,1.857-4.705
		c2.633-6.518,5.055-11.857,7.197-15.863c2.363-4.422,3.918-6.316,4.703-7.094c7.818,1.713,38.641,8.256,53.588,8.256
		c3.531,0,6.027-0.348,7.859-1.094l4.123-1.682l-2.379-3.363l-37.584-53.203l-0.352-0.502l-0.523-0.373l-7.896-5.674l-10.482-7.529
		l1.941,5.523l-0.197,7.096c-0.006,0.268-0.027,0.566-0.055,0.852c-3.695,1.059-5.771,2.283-6.785,3.957
		c-0.975,1.604-1.467,3.23-1.467,4.832c0,1.365,0.357,2.684,1.063,3.91c0.771,1.348,1.797,2.283,2.469,2.801l19.805,23.629
		l-23.277-5.395l-1.033-0.24l-1.033,0.229l-17.611,3.891l-1.824,0.402l-0.832,1.461l-18.605,32.713L225.2,185.414l-1.836-0.996
		l-1.982,0.76l-68.973,26.326l-17.193-44.643l-1.055-2.742l-3.314,0.35l-53.324,5.641l5.705-12.295
		c0.544-0.953,2.069-4.135,0.354-7.287c-0.879-1.613-2.892-3.682-7.491-4.549l-28.095-11.619l9.702-2.117
		c0.665-0.094,1.948-0.348,3.255-1.006c1.169-0.588,2.093-1.365,2.745-2.305c0.779-1.127,1.127-2.452,1.011-3.846
		c-0.005-0.498-0.06-1.654-0.416-2.891c-0.319-1.107-0.818-2.053-1.486-2.814c-1.127-1.287-2.742-2.053-4.543-2.156L57.733,117.195
		L57.733,117.195z"/>
</g>
<g>
	<path fill="#3B88E4" d="M65.99,112.753c0,0-36.493,6.127-40.579,10.727l49.839,24.872l-8.17,21.451l8.17,5.422l55.286-2.828
		c0,0,15.523,29.703,13.346,40.781l12.799,6.367l72.172-27.584l81.977,47.385c0,0,2.689-8.344,6.449-18.389
		c0.469-1.25,0.957-2.529,1.455-3.822c0.607-1.568,1.234-3.16,1.875-4.748c5.025-12.447,10.932-24.701,15.004-25.611
		c0,0,51.199,11.553,60.459,7.779l-37.582-53.201l-7.898-5.676l1.816,5.168l-3.859-2.711c0,0-0.094,3.432-0.896,3.617
		c-2.711,0.635-5.701,1.576-6.412,2.748c-2.904,4.793,1.453,7.465,1.453,7.465l26.871,32.061l-34.406-7.977l-17.611,3.891
		l-20.607,36.227L231.03,180.41l-73.078,27.898l-18.609-48.328l-60.189,6.365l8.352-17.994c0,0,3.631-5.658-4.721-6.994
		l-38.764-16.032l20.88-4.557c0,0,4.085-0.393,3.722-3.537C68.622,117.232,68.716,112.91,65.99,112.753z"/>
	<path fill="#FFFFFF" d="M65.99,112.753c2.726,0.156,2.632,4.479,2.632,4.479c0.363,3.145-3.722,3.537-3.722,3.537l-20.88,4.557
		l38.764,16.032c8.352,1.336,4.721,6.994,4.721,6.994l-8.352,17.994l60.189-6.365l18.609,48.328l73.078-27.898l65.908,35.756
		l20.607-36.227l17.611-3.891l34.406,7.977l-26.871-32.061c0,0-4.357-2.672-1.453-7.465c0.711-1.172,3.701-2.113,6.412-2.748
		c0.803-0.186,0.896-3.617,0.896-3.617l3.859,2.711l-1.816-5.168l7.898,5.676l37.582,53.201c-1.299,0.531-3.424,0.758-6.119,0.758
		c-16.504,0-54.34-8.537-54.34-8.537c-4.072,0.91-9.979,13.164-15.004,25.611c-0.641,1.588-1.268,3.18-1.875,4.748
		c-0.498,1.293-0.986,2.572-1.455,3.822c-3.76,10.045-6.449,18.389-6.449,18.389l-81.977-47.385l-72.172,27.584l-12.799-6.367
		c2.178-11.078-13.346-40.781-13.346-40.781l-55.286,2.828l-8.17-5.422l8.17-21.451L25.411,123.48
		C29.497,118.88,65.99,112.753,65.99,112.753 M65.733,109.195l-0.521,0.088c-0.092,0.014-9.347,1.574-18.979,3.682
		c-18.188,3.979-22.369,6.457-24.06,8.357l-2.845,3.203l4.043,2.018l46.958,23.434L63.2,168.695l-0.908,2.387l2.303,1.525
		l8.171,5.424l1.207,0.801l1.519-0.078l52.445-2.684c1.4,2.824,3.902,8.033,6.258,13.789c5.953,14.547,6.102,20.482,5.66,22.727
		l-0.479,2.43l2.471,1.23l12.799,6.365l1.793,0.891l1.893-0.723l70.119-26.797l80.109,46.305l4.688,2.709l1.516-4.699
		c0.025-0.084,2.715-8.398,6.404-18.248c0.48-1.285,0.967-2.561,1.439-3.793c0.625-1.613,1.25-3.197,1.857-4.705
		c2.633-6.518,5.055-11.857,7.197-15.863c2.363-4.422,3.918-6.316,4.703-7.094c7.818,1.713,38.641,8.256,53.588,8.256
		c3.531,0,6.027-0.348,7.859-1.094l4.123-1.682l-2.379-3.363l-37.584-53.203l-0.352-0.502l-0.523-0.373l-7.896-5.674l-10.482-7.53
		l1.941,5.524l-0.197,7.096c-0.006,0.268-0.027,0.566-0.055,0.852c-3.695,1.059-5.771,2.283-6.785,3.957
		c-0.975,1.604-1.467,3.23-1.467,4.832c0,1.365,0.357,2.684,1.063,3.91c0.771,1.348,1.797,2.283,2.469,2.801l19.805,23.629
		l-23.277-5.395l-1.033-0.24l-1.033,0.229l-17.611,3.891l-1.824,0.402l-0.832,1.461l-18.605,32.713L233.2,177.414l-1.836-0.996
		l-1.982,0.76l-68.973,26.326l-17.193-44.643l-1.055-2.742l-3.314,0.35l-53.324,5.641l5.705-12.295
		c0.544-0.953,2.069-4.135,0.354-7.287c-0.879-1.613-2.892-3.682-7.491-4.549l-28.095-11.62l9.702-2.117
		c0.665-0.094,1.948-0.348,3.255-1.006c1.169-0.588,2.093-1.365,2.745-2.305c0.779-1.127,1.127-2.451,1.011-3.846
		c-0.005-0.498-0.06-1.654-0.416-2.891c-0.319-1.107-0.818-2.053-1.486-2.814c-1.127-1.287-2.742-2.053-4.543-2.156L65.733,109.195
		L65.733,109.195z"/>
</g>
<g>
	<path fill="#FFC300" d="M178.776,113.402l5.311,1.533l1.168,0.473c0,0-0.314-0.623-0.023-0.723
		c1.342-0.455,3.395-1.732,3.484-5.289c0.014-0.471,1.135,2.357,1.135,2.357s-1.117-5.273-1.127-5.894
		c-0.156-8.889-1.682-29.064-11.311-45.733c-11.301-19.566-19.244-31.001-19.244-31.001l0.846,5.898l-2.662-1.968l-0.861,6.206
		l-11.957,0.693l2.561,6.145c0,0,23.012,35.831,21.105,46.559c0,0-58.008-46.795-93.414-58.817
		c-35.404-12.023-29.412-11.08-29.412-11.08l-6.537,4.715L24.22,26.768l2.451,1.768h-3.268l13.754,8.016
		c0,0,79.251,28.762,117.923,68.246c0,0-48.409-18.946-79.047-20.832l3.288,1.164l-2.879-0.25l1.864,1.285l-4.521,4.608l4.767,4.125
		c0,0,71.217,12.022,91.508,27.583C170.061,122.48,179.956,118.275,178.776,113.402z"/>
	<path fill="#FFC300" d="M44.161,22.743c0.102,0,0.213,0.018,0.213,0.018l-0.26,0.187C43.887,22.777,44.017,22.743,44.161,22.743
		 M44.114,22.947c0.789,0.592,5.896,2.818,29.672,10.894C109.191,45.863,167.2,92.658,167.2,92.658
		c1.906-10.728-21.105-46.559-21.105-46.559l-2.561-6.145l11.957-0.693l0.861-6.206l2.662,1.968l-0.846-5.898
		c0,0,7.943,11.435,19.244,31.001c9.629,16.669,11.154,36.845,11.311,45.733c0.01,0.621,1.127,5.894,1.127,5.894
		s-0.957-2.41-1.113-2.41c-0.014,0-0.02,0.016-0.021,0.053c-0.09,3.557-2.143,4.834-3.484,5.289c-0.291,0.1,0.023,0.723,0.023,0.723
		l-1.168-0.473l-5.311-1.533c1.18,4.873-8.715,9.078-8.715,9.078c-20.291-15.561-91.508-27.583-91.508-27.583l-4.767-4.125
		l4.521-4.608l-1.864-1.285l2.879,0.25l-3.288-1.164c30.639,1.886,79.047,20.832,79.047,20.832
		C116.408,65.313,37.157,36.551,37.157,36.551l-13.754-8.016h3.268l-2.451-1.768l13.617,0.708L44.114,22.947 M151.735,13.004
		l1.926,13.412l-0.453-0.336l-0.91,6.553l-0.459,3.298l-8.578,0.495l-5.408,0.313l1.84,4.414l2.559,6.146l0.113,0.269l0.158,0.25
		c0.059,0.087,5.764,8.993,11.152,19.062c3.922,7.326,6.275,12.624,7.664,16.437c-6.105-4.682-14.967-11.311-25.004-18.311
		c-11.08-7.728-21.419-14.4-30.732-19.835c-11.768-6.865-21.971-11.785-30.324-14.621c-9.844-3.344-17.385-5.989-22.416-7.864
		c-0.474-0.177-0.912-0.342-1.316-0.495l2.156-1.555l-8.146-1.281l-1.394-1.045l-1.595,1.151c-0.861,0.287-1.587,0.805-2.065,1.49
		l-4.037,2.911l-12-0.623l-12.414-0.645L15.388,25h-5.367l11.102,6.471l13.754,8.014l0.332,0.194l0.369,0.134
		c0.196,0.072,19.945,7.279,44.113,19.175c17.572,8.649,40.402,21.251,58.859,36.059c-3.123-1.052-6.529-2.165-10.115-3.283
		c-9.361-2.921-18.132-5.331-26.071-7.163c-10.033-2.316-18.794-3.717-26.04-4.163l-25.477-1.567l21.219,7.511l0.4,0.276
		l-1.793,1.827l-2.437,2.485l2.662,2.303l4.766,4.126l0.882,0.765l1.225,0.206c0.177,0.03,17.922,3.044,37.875,7.902
		c25.994,6.331,43.875,12.848,51.705,18.856l2.051,1.572l2.459-1.045c0.119-0.051,2.934-1.256,5.6-3.158
		c2.182-1.557,3.561-3.07,4.391-4.479l0.723,0.209l0.957,0.385l9.816,3.961l-3.314-6.541c1.111-1.025,2.127-2.506,2.557-4.625
		l1.279-0.289c-0.455-2.158-0.979-4.783-1.063-5.411c-0.086-4.717-0.533-12.05-2.156-20.383c-1.986-10.202-5.211-19.212-9.58-26.78
		c-11.246-19.463-19.32-31.124-19.4-31.24L151.735,13.004L151.735,13.004z"/>
</g>
<g>
	<path fill="#FFC300" d="M252.444,136.428l-0.906,1.414l-3.904,2.199c0,0-1.271,1.572-2.451-2.355
		c-1.18-3.93-3.086-8.762-5.219-9.234c-2.135-0.471,0.227-2.633,0.227-2.633l2.766-4.951l1.455-2.08l-1.814,1.963
		c0,0-1.316,0.316,0.135-2.121c1.453-2.436,5.129-9.705,7.127-11.709c0,0,0.361-2.318,2.857-4.282
		c2.498-1.964,10.441-23.379,10.441-23.379s9.486-28.955,11.482-31.077c1.998-2.121,2.182-1.886,3.225-1.375
		c1.045,0.512,8.217,5.029,10.305,5.305c2.086,0.275-0.273,4.674-0.273,4.674s-9.533,34.341-12.439,36.62
		c0,0,12.574-9.155,14.844-11.317c2.27-2.16,29.277-19.134,29.277-19.134l-4.084,4.126l58.826-35.243l-3.949,4.95
		c0,0,17.021-9.783,22.061-10.49c5.035-0.707,12.664,7.661,12.664,7.661l2.723,0.354c0,0,1.635,6.6-9.531,7.662
		c-11.168,1.06-100.496,54.927-109.211,62.234c0,0,34.043-1.413,44.936,2.949l8.686,10.924l-8.457-1.613l7.924,2.824
		C342.163,119.292,278.831,113.222,252.444,136.428z"/>
	<path fill="#FFC300" d="M393.055,26.253c5.018,0,12.039,7.705,12.039,7.705l2.723,0.354c0,0,1.635,6.6-9.531,7.662
		c-11.168,1.06-100.496,54.927-109.211,62.234c0,0,5.271-0.219,12.326-0.219c10.879,0,26.002,0.52,32.609,3.167l8.686,10.924
		l-8.457-1.613l7.924,2.824c0,0-7.473-0.717-18.355-0.717c-20.797,0-54.043,2.617-71.363,17.852l-0.906,1.414l-3.904,2.199
		c0,0-0.252,0.313-0.633,0.313c-0.48,0-1.164-0.484-1.818-2.668c-1.18-3.93-3.086-8.762-5.219-9.234
		c-2.135-0.471,0.227-2.633,0.227-2.633l2.766-4.951l1.455-2.08l-1.814,1.963c0,0-0.057,0.016-0.133,0.016
		c-0.293,0-0.887-0.201,0.268-2.137c1.453-2.436,5.129-9.705,7.127-11.709c0,0,0.361-2.318,2.857-4.282
		c2.498-1.964,10.441-23.379,10.441-23.379s9.486-28.955,11.482-31.077c1.238-1.314,1.779-1.725,2.258-1.725
		c0.297,0,0.568,0.154,0.967,0.35c1.045,0.512,8.217,5.029,10.305,5.305c2.086,0.275-0.273,4.674-0.273,4.674
		s-9.533,34.341-12.439,36.62c0,0,12.574-9.155,14.844-11.317c2.27-2.16,29.277-19.134,29.277-19.134l-4.084,4.126l58.826-35.243
		l-3.949,4.95c0,0,17.021-9.783,22.061-10.49C392.633,26.268,392.842,26.253,393.055,26.253 M390.397,17.902l-18.404,11.028
		L339.19,48.582l6.092-6.152l-28.105,17.663c-0.066,0.043-6.85,4.306-13.818,8.777c-14.393,9.233-15.533,10.318-16.082,10.84
		c-0.436,0.417-1.426,1.219-2.73,2.232c0.672-2.038,1.396-4.303,2.166-6.786c2.438-7.872,4.613-15.61,5.068-17.233
		c0.191-0.388,0.5-1.05,0.764-1.798c0.498-1.398,1.031-3.467-0.092-5.277c-0.723-1.166-1.988-1.963-3.492-2.207
		c-0.207-0.068-0.982-0.355-2.926-1.405c-1.455-0.786-3.016-1.702-4.158-2.372c-1.109-0.65-1.615-0.946-2.002-1.135
		c-0.041-0.02-0.078-0.039-0.115-0.058c-0.529-0.263-1.512-0.75-2.861-0.75c-2.574,0-4.154,1.679-5.424,3.027
		c-0.609,0.646-1.322,1.657-3.342,6.857c-1.049,2.7-2.357,6.296-3.891,10.687c-2.477,7.087-4.76,14.023-4.994,14.742
		c-0.209,0.561-1.959,5.242-3.98,10.205c-3.717,9.108-5.121,11.267-5.471,11.72c-2.289,1.864-3.287,3.954-3.705,5.202
		c-1.553,1.888-3.365,5.103-5.516,9.013c-0.604,1.098-1.123,2.043-1.475,2.633c-0.453,0.758-1.531,2.568-0.98,4.395l-1.371,2.453
		c-0.959,1.02-2.27,2.893-1.568,4.993c0.441,1.318,1.551,2.33,3.088,2.842c0.223,0.271,0.676,0.918,1.287,2.273
		c0.563,1.244,1.139,2.84,1.672,4.611c0.428,1.424,0.924,2.461,1.561,3.266c1.416,1.781,3.246,2.049,4.213,2.049
		c1.207,0,2.365-0.402,3.256-1.105l3.508-1.979l0.852-0.479l0.492-0.768l0.631-0.982c16.742-14.315,49.777-16.463,68.068-16.463
		c10.496,0,17.834,0.686,17.906,0.693l28.709,2.738l-23.496-8.377l-0.863-1.092l-8.688-10.923l-0.633-0.799l-1.018-0.406
		c-5.787-2.318-17.336-3.492-34.324-3.492c-0.098,0-0.195,0-0.291,0c9.754-6.305,25.861-16.202,43.748-26.667
		c13.473-7.881,25.498-14.634,34.773-19.529c5.18-2.735,9.492-4.884,12.814-6.387c4.783-2.164,6.15-2.368,6.289-2.384
		c5.195-0.493,8.973-2.108,11.215-4.799c2.715-3.258,1.955-6.733,1.859-7.118l-0.59-2.394l-2.799-0.363l-1.193-0.155
		c-0.816-0.813-2.045-1.974-3.484-3.137c-3.998-3.233-7.494-4.805-10.688-4.805c-0.434,0-0.863,0.03-1.281,0.089
		c-1.162,0.163-3.109,0.632-7.289,2.508L390.397,17.902L390.397,17.902z"/>
</g>
<g>
	<path fill="#3B88E4" d="M186.776,105.402l5.311,1.533l1.168,0.473c0,0-0.314-0.623-0.023-0.723
		c1.342-0.455,3.395-1.732,3.484-5.289c0.014-0.471,1.135,2.357,1.135,2.357s-1.117-5.274-1.127-5.894
		c-0.156-8.889-1.682-29.064-11.311-45.733c-11.301-19.566-19.244-31.001-19.244-31.001l0.846,5.898l-2.662-1.968l-0.861,6.206
		l-11.957,0.693l2.561,6.145c0,0,23.012,35.831,21.105,46.559c0,0-58.008-46.795-93.414-58.817
		c-35.404-12.023-29.412-11.08-29.412-11.08l-6.537,4.715L32.22,18.768l2.451,1.768h-3.268l13.754,8.016
		c0,0,79.251,28.762,117.923,68.246c0,0-48.409-18.946-79.047-20.832l3.288,1.164l-2.879-0.25l1.864,1.285l-4.521,4.608l4.767,4.125
		c0,0,71.217,12.021,91.508,27.583C178.061,114.48,187.956,110.275,186.776,105.402z"/>
	<path fill="#FFFFFF" d="M52.161,14.743c0.102,0,0.213,0.018,0.213,0.018l-0.26,0.187C51.887,14.777,52.017,14.743,52.161,14.743
		 M52.114,14.947c0.789,0.592,5.896,2.818,29.672,10.894C117.191,37.863,175.2,84.658,175.2,84.658
		c1.906-10.728-21.105-46.559-21.105-46.559l-2.561-6.145l11.957-0.693l0.861-6.206l2.662,1.968l-0.846-5.898
		c0,0,7.943,11.435,19.244,31.001c9.629,16.669,11.154,36.845,11.311,45.733c0.01,0.62,1.127,5.894,1.127,5.894
		s-0.957-2.41-1.113-2.41c-0.014,0-0.02,0.016-0.021,0.053c-0.09,3.557-2.143,4.834-3.484,5.289c-0.291,0.1,0.023,0.723,0.023,0.723
		l-1.168-0.473l-5.311-1.533c1.18,4.873-8.715,9.078-8.715,9.078C157.77,98.919,86.553,86.897,86.553,86.897l-4.767-4.125
		l4.521-4.608l-1.864-1.285l2.879,0.25l-3.288-1.164c30.639,1.886,79.047,20.832,79.047,20.832
		C124.409,57.313,45.157,28.551,45.157,28.551l-13.754-8.016h3.268l-2.451-1.768l13.617,0.708L52.114,14.947 M159.735,5.004
		l1.926,13.412l-0.453-0.336l-0.91,6.553l-0.459,3.298l-8.578,0.495l-5.408,0.313l1.84,4.414l2.559,6.146l0.113,0.269l0.158,0.25
		c0.059,0.087,5.764,8.993,11.152,19.062c3.922,7.326,6.275,12.624,7.664,16.437c-6.105-4.682-14.967-11.311-25.004-18.311
		c-11.08-7.728-21.42-14.4-30.732-19.835c-11.768-6.865-21.971-11.785-30.324-14.621c-9.844-3.344-17.385-5.989-22.416-7.864
		c-0.474-0.177-0.912-0.342-1.316-0.495l2.156-1.555l-8.146-1.281l-1.394-1.045l-1.595,1.151c-0.861,0.287-1.587,0.805-2.065,1.49
		l-4.037,2.911l-12-0.623l-12.414-0.645L23.388,17h-5.367l11.102,6.471l13.754,8.014l0.332,0.194l0.369,0.134
		c0.196,0.072,19.945,7.279,44.113,19.175c17.572,8.649,40.402,21.251,58.859,36.059c-3.123-1.052-6.529-2.165-10.115-3.283
		c-9.361-2.921-18.132-5.331-26.071-7.163c-10.033-2.316-18.794-3.717-26.04-4.163l-25.477-1.567l21.219,7.511l0.4,0.276
		l-1.793,1.827l-2.437,2.485l2.662,2.303l4.766,4.126l0.882,0.765l1.225,0.206c0.177,0.03,17.922,3.044,37.875,7.902
		c25.994,6.331,43.875,12.848,51.705,18.856l2.051,1.572l2.459-1.045c0.119-0.051,2.934-1.256,5.6-3.158
		c2.182-1.557,3.561-3.07,4.391-4.479l0.723,0.209l0.957,0.385l9.816,3.961l-3.314-6.541c1.111-1.025,2.127-2.506,2.557-4.625
		l1.279-0.289c-0.455-2.158-0.979-4.783-1.063-5.411c-0.086-4.717-0.533-12.05-2.156-20.383c-1.986-10.202-5.211-19.212-9.58-26.78
		c-11.246-19.463-19.32-31.124-19.4-31.24L159.735,5.004L159.735,5.004z"/>
</g>
<g>
	<path fill="#3B88E4" d="M260.444,128.428l-0.906,1.414l-3.904,2.199c0,0-1.271,1.572-2.451-2.355
		c-1.18-3.93-3.086-8.762-5.219-9.235c-2.135-0.471,0.227-2.633,0.227-2.633l2.766-4.951l1.455-2.08l-1.814,1.963
		c0,0-1.316,0.316,0.135-2.121c1.453-2.436,5.129-9.705,7.127-11.709c0,0,0.361-2.317,2.857-4.281
		c2.498-1.964,10.441-23.379,10.441-23.379s9.486-28.955,11.482-31.077c1.998-2.121,2.182-1.886,3.225-1.375
		c1.045,0.512,8.217,5.029,10.305,5.305c2.086,0.275-0.273,4.674-0.273,4.674s-9.533,34.341-12.439,36.62
		c0,0,12.574-9.155,14.844-11.317c2.27-2.16,29.277-19.134,29.277-19.134l-4.084,4.126l58.826-35.243l-3.949,4.95
		c0,0,17.021-9.783,22.061-10.49c5.035-0.707,12.664,7.661,12.664,7.661l2.723,0.354c0,0,1.635,6.6-9.531,7.662
		c-11.168,1.06-100.496,54.927-109.211,62.234c0,0,34.043-1.413,44.936,2.948l8.686,10.924l-8.457-1.613l7.924,2.824
		C350.163,111.292,286.831,105.222,260.444,128.428z"/>
	<path fill="#FFFFFF" d="M401.055,18.253c5.018,0,12.039,7.705,12.039,7.705l2.723,0.354c0,0,1.635,6.6-9.531,7.662
		c-11.168,1.06-100.496,54.927-109.211,62.234c0,0,5.271-0.219,12.326-0.219c10.879,0,26.002,0.52,32.609,3.167l8.686,10.924
		l-8.457-1.613l7.924,2.824c0,0-7.473-0.717-18.355-0.717c-20.797,0-54.043,2.617-71.363,17.852l-0.906,1.414l-3.904,2.199
		c0,0-0.252,0.313-0.633,0.313c-0.48,0-1.164-0.484-1.818-2.668c-1.18-3.93-3.086-8.762-5.219-9.235
		c-2.135-0.471,0.227-2.633,0.227-2.633l2.766-4.951l1.455-2.08l-1.814,1.963c0,0-0.057,0.016-0.133,0.016
		c-0.293,0-0.887-0.201,0.268-2.137c1.453-2.436,5.129-9.705,7.127-11.709c0,0,0.361-2.317,2.857-4.281
		c2.498-1.964,10.441-23.379,10.441-23.379s9.486-28.955,11.482-31.077c1.238-1.314,1.779-1.725,2.258-1.725
		c0.297,0,0.568,0.154,0.967,0.35c1.045,0.512,8.217,5.029,10.305,5.305c2.086,0.275-0.273,4.674-0.273,4.674
		s-9.533,34.341-12.439,36.62c0,0,12.574-9.155,14.844-11.317c2.27-2.16,29.277-19.134,29.277-19.134l-4.084,4.126l58.826-35.243
		l-3.949,4.95c0,0,17.021-9.783,22.061-10.49C400.633,18.268,400.842,18.253,401.055,18.253 M398.397,9.902l-18.404,11.028
		L347.19,40.582l6.092-6.152l-28.105,17.663c-0.066,0.043-6.85,4.306-13.818,8.777c-14.393,9.233-15.533,10.318-16.082,10.84
		c-0.436,0.417-1.426,1.219-2.73,2.232c0.672-2.038,1.396-4.303,2.166-6.786c2.438-7.872,4.613-15.61,5.068-17.233
		c0.191-0.388,0.5-1.05,0.764-1.798c0.498-1.398,1.031-3.467-0.092-5.277c-0.723-1.166-1.988-1.963-3.492-2.207
		c-0.207-0.068-0.982-0.355-2.926-1.405c-1.455-0.786-3.016-1.702-4.158-2.372c-1.109-0.65-1.615-0.946-2.002-1.135
		c-0.041-0.02-0.078-0.039-0.115-0.058c-0.529-0.263-1.512-0.75-2.861-0.75c-2.574,0-4.154,1.679-5.424,3.027
		c-0.609,0.646-1.322,1.657-3.342,6.857c-1.049,2.7-2.357,6.296-3.891,10.687c-2.477,7.087-4.76,14.023-4.994,14.742
		c-0.209,0.561-1.959,5.242-3.98,10.205c-3.717,9.108-5.121,11.267-5.471,11.72c-2.289,1.864-3.287,3.954-3.705,5.202
		c-1.553,1.889-3.365,5.103-5.516,9.013c-0.604,1.098-1.123,2.043-1.475,2.633c-0.453,0.758-1.531,2.568-0.98,4.395l-1.371,2.453
		c-0.959,1.02-2.27,2.893-1.568,4.992c0.441,1.318,1.551,2.33,3.088,2.842c0.223,0.271,0.676,0.918,1.287,2.273
		c0.563,1.244,1.139,2.84,1.672,4.612c0.428,1.424,0.924,2.461,1.561,3.266c1.416,1.781,3.246,2.049,4.213,2.049
		c1.207,0,2.365-0.402,3.256-1.105l3.508-1.979l0.852-0.479l0.492-0.768l0.631-0.982c16.742-14.315,49.777-16.463,68.068-16.463
		c10.496,0,17.834,0.686,17.906,0.693l28.709,2.738l-23.496-8.377l-0.863-1.092l-8.688-10.923l-0.633-0.799l-1.018-0.406
		c-5.787-2.318-17.336-3.492-34.324-3.492c-0.098,0-0.195,0-0.291,0c9.754-6.305,25.861-16.202,43.748-26.667
		c13.473-7.881,25.498-14.634,34.773-19.529c5.18-2.735,9.492-4.884,12.814-6.387c4.783-2.164,6.15-2.368,6.289-2.384
		c5.195-0.493,8.973-2.108,11.215-4.799c2.715-3.258,1.955-6.733,1.859-7.118l-0.59-2.394l-2.799-0.363l-1.193-0.155
		c-0.816-0.813-2.045-1.974-3.484-3.137c-3.998-3.233-7.494-4.805-10.688-4.805c-0.434,0-0.863,0.03-1.281,0.089
		c-1.162,0.163-3.109,0.632-7.289,2.508L398.397,9.902L398.397,9.902z"/>
</g>
<text transform="matrix(1 0 0 1 401.9341 61.8511)" font-family="'FredokaOne-Regular'" font-size="7">TM</text>
</svg>
