<?xml version="1.0" encoding="utf-8"?>
<!-- Generator: Adobe Illustrator 15.1.0, SVG Export Plug-In . SVG Version: 6.00 Build 0)  -->
<!DOCTYPE svg PUBLIC "-//W3C//DTD SVG 1.1//EN" "http://www.w3.org/Graphics/SVG/1.1/DTD/svg11.dtd">
<svg version="1.1" id="Layer_1" xmlns="http://www.w3.org/2000/svg" xmlns:xlink="http://www.w3.org/1999/xlink" x="0px" y="0px"
	 width="430px" height="258px" viewBox="0 0 430 258" enable-background="new 0 0 430 258" xml:space="preserve">
<path fill="#FFC300" d="M391.555,200.711l-37.584-53.203l-0.352-0.502l-0.523-0.373l-7.896-5.674l-10.482-7.529l1.941,5.523
	l-0.197,7.096c-0.006,0.268-0.027,0.566-0.055,0.852c-3.695,1.06-5.771,2.283-6.785,3.957c-0.976,1.604-1.467,3.23-1.467,4.832
	c0,1.365,0.356,2.685,1.062,3.91c0.771,1.349,1.797,2.283,2.469,2.801l19.806,23.629l-23.277-5.395l-1.033-0.24l-1.032,0.229
	l-17.611,3.892l-1.824,0.401l-0.832,1.461l-18.604,32.713L225.2,185.414l-1.837-0.996l-1.981,0.76l-68.973,26.326l-17.193-44.643
	l-1.055-2.742l-3.314,0.35l-53.324,5.641l5.705-12.295c0.544-0.953,2.069-4.135,0.354-7.287c-0.879-1.612-2.892-3.682-7.491-4.549
	l-28.095-11.619l9.702-2.116c0.665-0.095,1.948-0.349,3.255-1.007c1.169-0.588,2.093-1.364,2.745-2.304
	c0.779-1.127,1.127-2.452,1.011-3.846c-0.005-0.498-0.06-1.654-0.416-2.891c-0.319-1.107-0.818-2.053-1.486-2.814
	c-1.127-1.287-2.742-2.053-4.543-2.156l-0.531-0.03l-0.521,0.088c-0.092,0.014-9.347,1.574-18.979,3.682
	c-18.188,3.979-22.369,6.457-24.06,8.358l-2.845,3.202l4.043,2.019l46.958,23.435L55.2,176.695l-0.908,2.387l2.303,1.525
	l8.171,5.424l1.207,0.801l1.519-0.078l52.445-2.684c1.4,2.824,3.902,8.033,6.258,13.789c5.953,14.547,6.102,20.481,5.66,22.727
	l-0.479,2.43l2.471,1.23l12.799,6.365l1.793,0.891l1.893-0.723l70.119-26.797l80.109,46.305l4.688,2.709l1.516-4.699
	c0.025-0.084,2.715-8.398,6.404-18.248c0.48-1.285,0.967-2.561,1.439-3.793c0.625-1.613,1.25-3.197,1.856-4.705
	c2.633-6.518,5.055-11.857,7.197-15.863c2.363-4.422,3.918-6.315,4.703-7.094c7.817,1.713,38.641,8.256,53.588,8.256
	c3.531,0,6.026-0.348,7.858-1.094l4.123-1.682L391.555,200.711z M342.594,143.682l1.814,5.163l-0.006-0.004l-1.814-5.163
	L342.594,143.682z M340.545,146.135l0.004,0.003c-0.001,0.04-0.099,3.43-0.896,3.613c-0.001,0-0.003,0.001-0.004,0.001
	C340.452,149.566,340.545,146.135,340.545,146.135z M334.69,159.965c0,0-4.357-2.672-1.453-7.465
	c0.688-1.136,3.516-2.052,6.157-2.686c-2.64,0.634-5.465,1.55-6.153,2.685c-2.904,4.793,1.453,7.465,1.453,7.465l26.871,32.062
	l-0.006-0.001L334.69,159.965z M309.544,187.939l15.566-3.438l-15.562,3.438l-20.606,36.227l-0.003-0.001L309.544,187.939z
	 M170.142,208.601l-20.189,7.708l0,0L170.142,208.601z M131.342,167.98L131.342,167.98l-6.364,0.673L131.342,167.98z M56.9,128.77
	l-20.877,4.556h-0.001L56.9,128.77c0.001-0.001,1.931-0.187,3.02-1.324C58.831,128.584,56.9,128.77,56.9,128.77z M60.193,122.64
	c-0.357-0.953-1.01-1.818-2.203-1.887C59.183,120.821,59.835,121.688,60.193,122.64z M59.076,177.803l8.17-21.451L17.411,131.48
	l49.839,24.871l-8.17,21.45l8.169,5.423h-0.003L59.076,177.803z M135.878,221.178c2.178-11.077-13.343-40.776-13.346-40.781h0.004
	c0,0,15.523,29.703,13.346,40.78l12.799,6.367l-0.003,0.001L135.878,221.178z M220.851,199.961l0.003-0.001l81.974,47.383
	l-0.001,0.003L220.851,199.961z M327.611,194.775c0.001,0,0.001,0,0.002,0c0,0,6.559,1.479,15.403,3.207
	C334.187,196.258,327.632,194.78,327.611,194.775z M360.162,201.041c-0.212-0.034-0.423-0.067-0.635-0.101
	C359.739,200.974,359.95,201.007,360.162,201.041z M357.912,200.678c-0.249-0.041-0.498-0.082-0.747-0.123
	C357.414,200.596,357.663,200.637,357.912,200.678z M355.549,200.282c-0.263-0.045-0.523-0.09-0.785-0.135
	C355.025,200.192,355.287,200.237,355.549,200.282z M353.492,199.927c-0.367-0.064-0.733-0.129-1.099-0.193
	C352.759,199.798,353.125,199.862,353.492,199.927z M351.33,199.543c-0.338-0.061-0.674-0.121-1.008-0.182
	C350.656,199.422,350.993,199.482,351.33,199.543z M349.048,199.128c-0.318-0.059-0.635-0.117-0.95-0.176
	C348.413,199.011,348.729,199.069,349.048,199.128z M347.19,198.782c-0.472-0.089-0.938-0.177-1.402-0.266
	C346.251,198.604,346.719,198.693,347.19,198.782z M345.111,198.388c-0.573-0.11-1.138-0.22-1.695-0.328
	C343.973,198.168,344.539,198.277,345.111,198.388z M381.949,203.312c-0.014,0-0.028-0.001-0.042-0.001
	c0.122,0.001,0.238-0.002,0.357-0.003C382.158,203.31,382.058,203.312,381.949,203.312z M361.631,201.27
	c0.191,0.029,0.382,0.06,0.572,0.088C362.013,201.329,361.822,201.299,361.631,201.27z M363.954,201.618
	c0.2,0.029,0.4,0.059,0.601,0.087C364.354,201.677,364.154,201.647,363.954,201.618z M366.295,201.95
	c0.177,0.024,0.353,0.048,0.529,0.071C366.647,201.998,366.472,201.975,366.295,201.95z M368.428,202.233
	c0.142,0.018,0.284,0.036,0.426,0.054C368.712,202.27,368.57,202.251,368.428,202.233z M370.497,202.487
	c0.162,0.019,0.325,0.038,0.486,0.057C370.822,202.525,370.66,202.506,370.497,202.487z M372.648,202.728
	c0.162,0.017,0.322,0.033,0.483,0.05C372.971,202.761,372.811,202.744,372.648,202.728z M374.775,202.936
	c0.109,0.011,0.217,0.019,0.326,0.028C374.992,202.954,374.885,202.946,374.775,202.936z M376.574,203.084
	c0.1,0.007,0.202,0.016,0.301,0.022C376.776,203.1,376.674,203.091,376.574,203.084z M378.404,203.203
	c0.126,0.007,0.253,0.014,0.379,0.021C378.657,203.217,378.53,203.21,378.404,203.203z M380.213,203.283
	c0.106,0.003,0.209,0.005,0.313,0.008C380.422,203.288,380.319,203.286,380.213,203.283z M387.561,202.733
	c-0.042,0.013-0.089,0.023-0.132,0.036C387.472,202.758,387.519,202.746,387.561,202.733z M387.002,202.882
	c-0.078,0.019-0.16,0.034-0.241,0.051C386.842,202.916,386.924,202.899,387.002,202.882z M386.378,203.007
	c-0.098,0.018-0.199,0.033-0.3,0.049C386.18,203.04,386.28,203.024,386.378,203.007z M385.693,203.109
	c-0.113,0.015-0.229,0.029-0.347,0.042C385.465,203.139,385.58,203.124,385.693,203.109z M384.947,203.19
	c-0.125,0.012-0.25,0.022-0.378,0.032C384.697,203.213,384.822,203.202,384.947,203.19z M384.141,203.251
	c-0.134,0.008-0.267,0.016-0.404,0.022C383.874,203.267,384.007,203.259,384.141,203.251z M383.263,203.29
	c-0.135,0.004-0.267,0.01-0.404,0.013C382.996,203.3,383.128,203.294,383.263,203.29z"/>
<g>
	<path fill="#3B88E4" d="M65.99,112.753c0,0-36.493,6.127-40.579,10.727l49.839,24.872l-8.17,21.451l8.17,5.422l55.286-2.828
		c0,0,15.523,29.703,13.346,40.781l12.799,6.367l72.172-27.584l81.977,47.385c0,0,2.688-8.344,6.449-18.389
		c0.469-1.25,0.957-2.529,1.455-3.822c0.606-1.568,1.233-3.16,1.875-4.748c5.024-12.447,10.932-24.701,15.004-25.611
		c0,0,51.198,11.554,60.459,7.779l-37.582-53.201l-7.898-5.676l1.816,5.168l-3.859-2.711c0,0-0.094,3.432-0.896,3.617
		c-2.711,0.635-5.701,1.576-6.412,2.748c-2.904,4.793,1.453,7.465,1.453,7.465l26.871,32.061l-34.406-7.977l-17.611,3.891
		l-20.606,36.228l-65.912-35.757l-73.077,27.898l-18.609-48.328l-60.189,6.364l8.352-17.993c0,0,3.631-5.658-4.721-6.994
		l-38.764-16.032l20.88-4.557c0,0,4.085-0.393,3.722-3.537C68.622,117.232,68.716,112.91,65.99,112.753z"/>
	<path fill="#FFFFFF" d="M65.99,112.753c2.726,0.156,2.632,4.479,2.632,4.479c0.363,3.145-3.722,3.537-3.722,3.537l-20.88,4.557
		l38.764,16.031c8.352,1.336,4.721,6.994,4.721,6.994l-8.352,17.994l60.189-6.365l18.609,48.328l73.078-27.897l65.908,35.756
		l20.606-36.228l17.611-3.891l34.405,7.977l-26.87-32.061c0,0-4.357-2.672-1.453-7.465c0.711-1.172,3.7-2.113,6.412-2.748
		c0.803-0.186,0.896-3.617,0.896-3.617l3.859,2.711l-1.816-5.168l7.898,5.676l37.582,53.201c-1.3,0.531-3.425,0.758-6.119,0.758
		c-16.504,0-54.34-8.537-54.34-8.537c-4.072,0.91-9.979,13.164-15.004,25.611c-0.642,1.588-1.269,3.18-1.875,4.748
		c-0.498,1.293-0.986,2.572-1.455,3.822c-3.761,10.045-6.449,18.389-6.449,18.389l-81.977-47.385l-72.173,27.584l-12.799-6.367
		c2.178-11.078-13.346-40.781-13.346-40.781l-55.286,2.828l-8.17-5.422l8.17-21.451L25.411,123.48
		C29.497,118.88,65.99,112.753,65.99,112.753 M65.733,109.195l-0.521,0.088c-0.092,0.014-9.347,1.574-18.979,3.682
		c-18.188,3.979-22.369,6.457-24.06,8.357l-2.845,3.203l4.043,2.018l46.958,23.434L63.2,168.695l-0.908,2.387l2.303,1.525
		l8.171,5.424l1.207,0.801l1.519-0.078l52.445-2.684c1.4,2.824,3.902,8.033,6.258,13.789c5.953,14.547,6.102,20.481,5.66,22.727
		l-0.479,2.43l2.471,1.23l12.799,6.365l1.793,0.891l1.893-0.723l70.119-26.797l80.108,46.305l4.688,2.709l1.516-4.699
		c0.025-0.084,2.715-8.398,6.404-18.248c0.48-1.285,0.967-2.561,1.439-3.793c0.625-1.613,1.25-3.197,1.856-4.705
		c2.633-6.518,5.055-11.857,7.197-15.863c2.363-4.422,3.918-6.315,4.703-7.094c7.817,1.713,38.641,8.256,53.588,8.256
		c3.531,0,6.026-0.348,7.858-1.094l4.123-1.682l-2.379-3.363l-37.584-53.203l-0.352-0.502l-0.523-0.373l-7.896-5.674l-10.482-7.53
		l1.941,5.524l-0.197,7.096c-0.006,0.268-0.027,0.566-0.055,0.852c-3.695,1.06-5.771,2.283-6.785,3.957
		c-0.976,1.604-1.467,3.23-1.467,4.832c0,1.365,0.356,2.685,1.062,3.91c0.771,1.349,1.797,2.283,2.469,2.801l19.806,23.629
		l-23.277-5.395l-1.033-0.24l-1.032,0.229l-17.611,3.892l-1.824,0.401l-0.832,1.461l-18.604,32.713L233.2,177.414l-1.837-0.996
		l-1.981,0.76l-68.973,26.326l-17.193-44.643l-1.055-2.742l-3.314,0.35l-53.324,5.641l5.705-12.295
		c0.544-0.953,2.069-4.135,0.354-7.287c-0.879-1.612-2.892-3.682-7.491-4.549l-28.095-11.62l9.702-2.117
		c0.665-0.094,1.948-0.348,3.255-1.006c1.169-0.588,2.093-1.365,2.745-2.305c0.779-1.127,1.127-2.451,1.011-3.846
		c-0.005-0.498-0.06-1.654-0.416-2.891c-0.319-1.107-0.818-2.053-1.486-2.814c-1.127-1.287-2.742-2.053-4.543-2.156L65.733,109.195
		L65.733,109.195z"/>
</g>
<path fill="#FFC300" d="M192.591,111.407l1.279-0.289c-0.455-2.158-0.979-4.783-1.063-5.411c-0.086-4.717-0.533-12.05-2.156-20.383
	c-1.986-10.202-5.211-19.212-9.58-26.78c-11.246-19.463-19.32-31.124-19.4-31.24l-9.936-14.3l1.926,13.412l-0.453-0.336l-0.91,6.553
	l-0.459,3.298l-8.578,0.495l-5.408,0.313l1.84,4.414l2.559,6.146l0.113,0.269l0.158,0.25c0.059,0.087,5.764,8.993,11.152,19.062
	c3.922,7.326,6.275,12.624,7.664,16.437c-6.105-4.682-14.967-11.311-25.004-18.311c-11.08-7.728-21.419-14.4-30.732-19.835
	C93.835,38.306,83.632,33.386,75.279,30.55c-9.844-3.344-17.385-5.989-22.416-7.864c-0.474-0.177-0.912-0.342-1.316-0.495
	l2.156-1.555l-8.146-1.281l-1.394-1.045l-1.595,1.151c-0.861,0.287-1.587,0.805-2.065,1.49l-4.037,2.911l-12-0.623l-12.414-0.646
	L15.388,25h-5.367l11.102,6.471l13.754,8.014l0.332,0.194l0.369,0.134c0.196,0.072,19.945,7.279,44.113,19.175
	c17.572,8.649,40.402,21.251,58.859,36.059c-3.123-1.052-6.529-2.165-10.115-3.283c-9.361-2.921-18.132-5.331-26.071-7.163
	c-10.033-2.316-18.794-3.717-26.04-4.163l-25.477-1.567l21.219,7.511l0.4,0.276l-1.793,1.827l-2.437,2.485l2.662,2.303l4.766,4.126
	l0.882,0.765l1.225,0.206c0.177,0.03,17.922,3.044,37.875,7.902c25.994,6.331,43.875,12.848,51.705,18.856l2.051,1.572l2.459-1.045
	c0.119-0.051,2.934-1.256,5.6-3.158c2.182-1.557,3.561-3.07,4.391-4.479l0.723,0.209l0.957,0.385l9.816,3.961l-3.314-6.541
	C191.145,115.007,192.161,113.526,192.591,111.407z M79.321,85.13l-2.876-0.25l-0.002-0.001l2.874,0.25L79.321,85.13z
	 M176.489,118.459c-0.22,0.202-0.449,0.398-0.683,0.589C176.04,118.857,176.269,118.661,176.489,118.459z M158.169,29.127
	l0.846,5.896l-0.001-0.001l-0.846-5.897L158.169,29.127z M146.095,46.099l-2.561-6.145l11.957-0.693l0.861-6.206l0.001,0
	l-0.861,6.205l-11.957,0.693L146.095,46.099c0.001,0,23.013,35.831,21.106,46.559l-0.001-0.001
	C169.105,81.929,146.095,46.099,146.095,46.099z M65.594,31.036c-15.616-5.396-20.16-7.3-21.278-7.957
	C45.438,23.737,49.988,25.643,65.594,31.036z M72.381,33.363c-0.097-0.033-0.196-0.067-0.292-0.1
	C72.185,33.296,72.285,33.33,72.381,33.363z M70.969,32.881c-0.286-0.098-0.568-0.194-0.849-0.29
	C70.4,32.687,70.683,32.784,70.969,32.881z M69.279,32.304c-0.577-0.198-1.144-0.393-1.696-0.582
	C68.134,31.911,68.703,32.106,69.279,32.304z M67.562,31.714c-0.599-0.206-1.179-0.406-1.749-0.603
	C66.383,31.308,66.964,31.509,67.562,31.714z M44.168,22.744c-0.004,0-0.007,0-0.011,0c0.001,0,0.003,0,0.004,0
	C44.164,22.743,44.166,22.744,44.168,22.744z M44.308,22.752c-0.001,0-0.002,0-0.003,0C44.306,22.752,44.307,22.752,44.308,22.752z
	 M44.07,22.75c-0.004,0-0.008,0.001-0.012,0.002C44.062,22.751,44.066,22.751,44.07,22.75z M44.002,22.779
	c-0.001,0.001-0.003,0.002-0.004,0.004C44,22.782,44.001,22.781,44.002,22.779z M37.837,27.475l6.276-4.527
	c-0.002-0.001-0.001-0.002-0.003-0.003c0.001,0.001,0.002,0.001,0.003,0.002v0c0,0,0,0,0,0l0,0c0,0,0,0,0,0h0
	c0.023,0.018,0.051,0.037,0.083,0.058c-0.031-0.021-0.06-0.04-0.083-0.058L37.837,27.475l-13.615-0.707l-0.001-0.001L37.837,27.475z
	 M44.005,22.842c0.001,0.001,0.001,0.002,0.002,0.003C44.006,22.844,44.006,22.843,44.005,22.842z M44.315,23.078
	c-0.041-0.024-0.078-0.046-0.11-0.067C44.238,23.032,44.274,23.054,44.315,23.078z M26.669,28.535l0.001,0.001h-3.267l-0.001-0.001
	H26.669z M155.078,104.796c0,0,0.001,0.001,0.002,0.002c0,0-48.404-18.944-79.042-20.832l-0.004-0.001
	C106.629,85.849,154.941,104.742,155.078,104.796z M177.258,117.688c0.122-0.135,0.24-0.272,0.352-0.412
	C177.498,117.416,177.38,117.552,177.258,117.688z M188.735,109.347c-0.012,0.002-0.019,0.015-0.02,0.049
	C188.717,109.363,188.724,109.35,188.735,109.347z M188.744,109.351c0.167,0.037,1.084,2.345,1.105,2.397
	c0,0,0.001,0.005,0.001,0.005S188.914,109.396,188.744,109.351z"/>
<path fill="#FFC300" d="M411.81,33.571l-0.59-2.394l-2.799-0.363l-1.193-0.155c-0.815-0.813-2.045-1.974-3.483-3.137
	c-3.998-3.233-7.494-4.805-10.688-4.805c-0.434,0-0.862,0.03-1.28,0.089c-1.162,0.163-3.109,0.632-7.289,2.508l5.911-7.412
	L371.993,28.93L339.19,48.582l6.092-6.152l-28.105,17.663c-0.065,0.043-6.85,4.306-13.817,8.777
	c-14.394,9.233-15.533,10.318-16.082,10.84c-0.437,0.417-1.426,1.219-2.73,2.232c0.672-2.038,1.396-4.303,2.166-6.786
	c2.438-7.872,4.613-15.61,5.068-17.233c0.191-0.388,0.5-1.05,0.764-1.798c0.498-1.398,1.031-3.467-0.092-5.277
	c-0.723-1.166-1.988-1.963-3.492-2.207c-0.207-0.068-0.982-0.355-2.926-1.405c-1.455-0.786-3.016-1.702-4.158-2.372
	c-1.109-0.65-1.615-0.946-2.002-1.135c-0.041-0.02-0.078-0.039-0.115-0.058c-0.529-0.263-1.512-0.75-2.861-0.75
	c-2.573,0-4.153,1.679-5.424,3.027c-0.608,0.646-1.322,1.657-3.342,6.857c-1.049,2.7-2.357,6.296-3.891,10.687
	c-2.477,7.087-4.76,14.023-4.994,14.742c-0.209,0.561-1.959,5.242-3.98,10.205c-3.717,9.108-5.121,11.267-5.471,11.72
	c-2.289,1.864-3.287,3.954-3.705,5.202c-1.553,1.888-3.365,5.103-5.516,9.013c-0.604,1.098-1.123,2.043-1.475,2.633
	c-0.453,0.758-1.531,2.568-0.98,4.395l-1.371,2.453c-0.959,1.02-2.27,2.893-1.568,4.993c0.441,1.318,1.551,2.33,3.088,2.841
	c0.224,0.271,0.676,0.918,1.287,2.273c0.563,1.244,1.139,2.84,1.672,4.611c0.429,1.424,0.924,2.461,1.562,3.266
	c1.416,1.781,3.246,2.049,4.213,2.049c1.207,0,2.365-0.402,3.256-1.104l3.509-1.979l0.852-0.479l0.492-0.768l0.631-0.982
	c16.742-14.315,49.777-16.463,68.067-16.463c10.496,0,17.834,0.686,17.906,0.693l28.709,2.738l-23.496-8.377l-0.862-1.092
	l-8.688-10.923l-0.633-0.799l-1.019-0.406c-5.786-2.318-17.336-3.492-34.324-3.492c-0.098,0-0.194,0-0.291,0
	c9.755-6.305,25.861-16.202,43.749-26.667c13.473-7.881,25.498-14.634,34.772-19.529c5.18-2.735,9.492-4.884,12.814-6.387
	c4.783-2.164,6.149-2.368,6.289-2.384c5.194-0.493,8.973-2.108,11.215-4.799C412.666,37.431,411.906,33.956,411.81,33.571z
	 M334.243,116.47l0.013,0.002l7.907,2.818l-0.006,0L334.243,116.47z M407.817,34.312v0.001l-2.721-0.354l-0.002-0.002
	L407.817,34.312z M404.434,33.269c-0.009-0.009-0.015-0.016-0.023-0.024C404.419,33.253,404.425,33.259,404.434,33.269z
	 M397.788,27.878c0.222,0.131,0.441,0.267,0.66,0.408C398.229,28.146,398.01,28.009,397.788,27.878z M398.817,28.526
	c0.219,0.147,0.434,0.296,0.647,0.449C399.251,28.823,399.035,28.673,398.817,28.526z M399.817,29.23
	c0.213,0.157,0.419,0.314,0.624,0.474C400.236,29.545,400.029,29.386,399.817,29.23z M400.773,29.963
	c0.202,0.161,0.396,0.321,0.589,0.481C401.17,30.284,400.975,30.124,400.773,29.963z M401.672,30.703
	c0.186,0.158,0.361,0.311,0.536,0.465C402.033,31.014,401.857,30.86,401.672,30.703z M402.501,31.426
	c0.159,0.143,0.306,0.278,0.454,0.415C402.808,31.705,402.659,31.568,402.501,31.426z M403.245,32.108
	c0.124,0.117,0.234,0.223,0.348,0.333C403.479,32.332,403.368,32.225,403.245,32.108z M403.885,32.722
	c0.079,0.078,0.145,0.144,0.217,0.215C404.029,32.865,403.964,32.799,403.885,32.722z M397.403,27.658
	c-0.219-0.123-0.438-0.239-0.659-0.349C396.965,27.419,397.184,27.535,397.403,27.658z M396.35,27.118
	c-0.218-0.101-0.435-0.192-0.651-0.278C395.915,26.926,396.132,27.017,396.35,27.118z M395.301,26.691
	c-0.214-0.074-0.426-0.137-0.637-0.193C394.875,26.555,395.086,26.617,395.301,26.691z M394.27,26.401
	c-0.207-0.043-0.411-0.072-0.614-0.094C393.858,26.33,394.062,26.358,394.27,26.401z M392.434,26.297
	c0.199-0.029,0.408-0.044,0.621-0.044c0.071,0,0.146,0.017,0.218,0.02c-0.285-0.012-0.568-0.012-0.84,0.026
	c-5.04,0.707-22.061,10.49-22.061,10.49l0.002-0.002C370.397,36.773,387.397,27.003,392.434,26.297z M374.322,31.837l-0.002,0.002
	l-58.825,35.243l0.003-0.003L374.322,31.837z M290.303,82.088c2.27-2.16,29.277-19.134,29.277-19.134l-0.004,0.003
	c-0.055,0.035-27.006,16.975-29.274,19.132c-2.27,2.162-14.844,11.317-14.844,11.317c0.001-0.001,0.003-0.003,0.004-0.004
	C275.524,93.357,288.039,84.245,290.303,82.088z M288.826,121.414c-0.294,0.053-0.587,0.109-0.881,0.164
	C288.239,121.522,288.532,121.467,288.826,121.414z M285.753,122.007c-0.315,0.064-0.631,0.127-0.945,0.194
	C285.122,122.134,285.438,122.071,285.753,122.007z M283.619,122.46c-0.326,0.072-0.652,0.146-0.978,0.221
	C282.967,122.606,283.293,122.533,283.619,122.46z M281.485,122.952c-0.352,0.085-0.701,0.173-1.052,0.261
	C280.784,123.125,281.134,123.037,281.485,122.952z M278.791,123.638c-0.438,0.117-0.877,0.234-1.312,0.356
	C277.914,123.872,278.353,123.755,278.791,123.638z M276.446,124.292c-0.36,0.105-0.721,0.211-1.078,0.32
	C275.726,124.504,276.086,124.397,276.446,124.292z M275.322,47.483c0.19-0.187,0.361-0.347,0.514-0.477
	C275.684,47.137,275.513,47.295,275.322,47.483z M288.171,52.111c2.086,0.275-0.272,4.674-0.272,4.674s-8.379,30.185-11.821,35.834
	c3.441-5.654,11.819-35.832,11.819-35.832s2.359-4.399,0.273-4.674c-2.088-0.276-9.26-4.793-10.305-5.305
	c-0.251-0.123-0.45-0.228-0.639-0.29c0.188,0.062,0.388,0.164,0.64,0.288C278.911,47.318,286.083,51.835,288.171,52.111z
	 M277.191,46.507c-0.188-0.057-0.365-0.066-0.569,0c0.096-0.031,0.188-0.051,0.276-0.051
	C276.996,46.456,277.093,46.478,277.191,46.507z M275.849,46.996c0.305-0.259,0.544-0.41,0.752-0.482
	C276.392,46.586,276.154,46.736,275.849,46.996z M274.641,48.181c0.243-0.258,0.453-0.472,0.647-0.665
	c-0.193,0.191-0.406,0.41-0.647,0.667c-1.342,1.426-6.062,14.962-9.018,23.693C268.577,63.146,273.299,49.607,274.641,48.181z
	 M274.346,124.929c-0.383,0.121-0.763,0.246-1.143,0.371C273.583,125.175,273.963,125.05,274.346,124.929z M272.293,125.602
	c-0.625,0.214-1.243,0.434-1.857,0.66C271.05,126.036,271.669,125.816,272.293,125.602z M269.59,126.583
	c-0.391,0.148-0.779,0.299-1.164,0.453C268.811,126.882,269.199,126.731,269.59,126.583z M267.549,127.392
	c-0.392,0.162-0.78,0.328-1.167,0.496C266.769,127.72,267.157,127.554,267.549,127.392z M265.604,128.226
	c-0.601,0.27-1.195,0.546-1.782,0.83C264.409,128.771,265.004,128.495,265.604,128.226z M263.19,129.371
	c-0.413,0.206-0.824,0.414-1.229,0.627C262.366,129.784,262.777,129.576,263.19,129.371z M252.718,102.637
	c0.546-0.43,1.354-1.79,2.28-3.652c-0.928,1.864-1.734,3.225-2.281,3.654c-0.624,0.491-1.114,1.003-1.499,1.497
	C251.603,103.642,252.094,103.128,252.718,102.637z M242.058,120.401c0.002,0.017,0.005,0.031,0.008,0.046
	C242.062,120.432,242.06,120.418,242.058,120.401z M242.874,120.452l-0.274,0.297l0,0L242.874,120.452z M242.48,120.764
	c-0.006,0-0.009,0.001-0.015,0.001s-0.014-0.002-0.021-0.002C242.457,120.764,242.47,120.764,242.48,120.764z M242.371,120.755
	c-0.011-0.002-0.021-0.002-0.031-0.005C242.351,120.753,242.36,120.753,242.371,120.755z M242.238,120.71
	c-0.01-0.005-0.019-0.011-0.027-0.018C242.22,120.699,242.229,120.705,242.238,120.71z M242.12,120.602
	c-0.003-0.004-0.004-0.011-0.007-0.016C242.116,120.591,242.117,120.598,242.12,120.602z M242.063,120.174
	c0.003-0.02,0.009-0.042,0.013-0.063C242.072,120.132,242.066,120.154,242.063,120.174z M242.151,119.825
	c0.008-0.023,0.013-0.044,0.021-0.068C242.164,119.781,242.159,119.802,242.151,119.825z M242.359,119.322
	c0.017-0.035,0.035-0.072,0.055-0.11C242.396,119.25,242.376,119.287,242.359,119.322z M252.445,136.427l-0.652,1.017l0.65-1.016
	C252.443,136.428,252.444,136.427,252.445,136.427z M240.191,125.817l2.767-4.951l1.452-2.076l0.002-0.002l-1.455,2.08l-2.766,4.951
	c0,0-0.775,0.712-1.035,1.409C239.415,126.531,240.191,125.817,240.191,125.817z M245.42,138.395
	c0.025,0.07,0.052,0.129,0.077,0.194C245.472,138.522,245.445,138.465,245.42,138.395z M245.653,138.967
	c0.033,0.072,0.065,0.134,0.099,0.199C245.719,139.101,245.687,139.039,245.653,138.967z M245.886,139.423
	c0.034,0.06,0.068,0.112,0.103,0.165C245.954,139.535,245.92,139.482,245.886,139.423z M246.115,139.773
	c0.033,0.045,0.065,0.085,0.099,0.123C246.181,139.858,246.148,139.818,246.115,139.773z M246.339,140.031
	c0.031,0.029,0.062,0.058,0.091,0.083C246.4,140.089,246.37,140.061,246.339,140.031z M247.002,140.352
	c-0.012,0-0.024-0.004-0.036-0.005c0.014,0.001,0.028,0.004,0.041,0.004C247.005,140.351,247.004,140.352,247.002,140.352z
	 M246.557,140.205c0.026,0.018,0.053,0.035,0.079,0.049C246.609,140.24,246.583,140.223,246.557,140.205z M246.766,140.308
	c0.021,0.007,0.043,0.017,0.063,0.021C246.809,140.323,246.787,140.314,246.766,140.308z M247.472,140.187
	c-0.007,0.005-0.012,0.009-0.019,0.014C247.459,140.195,247.466,140.19,247.472,140.187z M247.275,140.295
	c-0.011,0.005-0.021,0.008-0.031,0.011C247.254,140.303,247.266,140.299,247.275,140.295z M252.475,136.401
	c0.477-0.418,0.968-0.824,1.468-1.224C253.442,135.577,252.951,135.983,252.475,136.401z M254.452,134.781
	c0.359-0.279,0.725-0.553,1.096-0.822C255.177,134.229,254.812,134.502,254.452,134.781z M261.234,130.388
	c-0.388,0.21-0.771,0.426-1.149,0.644C260.464,130.813,260.847,130.599,261.234,130.388z M259.441,131.401
	c-0.563,0.334-1.12,0.674-1.664,1.024C258.321,132.075,258.878,131.735,259.441,131.401z M257.416,132.667
	c-0.441,0.29-0.878,0.585-1.306,0.887C256.538,133.252,256.975,132.957,257.416,132.667z M290.107,121.189
	c0.286-0.049,0.572-0.097,0.857-0.145C290.68,121.092,290.394,121.141,290.107,121.189z M292.271,120.833
	c0.249-0.039,0.498-0.076,0.746-0.113C292.77,120.758,292.521,120.794,292.271,120.833z M295.795,120.323
	c0.14-0.019,0.28-0.039,0.421-0.058C296.076,120.284,295.935,120.304,295.795,120.323z M297.636,120.086
	c0.231-0.029,0.463-0.057,0.693-0.084C298.099,120.029,297.867,120.058,297.636,120.086z M299.735,119.84
	c0.197-0.022,0.394-0.043,0.591-0.064C300.129,119.797,299.933,119.818,299.735,119.84z M305.097,119.322
	c0.155-0.013,0.312-0.026,0.467-0.039C305.408,119.296,305.252,119.309,305.097,119.322z M307.069,119.168
	c0.132-0.01,0.263-0.019,0.395-0.028C307.332,119.149,307.201,119.158,307.069,119.168z M312.378,118.847
	c0.05-0.002,0.1-0.005,0.148-0.007C312.478,118.842,312.428,118.845,312.378,118.847z M314.121,118.77
	c0.062-0.002,0.125-0.005,0.188-0.007C314.246,118.765,314.184,118.768,314.121,118.77z M334.012,107.158
	c-0.064-0.025-0.141-0.049-0.207-0.074c0.065,0.025,0.142,0.047,0.205,0.072L334.012,107.158z M322.704,104.892
	c0.457,0.048,0.91,0.097,1.355,0.15C323.615,104.989,323.161,104.939,322.704,104.892z M324.5,105.097
	c1.003,0.124,1.977,0.258,2.901,0.409C326.477,105.355,325.503,105.22,324.5,105.097z M327.432,105.51
	c0.334,0.055,0.652,0.114,0.975,0.172C328.084,105.625,327.766,105.564,327.432,105.51z M329.129,105.816
	c0.287,0.056,0.563,0.116,0.84,0.175C329.692,105.932,329.416,105.872,329.129,105.816z M330.721,106.161
	c0.248,0.059,0.493,0.119,0.73,0.181C331.214,106.28,330.969,106.22,330.721,106.161z M332.216,106.556
	c0.2,0.058,0.405,0.116,0.596,0.176C332.621,106.672,332.416,106.614,332.216,106.556z M301.4,103.989
	c3.031,0,6.395,0.043,9.809,0.159c-11.362-0.385-22.131,0.062-22.131,0.062c0.001,0,0.002-0.001,0.003-0.002
	C289.142,104.205,294.387,103.989,301.4,103.989z M322.191,104.839c-0.471-0.047-0.946-0.092-1.427-0.134
	C321.246,104.747,321.721,104.792,322.191,104.839z M320.342,104.668c-2.952-0.25-6.059-0.417-9.124-0.52
	C314.286,104.252,317.388,104.418,320.342,104.668z"/>
<g>
	<path fill="#3B88E4" d="M186.776,105.402l5.311,1.533l1.168,0.473c0,0-0.314-0.623-0.023-0.723
		c1.342-0.455,3.395-1.732,3.484-5.289c0.014-0.471,1.135,2.357,1.135,2.357s-1.117-5.274-1.127-5.894
		c-0.156-8.889-1.682-29.064-11.311-45.733c-11.301-19.566-19.244-31.001-19.244-31.001l0.846,5.898l-2.662-1.968l-0.861,6.206
		l-11.957,0.693l2.561,6.145c0,0,23.012,35.831,21.105,46.559c0,0-58.008-46.795-93.414-58.817
		c-35.404-12.023-29.412-11.08-29.412-11.08l-6.537,4.715L32.22,18.768l2.451,1.768h-3.268l13.754,8.016
		c0,0,79.251,28.762,117.923,68.246c0,0-48.409-18.946-79.047-20.832l3.288,1.164l-2.879-0.25l1.864,1.285l-4.521,4.608l4.767,4.125
		c0,0,71.217,12.021,91.508,27.583C178.061,114.48,187.956,110.275,186.776,105.402z"/>
	<path fill="#FFFFFF" d="M52.161,14.743c0.102,0,0.213,0.018,0.213,0.018l-0.26,0.188C51.887,14.777,52.017,14.743,52.161,14.743
		 M52.114,14.947c0.789,0.592,5.896,2.818,29.672,10.894C117.191,37.863,175.2,84.658,175.2,84.658
		c1.906-10.728-21.105-46.559-21.105-46.559l-2.561-6.145l11.957-0.693l0.861-6.206l2.662,1.968l-0.846-5.898
		c0,0,7.943,11.435,19.244,31.001c9.629,16.669,11.154,36.845,11.311,45.733c0.01,0.62,1.127,5.894,1.127,5.894
		s-0.957-2.41-1.113-2.41c-0.014,0-0.02,0.016-0.021,0.053c-0.09,3.557-2.143,4.834-3.484,5.289c-0.291,0.1,0.023,0.723,0.023,0.723
		l-1.168-0.473l-5.311-1.533c1.18,4.873-8.715,9.078-8.715,9.078C157.77,98.919,86.553,86.897,86.553,86.897l-4.767-4.125
		l4.521-4.608l-1.864-1.285l2.879,0.25l-3.288-1.164c30.639,1.886,79.047,20.832,79.047,20.832
		C124.409,57.313,45.157,28.551,45.157,28.551l-13.754-8.016h3.268l-2.451-1.768l13.617,0.708L52.114,14.947 M159.735,5.004
		l1.926,13.412l-0.453-0.336l-0.91,6.553l-0.459,3.298l-8.578,0.495l-5.408,0.313l1.84,4.414l2.559,6.146l0.113,0.269l0.158,0.25
		c0.059,0.087,5.764,8.993,11.152,19.062c3.922,7.326,6.275,12.624,7.664,16.437c-6.105-4.682-14.967-11.311-25.004-18.311
		c-11.08-7.728-21.42-14.4-30.732-19.835c-11.768-6.865-21.971-11.785-30.324-14.621c-9.844-3.344-17.385-5.989-22.416-7.864
		c-0.474-0.177-0.912-0.342-1.316-0.495l2.156-1.555l-8.146-1.281l-1.394-1.045l-1.595,1.151c-0.861,0.287-1.587,0.805-2.065,1.49
		l-4.037,2.911l-12-0.623l-12.414-0.646L23.388,17h-5.367l11.102,6.471l13.754,8.014l0.332,0.194l0.369,0.134
		c0.196,0.072,19.945,7.279,44.113,19.175c17.572,8.649,40.402,21.251,58.859,36.059c-3.123-1.052-6.529-2.165-10.115-3.283
		c-9.361-2.921-18.132-5.331-26.071-7.163c-10.033-2.316-18.794-3.717-26.04-4.163l-25.477-1.567l21.219,7.511l0.4,0.276
		l-1.793,1.827l-2.437,2.485l2.662,2.303l4.766,4.126l0.882,0.765l1.225,0.206c0.177,0.03,17.922,3.044,37.875,7.902
		c25.994,6.331,43.875,12.848,51.705,18.856l2.051,1.572l2.459-1.045c0.119-0.051,2.934-1.256,5.6-3.158
		c2.182-1.557,3.561-3.07,4.391-4.479l0.723,0.209l0.957,0.385l9.816,3.961l-3.314-6.541c1.111-1.025,2.127-2.506,2.557-4.625
		l1.279-0.289c-0.455-2.158-0.979-4.783-1.063-5.411c-0.086-4.717-0.533-12.05-2.156-20.383c-1.986-10.202-5.211-19.212-9.58-26.78
		c-11.246-19.463-19.32-31.124-19.4-31.24L159.735,5.004L159.735,5.004z"/>
</g>
<g>
	<path fill="#3B88E4" d="M260.443,128.428l-0.905,1.414l-3.904,2.199c0,0-1.271,1.572-2.45-2.355
		c-1.181-3.93-3.086-8.762-5.22-9.234c-2.135-0.471,0.228-2.633,0.228-2.633l2.766-4.951l1.455-2.08l-1.814,1.963
		c0,0-1.315,0.316,0.135-2.121c1.453-2.436,5.129-9.705,7.127-11.709c0,0,0.361-2.317,2.857-4.281
		c2.498-1.964,10.441-23.379,10.441-23.379s9.486-28.955,11.482-31.077c1.998-2.121,2.182-1.886,3.225-1.375
		c1.045,0.512,8.217,5.029,10.305,5.305c2.086,0.275-0.273,4.674-0.273,4.674s-9.532,34.341-12.438,36.62
		c0,0,12.574-9.155,14.844-11.317c2.271-2.16,29.277-19.134,29.277-19.134l-4.084,4.126l58.826-35.243l-3.949,4.95
		c0,0,17.021-9.783,22.061-10.49c5.035-0.707,12.664,7.661,12.664,7.661l2.724,0.354c0,0,1.635,6.6-9.531,7.662
		c-11.168,1.06-100.496,54.927-109.211,62.234c0,0,34.043-1.413,44.936,2.948l8.687,10.924l-8.457-1.613l7.924,2.824
		C350.163,111.292,286.831,105.222,260.443,128.428z"/>
	<path fill="#FFFFFF" d="M401.055,18.253c5.019,0,12.039,7.705,12.039,7.705l2.724,0.354c0,0,1.635,6.6-9.531,7.662
		c-11.168,1.06-100.496,54.927-109.211,62.234c0,0,5.271-0.219,12.326-0.219c10.879,0,26.002,0.52,32.608,3.167l8.687,10.924
		l-8.457-1.613l7.924,2.824c0,0-7.473-0.717-18.355-0.717c-20.797,0-54.042,2.617-71.362,17.852l-0.906,1.414l-3.904,2.199
		c0,0-0.252,0.312-0.633,0.312c-0.48,0-1.164-0.483-1.818-2.668c-1.18-3.93-3.086-8.762-5.219-9.234
		c-2.135-0.471,0.227-2.633,0.227-2.633l2.767-4.951l1.455-2.08l-1.813,1.963c0,0-0.058,0.016-0.134,0.016
		c-0.293,0-0.887-0.201,0.269-2.137c1.453-2.436,5.129-9.705,7.127-11.709c0,0,0.361-2.317,2.856-4.281
		c2.498-1.964,10.441-23.379,10.441-23.379s9.485-28.955,11.481-31.077c1.238-1.314,1.779-1.725,2.258-1.725
		c0.297,0,0.568,0.154,0.968,0.35c1.045,0.512,8.217,5.029,10.305,5.305c2.086,0.275-0.272,4.674-0.272,4.674
		s-9.533,34.341-12.439,36.62c0,0,12.574-9.155,14.844-11.317c2.271-2.16,29.277-19.134,29.277-19.134l-4.084,4.126l58.826-35.243
		l-3.949,4.95c0,0,17.021-9.783,22.061-10.49C400.633,18.268,400.842,18.253,401.055,18.253 M398.397,9.902L379.993,20.93
		L347.19,40.582l6.092-6.152l-28.105,17.663c-0.065,0.043-6.85,4.306-13.817,8.777c-14.394,9.233-15.533,10.318-16.082,10.84
		c-0.437,0.417-1.426,1.219-2.73,2.232c0.672-2.038,1.396-4.303,2.166-6.786c2.438-7.872,4.613-15.61,5.068-17.233
		c0.191-0.388,0.5-1.05,0.764-1.798c0.498-1.398,1.031-3.467-0.092-5.277c-0.723-1.166-1.988-1.963-3.492-2.207
		c-0.207-0.068-0.982-0.355-2.926-1.405c-1.455-0.786-3.016-1.702-4.158-2.372c-1.109-0.65-1.615-0.946-2.002-1.135
		c-0.041-0.02-0.078-0.039-0.115-0.058c-0.529-0.263-1.512-0.75-2.861-0.75c-2.573,0-4.153,1.679-5.424,3.027
		c-0.608,0.646-1.322,1.657-3.342,6.857c-1.049,2.7-2.357,6.296-3.891,10.687c-2.477,7.087-4.76,14.023-4.994,14.742
		c-0.209,0.561-1.959,5.242-3.98,10.205c-3.717,9.108-5.121,11.267-5.471,11.72c-2.289,1.864-3.287,3.954-3.705,5.202
		c-1.553,1.889-3.365,5.103-5.516,9.013c-0.604,1.098-1.123,2.043-1.475,2.633c-0.453,0.758-1.531,2.568-0.98,4.395l-1.371,2.453
		c-0.959,1.02-2.27,2.893-1.568,4.992c0.441,1.318,1.551,2.33,3.088,2.842c0.224,0.271,0.676,0.918,1.287,2.273
		c0.563,1.244,1.139,2.84,1.672,4.612c0.428,1.424,0.924,2.461,1.562,3.266c1.416,1.781,3.246,2.049,4.213,2.049
		c1.207,0,2.365-0.401,3.256-1.104l3.509-1.979l0.852-0.479l0.492-0.768l0.631-0.982c16.742-14.315,49.776-16.463,68.067-16.463
		c10.496,0,17.834,0.686,17.906,0.693l28.709,2.738l-23.496-8.377l-0.862-1.092l-8.688-10.923l-0.633-0.799l-1.019-0.406
		c-5.786-2.318-17.336-3.492-34.323-3.492c-0.099,0-0.195,0-0.291,0c9.754-6.305,25.86-16.202,43.748-26.667
		c13.473-7.881,25.498-14.634,34.772-19.529c5.18-2.735,9.492-4.884,12.814-6.387c4.783-2.164,6.149-2.368,6.289-2.384
		c5.194-0.493,8.973-2.108,11.215-4.799c2.715-3.258,1.955-6.733,1.858-7.118l-0.59-2.395l-2.799-0.363l-1.193-0.155
		c-0.815-0.813-2.045-1.974-3.483-3.137c-3.998-3.233-7.494-4.805-10.688-4.805c-0.434,0-0.862,0.03-1.28,0.089
		c-1.162,0.163-3.109,0.632-7.289,2.508L398.397,9.902L398.397,9.902z"/>
</g>
<g enable-background="new    ">
	<path d="M402.551,56.714h3.891c0.15,0,0.26,0.018,0.33,0.052c0.07,0.035,0.116,0.091,0.14,0.165s0.035,0.173,0.035,0.294
		s-0.012,0.218-0.035,0.29c-0.023,0.073-0.063,0.123-0.119,0.151c-0.084,0.042-0.203,0.062-0.356,0.062h-1.338v3.521
		c0,0.107-0.003,0.187-0.01,0.237c-0.008,0.052-0.028,0.111-0.063,0.179c-0.034,0.067-0.097,0.115-0.186,0.144
		s-0.205,0.042-0.35,0.042c-0.146,0-0.261-0.014-0.347-0.042s-0.146-0.076-0.182-0.144s-0.057-0.128-0.063-0.182
		s-0.011-0.135-0.011-0.242v-3.514h-1.344c-0.149,0-0.259-0.018-0.329-0.053c-0.069-0.035-0.116-0.09-0.14-0.164
		c-0.023-0.075-0.035-0.173-0.035-0.294s0.012-0.219,0.035-0.291s0.062-0.122,0.119-0.15
		C402.277,56.734,402.396,56.714,402.551,56.714z"/>
	<path d="M412.783,56.917c0.038,0.069,0.061,0.133,0.066,0.188c0.008,0.056,0.012,0.138,0.012,0.245v3.885
		c0,0.322-0.09,0.511-0.267,0.567c-0.089,0.027-0.2,0.042-0.336,0.042s-0.243-0.012-0.321-0.035
		c-0.08-0.023-0.141-0.052-0.183-0.084s-0.075-0.079-0.099-0.14c-0.023-0.08-0.035-0.201-0.035-0.364v-2.345
		c-0.116,0.145-0.286,0.374-0.51,0.689c-0.225,0.314-0.367,0.512-0.428,0.591c-0.061,0.08-0.103,0.135-0.126,0.165
		s-0.081,0.072-0.171,0.126c-0.092,0.054-0.189,0.08-0.295,0.08c-0.104,0-0.2-0.024-0.287-0.073
		c-0.086-0.049-0.147-0.097-0.186-0.144l-0.055-0.077c-0.094-0.116-0.278-0.365-0.554-0.745c-0.275-0.381-0.425-0.585-0.448-0.612
		v2.358c0,0.107-0.004,0.188-0.01,0.242c-0.008,0.054-0.029,0.112-0.066,0.178c-0.07,0.126-0.252,0.189-0.547,0.189
		c-0.284,0-0.462-0.063-0.531-0.189c-0.037-0.065-0.061-0.126-0.066-0.182c-0.008-0.056-0.012-0.14-0.012-0.252v-3.885
		c0-0.107,0.004-0.188,0.012-0.242c0.006-0.054,0.029-0.115,0.066-0.186c0.069-0.121,0.252-0.182,0.545-0.182
		c0.127,0,0.235,0.016,0.326,0.046s0.15,0.062,0.179,0.094l0.042,0.042l1.589,2.086c0.793-1.05,1.323-1.742,1.589-2.078
		c0.079-0.126,0.268-0.189,0.563-0.189S412.719,56.791,412.783,56.917z"/>
</g>
</svg>
