<?xml version="1.0" encoding="utf-8"?>
<!-- Generator: Adobe Illustrator 16.0.0, SVG Export Plug-In . SVG Version: 6.00 Build 0)  -->
<!DOCTYPE svg PUBLIC "-//W3C//DTD SVG 1.1//EN" "http://www.w3.org/Graphics/SVG/1.1/DTD/svg11.dtd">
<svg version="1.1" id="Layer_1" xmlns="http://www.w3.org/2000/svg" xmlns:xlink="http://www.w3.org/1999/xlink" x="0px" y="0px"
	 width="190.333px" height="59.333px" viewBox="22.956 21.693 190.333 59.333"
	 enable-background="new 22.956 21.693 190.333 59.333" xml:space="preserve">
<path fill="#235587" d="M202.445,24.706H34.289c-3.493,0-6.338,2.841-6.338,6.334v40.929c0,3.492,2.845,6.344,6.338,6.344h168.156
	c3.492,0,6.439-2.852,6.439-6.342V31.04C208.882,27.546,205.937,24.706,202.445,24.706z"/>
<path fill="#E52D27" d="M202.445,77.104H34.289c-2.84,0-5.144-2.299-5.144-5.135V31.038c0-2.835,2.304-5.14,5.144-5.14h168.156
	c2.842,0,5.137,2.305,5.137,5.14l0.006,40.931C207.583,74.805,205.287,77.104,202.445,77.104z"/>
<path fill="#721616" d="M202.445,24.706H34.289c-3.493,0-6.338,2.841-6.338,6.334v40.929c0,3.492,2.845,6.344,6.338,6.344h168.156
	c3.492,0,6.439-2.852,6.439-6.342V31.04C208.882,27.546,205.937,24.706,202.445,24.706z M202.445,77.104H34.289
	c-2.84,0-5.144-2.299-5.144-5.135V31.038c0-2.835,2.304-5.14,5.144-5.14h168.156c2.842,0,5.137,2.305,5.137,5.14l0.006,40.931
	C207.583,74.805,205.287,77.104,202.445,77.104z"/>
<g>
	<polygon fill="#AD3BE2" points="117.997,-148.342 109.68,-152.877 -150.754,-152.877 -150.754,-134.262 3.296,-134.262 
		113.354,-134.262 128.247,-134.262 128.247,-148.342 	"/>
	<polygon opacity="0.4" enable-background="new    " points="117.663,-148.342 109.346,-152.877 -151.088,-152.877 
		-151.088,-134.262 2.962,-134.262 113.021,-134.262 127.913,-134.262 127.913,-148.342 	"/>
	<polygon fill="#AD3BE2" points="118.127,-151.055 109.811,-155.588 -150.623,-155.588 -150.623,-136.975 3.427,-136.975 
		113.485,-136.975 128.377,-136.975 128.377,-151.055 	"/>
</g>
<g>
	<path fill="#FFFFFF" d="M41.604,35.875c0-3.3,2.471-4.65,5.328-3l27.145,15.634c2.859,1.65,2.893,4.349,0.033,5.999L46.917,70.143
		c-2.858,1.648-5.313,0.299-5.313-3V35.875z"/>
</g>
<g>
	<path fill="#FFFFFF" d="M105.605,44.844v2.349c0,0.459-0.378,0.702-0.729,0.702h-3.185v10.851c0,0.352-0.216,0.702-0.675,0.702
		h-2.591c-0.351,0-0.702-0.351-0.702-0.702V47.895h-3.185c-0.351,0-0.702-0.243-0.702-0.702v-2.349c0-0.404,0.351-0.729,0.702-0.729
		h10.338C105.228,44.115,105.605,44.439,105.605,44.844z"/>
	<path fill="#FFFFFF" d="M114.921,44.115c4.616,0,6.641,2.808,6.641,5.75v0.216c0,1.916-0.837,3.697-2.592,4.777l1.836,3.887
		c0,0.162-0.081,0.324-0.189,0.459c-0.135,0.135-0.323,0.243-0.513,0.243h-2.51c-0.243,0-0.432-0.135-0.567-0.324
		c-0.081-0.107-0.161-0.242-0.243-0.378l-1.376-2.888h-1.917v2.888c0,0.162-0.054,0.297-0.135,0.433
		c-0.108,0.161-0.297,0.27-0.54,0.27h-2.591c-0.243,0-0.432-0.135-0.566-0.324c-0.081-0.107-0.135-0.242-0.135-0.378V44.844
		c0-0.161,0.027-0.297,0.108-0.404c0.135-0.189,0.351-0.324,0.594-0.324H114.921z M113.491,47.732v4.508h1.431
		c2.376,0,2.673-1.08,2.673-2.159v-0.216c0-1.08-0.297-2.133-2.673-2.133H113.491z"/>
	<path fill="#FFFFFF" d="M137.68,58.745c0,0.352-0.216,0.702-0.62,0.702h-2.402c-0.513,0-0.756-0.378-0.864-0.702l-0.404-1.214
		h-4.967l-0.405,1.214c-0.107,0.324-0.351,0.702-0.863,0.702h-2.402c-0.405,0-0.621-0.351-0.621-0.702l4.076-13.901
		c0.107-0.351,0.297-0.729,0.863-0.729h3.671c0.567,0,0.756,0.378,0.864,0.729L137.68,58.745z M132.309,53.887l-1.403-4.724
		l-1.404,4.724H132.309z"/>
	<path fill="#FFFFFF" d="M145.566,44.844v13.901c0,0.352-0.216,0.702-0.675,0.702H142.3c-0.405,0-0.702-0.351-0.702-0.702V44.844
		c0-0.404,0.297-0.729,0.702-0.729h2.591C145.35,44.115,145.566,44.439,145.566,44.844z"/>
	<path fill="#FFFFFF" d="M151.669,59.447c-0.405,0-0.702-0.351-0.702-0.702V44.844c0-0.404,0.297-0.729,0.702-0.729h2.591
		c0.459,0,0.675,0.324,0.675,0.729v10.824h5.642c0.351,0,0.729,0.324,0.729,0.729v2.348c0,0.459-0.378,0.702-0.729,0.702H151.669z"
		/>
	<path fill="#FFFFFF" d="M175.804,44.115c0.351,0,0.729,0.243,0.729,0.702v2.349c0,0.404-0.378,0.729-0.729,0.729h-6.479V50h4.589
		c0.351,0,0.729,0.323,0.729,0.729v2.105c0,0.459-0.378,0.702-0.729,0.702h-4.589v2.132h6.479c0.351,0,0.729,0.324,0.729,0.729
		v2.348c0,0.459-0.378,0.702-0.729,0.702h-9.744c-0.405,0-0.702-0.351-0.702-0.702V44.817c0-0.352,0.297-0.702,0.702-0.702H175.804z
		"/>
	<path fill="#FFFFFF" d="M186.524,44.115c4.616,0,6.641,2.808,6.641,5.75v0.216c0,1.916-0.837,3.697-2.592,4.777l1.836,3.887
		c0,0.162-0.081,0.324-0.189,0.459c-0.135,0.135-0.323,0.243-0.513,0.243h-2.51c-0.243,0-0.433-0.135-0.567-0.324
		c-0.081-0.107-0.162-0.242-0.243-0.378l-1.376-2.888h-1.917v2.888c0,0.162-0.054,0.297-0.135,0.433
		c-0.108,0.161-0.297,0.27-0.54,0.27h-2.591c-0.243,0-0.433-0.135-0.567-0.324c-0.081-0.107-0.135-0.242-0.135-0.378V44.844
		c0-0.161,0.027-0.297,0.108-0.404c0.135-0.189,0.351-0.324,0.594-0.324H186.524z M185.093,47.732v4.508h1.431
		c2.376,0,2.673-1.08,2.673-2.159v-0.216c0-1.08-0.297-2.133-2.673-2.133H185.093z"/>
</g>
</svg>
