<?xml version="1.0" encoding="utf-8"?>
<!-- Generator: Adobe Illustrator 16.0.0, SVG Export Plug-In . SVG Version: 6.00 Build 0)  -->
<!DOCTYPE svg PUBLIC "-//W3C//DTD SVG 1.1//EN" "http://www.w3.org/Graphics/SVG/1.1/DTD/svg11.dtd">
<svg version="1.1" id="Layer_1" xmlns="http://www.w3.org/2000/svg" xmlns:xlink="http://www.w3.org/1999/xlink" x="0px" y="0px"
	 width="61.212px" height="60.606px" viewBox="0 0 61.212 60.606" enable-background="new 0 0 61.212 60.606" xml:space="preserve">
<g>
	<g>
		<path fill="#3B88E4" d="M51.96,7.907H10.22c-1.646,0-2.98,1.335-2.98,2.981v41.739c0,1.646,1.335,2.982,2.98,2.982h41.74
			c1.646,0,2.98-1.336,2.98-2.982V10.888C54.94,9.242,53.605,7.907,51.96,7.907z M13.202,15.36c0-0.824,0.666-1.491,1.489-1.491
			h4.473v5.962h-5.962V15.36z M48.978,48.155c0,0.824-0.666,1.491-1.489,1.491H14.691c-0.823,0-1.489-0.667-1.489-1.491v-22.36
			h35.775V48.155z M48.978,19.832H25.127V13.87h22.361c0.823,0,1.489,0.667,1.489,1.491V19.832z"/>
	</g>
</g>
</svg>
